<?xml version="1.0" encoding="utf-8"?>
<!-- Generator: Adobe Illustrator 27.5.0, SVG Export Plug-In . SVG Version: 6.00 Build 0)  -->
<svg version="1.1" xmlns="http://www.w3.org/2000/svg" xmlns:xlink="http://www.w3.org/1999/xlink" x="0px" y="0px"
	 viewBox="0 0 500 500" style="enable-background:new 0 0 500 500;" xml:space="preserve">
<g id="BACKGROUND">
	<rect style="fill:#F9FBFC;" width="500" height="500"/>
</g>
<g id="OBJECTS">
	<g>
		<g>
			<circle style="fill:#F9FBFC;" cx="283.255" cy="257.377" r="175.421"/>
			<path style="fill:#88B6BA;" d="M129.837,81.955v11.231c0,2.956,1.577,5.687,4.137,7.165l8.979,5.184l-8.978,5.184
				c-2.56,1.478-4.137,4.21-4.137,7.166v11.231H280.79V81.955H129.837z"/>
			<path style="fill:#2A4924;" d="M86.879,207.751v13.87c0,1.323-0.706,2.545-1.851,3.207l-9.887,5.708
				c-0.612,0.353-0.612,1.237,0,1.59l9.887,5.709c1.146,0.661,1.851,1.884,1.851,3.206v13.87h57.696v-47.161H86.879z"/>
			
				<ellipse transform="matrix(0.7071 -0.7071 0.7071 0.7071 -99.0293 275.6752)" style="fill:#F9FBFC;" cx="283.255" cy="257.377" rx="180.906" ry="180.906"/>
			<path style="fill:#1E2C1F;" d="M152.859,240.563c0.44-0.763,1.254-1.233,2.135-1.233c0.881,0,1.695,0.47,2.135,1.233
				l8.284,14.348h34.895c0.021,0,0.041,0.006,0.062,0.006c1.28-43.851,36.575-79.146,80.426-80.426
				c-0.001-0.021-0.006-0.041-0.006-0.062v-36.318c0-0.881,0.47-1.695,1.233-2.135l11.883-6.86l-11.883-6.861
				c-0.763-0.44-1.233-1.254-1.233-2.135V81.987c-94.923,1.309-171.616,78.002-172.925,172.925h36.71L152.859,240.563z"/>
			<path style="fill:#2A4924;" d="M179.162,337.691c-0.228-0.851,0.015-1.759,0.638-2.381c0.622-0.622,1.533-0.866,2.381-0.638
				l16.004,4.288l24.674-24.673c0.014-0.014,0.031-0.024,0.046-0.038c-13.476-14.295-21.921-33.366-22.535-54.413
				c-0.021,0-0.041,0.006-0.062,0.006H163.99c-0.881,0-1.695-0.469-2.135-1.233l-6.861-11.883l-6.861,11.883
				c-0.44,0.763-1.254,1.233-2.135,1.233h-38.134c0.642,46.578,19.432,88.764,49.626,119.813l25.959-25.96L179.162,337.691z"/>
			<path style="fill:#88B6BA;" d="M301.301,129.116c0,0.88-0.47,1.695-1.233,2.135l-14.348,8.284v34.895
				c0,0.021-0.006,0.041-0.006,0.062c21.047,0.614,40.119,9.059,54.413,22.535c0.014-0.014,0.023-0.032,0.038-0.046l25.68-25.68
				c0.623-0.623,1.533-0.867,2.381-0.638l13.254,3.551l-3.551-13.254c-0.228-0.85,0.015-1.759,0.638-2.381l26.966-26.966
				c-31.049-30.194-73.235-48.984-119.813-49.626v36.71l14.348,8.285C300.831,127.422,301.301,128.236,301.301,129.116z"/>
			<path style="fill:#39D3C7;" d="M387.347,177.062c0.228,0.85-0.015,1.759-0.638,2.381c-0.623,0.624-1.532,0.865-2.381,0.638
				l-16.004-4.288l-24.674,24.674c-0.014,0.014-0.031,0.024-0.046,0.038c13.476,14.295,21.921,33.366,22.535,54.413
				c0.021-0.001,0.041-0.006,0.062-0.006h36.318c0.88,0,1.695,0.47,2.135,1.233l6.861,11.883l6.861-11.883
				c0.44-0.763,1.254-1.233,2.135-1.233h38.134c-0.642-46.578-19.432-88.764-49.626-119.813l-25.959,25.959L387.347,177.062z"/>
			<path style="fill:#0BAAA2;" d="M413.65,274.19c-0.44,0.763-1.254,1.233-2.135,1.233s-1.695-0.469-2.135-1.233l-8.284-14.348
				h-34.895c-0.021,0-0.041-0.006-0.062-0.006c-0.614,21.047-9.059,40.119-22.535,54.413c0.014,0.014,0.032,0.023,0.046,0.038
				l25.68,25.68c0.623,0.622,0.866,1.53,0.638,2.381l-3.551,13.255l13.254-3.552c0.849-0.226,1.758,0.016,2.381,0.638l26.966,26.966
				c30.194-31.049,48.984-73.235,49.626-119.813h-36.71L413.65,274.19z"/>
			<path style="fill:#79BA2B;" d="M363.569,361.469c-0.849,0.229-1.758-0.014-2.381-0.638c-0.623-0.622-0.866-1.53-0.638-2.381
				l4.288-16.004l-24.674-24.673c-0.014-0.014-0.024-0.031-0.038-0.046c-14.295,13.476-33.366,21.921-54.413,22.535
				c0.001,0.021,0.006,0.041,0.006,0.062v36.318c0,0.881-0.47,1.695-1.233,2.135l-11.883,6.86l11.883,6.861
				c0.763,0.441,1.233,1.254,1.233,2.135v38.133c46.578-0.642,88.764-19.432,119.813-49.626l-25.959-25.96L363.569,361.469z"/>
			<path style="fill:#33854E;" d="M265.209,385.637c0-0.881,0.47-1.695,1.233-2.135l14.348-8.283v-34.895
				c0-0.021,0.006-0.041,0.006-0.062c-21.047-0.614-40.119-9.059-54.413-22.535c-0.014,0.014-0.023,0.032-0.038,0.046l-25.68,25.68
				c-0.622,0.624-1.533,0.864-2.381,0.638l-13.254-3.551l3.551,13.254c0.228,0.851-0.015,1.759-0.638,2.381l-26.966,26.966
				c31.049,30.194,73.235,48.984,119.813,49.626v-36.71l-14.348-8.284C265.679,387.332,265.209,386.518,265.209,385.637z"/>
		</g>
		<g>
			<g>
				<path style="fill:#6D6E71;" d="M247.375,250.632c-1.279,0-2.272-0.269-2.979-0.804s-1.198-1.257-1.473-2.164
					c-0.275-0.907-0.413-1.92-0.413-3.035v-6.382c0-1.22,0.137-2.283,0.413-3.191c0.275-0.907,0.766-1.609,1.473-2.108
					c0.707-0.498,1.7-0.747,2.979-0.747c1.13,0,2.027,0.208,2.689,0.624c0.662,0.417,1.138,1.012,1.428,1.785
					c0.29,0.774,0.435,1.704,0.435,2.79v1.428h-2.388v-1.271c0-0.67-0.033-1.261-0.101-1.774c-0.067-0.514-0.249-0.911-0.546-1.194
					c-0.298-0.282-0.796-0.424-1.495-0.424c-0.714,0-1.235,0.153-1.562,0.458c-0.328,0.305-0.54,0.736-0.636,1.294
					s-0.145,1.209-0.145,1.952v7.163c0,0.908,0.075,1.626,0.223,2.153c0.149,0.528,0.394,0.904,0.737,1.127
					c0.342,0.224,0.803,0.335,1.383,0.335c0.684,0,1.175-0.152,1.473-0.457c0.297-0.305,0.483-0.726,0.558-1.261
					c0.074-0.536,0.111-1.161,0.111-1.875v-1.339h2.388v1.339c0,1.102-0.134,2.072-0.402,2.912
					c-0.268,0.841-0.729,1.495-1.383,1.964C249.487,250.397,248.564,250.632,247.375,250.632z"/>
				<path style="fill:#6D6E71;" d="M254.471,250.431v-18.075h2.477v18.075H254.471z"/>
				<path style="fill:#6D6E71;" d="M259.87,250.431v-18.075h3.637c1.205,0,2.202,0.16,2.99,0.48s1.373,0.833,1.751,1.539
					c0.379,0.707,0.569,1.633,0.569,2.778c0,0.699-0.075,1.336-0.223,1.908c-0.149,0.573-0.387,1.057-0.714,1.45
					c-0.327,0.395-0.758,0.681-1.294,0.859l2.566,9.06h-2.432l-2.365-8.479h-1.964v8.479H259.87z M262.392,240.144h0.959
					c0.714,0,1.294-0.089,1.741-0.268s0.773-0.483,0.982-0.915c0.208-0.432,0.313-1.034,0.313-1.808
					c0-1.056-0.194-1.818-0.581-2.287s-1.153-0.703-2.298-0.703h-1.116V240.144z"/>
				<path style="fill:#6D6E71;" d="M275.981,250.632c-1.279,0-2.272-0.269-2.979-0.804s-1.198-1.257-1.473-2.164
					c-0.275-0.907-0.413-1.92-0.413-3.035v-6.382c0-1.22,0.137-2.283,0.413-3.191c0.275-0.907,0.766-1.609,1.473-2.108
					c0.707-0.498,1.7-0.747,2.979-0.747c1.13,0,2.027,0.208,2.689,0.624c0.662,0.417,1.138,1.012,1.428,1.785
					c0.29,0.774,0.435,1.704,0.435,2.79v1.428h-2.388v-1.271c0-0.67-0.033-1.261-0.101-1.774c-0.067-0.514-0.249-0.911-0.546-1.194
					c-0.298-0.282-0.796-0.424-1.495-0.424c-0.714,0-1.235,0.153-1.562,0.458c-0.328,0.305-0.54,0.736-0.636,1.294
					s-0.145,1.209-0.145,1.952v7.163c0,0.908,0.075,1.626,0.223,2.153c0.149,0.528,0.394,0.904,0.737,1.127
					c0.342,0.224,0.803,0.335,1.383,0.335c0.684,0,1.175-0.152,1.473-0.457c0.297-0.305,0.483-0.726,0.558-1.261
					c0.074-0.536,0.111-1.161,0.111-1.875v-1.339h2.388v1.339c0,1.102-0.134,2.072-0.402,2.912
					c-0.268,0.841-0.729,1.495-1.383,1.964C278.094,250.397,277.171,250.632,275.981,250.632z"/>
				<path style="fill:#6D6E71;" d="M287.607,250.632c-1.309,0-2.313-0.261-3.012-0.781c-0.7-0.521-1.175-1.253-1.428-2.198
					c-0.253-0.944-0.379-2.049-0.379-3.313v-11.983h2.41v12.095c0,0.773,0.052,1.48,0.156,2.12c0.104,0.64,0.331,1.146,0.681,1.518
					c0.349,0.372,0.874,0.558,1.573,0.558c0.714,0,1.242-0.186,1.584-0.558s0.565-0.878,0.669-1.518s0.156-1.347,0.156-2.12v-12.095
					h2.388v11.983c0,1.265-0.126,2.369-0.379,3.313c-0.253,0.945-0.725,1.678-1.417,2.198S288.916,250.632,287.607,250.632z"/>
				<path style="fill:#6D6E71;" d="M295.06,250.431v-18.075h2.521v16.268h4.619v1.808H295.06z"/>
				<path style="fill:#6D6E71;" d="M302.937,250.431l3.838-18.075h2.432l3.86,18.075h-2.388l-0.826-4.552h-3.682l-0.87,4.552
					H302.937z M306.507,244.071h3.013l-1.518-8.146L306.507,244.071z"/>
				<path style="fill:#6D6E71;" d="M314.897,250.431v-18.075h3.637c1.205,0,2.202,0.16,2.99,0.48s1.373,0.833,1.751,1.539
					c0.379,0.707,0.569,1.633,0.569,2.778c0,0.699-0.075,1.336-0.223,1.908c-0.149,0.573-0.387,1.057-0.714,1.45
					c-0.327,0.395-0.758,0.681-1.294,0.859l2.566,9.06h-2.432l-2.365-8.479h-1.964v8.479H314.897z M317.419,240.144h0.959
					c0.714,0,1.294-0.089,1.741-0.268s0.773-0.483,0.982-0.915c0.208-0.432,0.313-1.034,0.313-1.808
					c0-1.056-0.194-1.818-0.581-2.287s-1.153-0.703-2.298-0.703h-1.116V240.144z"/>
				<path style="fill:#6D6E71;" d="M243.727,277.208v-18.075h7.007v1.875h-4.485v5.98h3.637v1.785h-3.637v6.627h4.53v1.808H243.727z
					"/>
				<path style="fill:#6D6E71;" d="M257.338,277.409c-1.279,0-2.272-0.269-2.979-0.804s-1.198-1.257-1.473-2.164
					c-0.275-0.907-0.413-1.92-0.413-3.035v-6.382c0-1.22,0.137-2.283,0.413-3.191c0.275-0.907,0.766-1.609,1.473-2.108
					c0.707-0.498,1.7-0.747,2.979-0.747c1.13,0,2.027,0.208,2.689,0.624c0.662,0.417,1.138,1.012,1.428,1.785
					c0.29,0.774,0.435,1.704,0.435,2.79v1.428h-2.388v-1.271c0-0.67-0.033-1.261-0.101-1.774c-0.067-0.514-0.249-0.911-0.546-1.194
					c-0.298-0.282-0.796-0.424-1.495-0.424c-0.714,0-1.235,0.153-1.562,0.458c-0.328,0.305-0.54,0.736-0.636,1.294
					s-0.145,1.209-0.145,1.952v7.163c0,0.908,0.075,1.626,0.223,2.153c0.149,0.528,0.394,0.904,0.737,1.127
					c0.342,0.224,0.803,0.335,1.383,0.335c0.684,0,1.175-0.152,1.473-0.457c0.297-0.305,0.483-0.726,0.558-1.261
					c0.074-0.536,0.111-1.161,0.111-1.875v-1.339h2.388v1.339c0,1.102-0.134,2.072-0.402,2.912
					c-0.268,0.841-0.729,1.495-1.383,1.964C259.451,277.175,258.528,277.409,257.338,277.409z"/>
				<path style="fill:#6D6E71;" d="M268.919,277.409c-1.22,0-2.194-0.238-2.923-0.715c-0.729-0.476-1.25-1.156-1.562-2.041
					c-0.312-0.885-0.468-1.923-0.468-3.113v-6.851c0-1.189,0.16-2.213,0.479-3.068s0.84-1.51,1.562-1.964
					c0.722-0.453,1.692-0.68,2.912-0.68s2.187,0.23,2.901,0.691s1.231,1.115,1.551,1.964c0.32,0.848,0.48,1.867,0.48,3.057v6.873
					c0,1.175-0.16,2.202-0.48,3.079c-0.32,0.878-0.837,1.559-1.551,2.042S270.139,277.409,268.919,277.409z M268.919,275.423
					c0.669,0,1.175-0.138,1.518-0.413c0.342-0.274,0.572-0.661,0.691-1.16c0.119-0.498,0.179-1.082,0.179-1.752v-7.921
					c0-0.67-0.06-1.246-0.179-1.729s-0.35-0.855-0.691-1.116c-0.343-0.26-0.848-0.391-1.518-0.391s-1.179,0.131-1.528,0.391
					c-0.35,0.261-0.584,0.633-0.703,1.116s-0.179,1.06-0.179,1.729v7.921c0,0.67,0.06,1.254,0.179,1.752
					c0.119,0.499,0.353,0.886,0.703,1.16C267.74,275.285,268.25,275.423,268.919,275.423z"/>
				<path style="fill:#6D6E71;" d="M276.328,277.208v-18.075h1.718l5.132,12.006v-12.006h2.098v18.075h-1.607l-5.199-12.34v12.34
					H276.328z"/>
				<path style="fill:#6D6E71;" d="M292.729,277.409c-1.22,0-2.194-0.238-2.923-0.715c-0.729-0.476-1.25-1.156-1.562-2.041
					c-0.312-0.885-0.468-1.923-0.468-3.113v-6.851c0-1.189,0.16-2.213,0.479-3.068s0.84-1.51,1.562-1.964
					c0.722-0.453,1.692-0.68,2.912-0.68s2.187,0.23,2.901,0.691s1.231,1.115,1.551,1.964c0.32,0.848,0.48,1.867,0.48,3.057v6.873
					c0,1.175-0.16,2.202-0.48,3.079c-0.32,0.878-0.837,1.559-1.551,2.042S293.949,277.409,292.729,277.409z M292.729,275.423
					c0.669,0,1.175-0.138,1.518-0.413c0.342-0.274,0.572-0.661,0.691-1.16c0.119-0.498,0.179-1.082,0.179-1.752v-7.921
					c0-0.67-0.06-1.246-0.179-1.729s-0.35-0.855-0.691-1.116c-0.343-0.26-0.848-0.391-1.518-0.391s-1.179,0.131-1.528,0.391
					c-0.35,0.261-0.584,0.633-0.703,1.116s-0.179,1.06-0.179,1.729v7.921c0,0.67,0.06,1.254,0.179,1.752
					c0.119,0.499,0.353,0.886,0.703,1.16C291.55,275.285,292.06,275.423,292.729,275.423z"/>
				<path style="fill:#6D6E71;" d="M300.092,277.208l0.334-18.075h2.477l3.191,14.661l3.213-14.661h2.455l0.334,18.075h-2.03
					l-0.201-13.121l-3.057,13.121h-1.428l-3.035-13.121l-0.201,13.121H300.092z"/>
				<path style="fill:#6D6E71;" d="M317.631,277.208v-6.382l-3.905-11.693h2.343l2.767,8.726l2.722-8.726h2.365l-3.882,11.693v6.382
					H317.631z"/>
			</g>
		</g>
		<g>
			<g>
				<g>
					<g>
						
							<text transform="matrix(1 0 0 1 319.245 163.8945)" style="fill:#F9FBFC; font-family:'Poppins-ExtraBold'; font-size:7.3955px;">DESIGN</text>
					</g>
					<g>
						<g>
							
								<rect x="306.854" y="128.547" transform="matrix(0.7071 -0.7071 0.7071 0.7071 3.9285 274.2784)" style="fill:none;stroke:#F9FBFC;stroke-width:1.1259;stroke-linecap:round;stroke-linejoin:round;stroke-miterlimit:10;" width="52.386" height="7.701"/>
							
								<line style="fill:none;stroke:#F9FBFC;stroke-width:1.1259;stroke-linecap:round;stroke-linejoin:round;stroke-miterlimit:10;" x1="313.567" y1="146.432" x2="314.501" y2="147.365"/>
							
								<line style="fill:none;stroke:#F9FBFC;stroke-width:1.1259;stroke-linecap:round;stroke-linejoin:round;stroke-miterlimit:10;" x1="315.331" y1="144.668" x2="316.265" y2="145.601"/>
							
								<line style="fill:none;stroke:#F9FBFC;stroke-width:1.1259;stroke-linecap:round;stroke-linejoin:round;stroke-miterlimit:10;" x1="317.095" y1="142.904" x2="318.962" y2="144.771"/>
							
								<line style="fill:none;stroke:#F9FBFC;stroke-width:1.1259;stroke-linecap:round;stroke-linejoin:round;stroke-miterlimit:10;" x1="318.859" y1="141.14" x2="319.793" y2="142.074"/>
							
								<line style="fill:none;stroke:#F9FBFC;stroke-width:1.1259;stroke-linecap:round;stroke-linejoin:round;stroke-miterlimit:10;" x1="320.623" y1="139.376" x2="321.557" y2="140.309"/>
							
								<line style="fill:none;stroke:#F9FBFC;stroke-width:1.1259;stroke-linecap:round;stroke-linejoin:round;stroke-miterlimit:10;" x1="322.387" y1="137.612" x2="324.254" y2="139.479"/>
							
								<line style="fill:none;stroke:#F9FBFC;stroke-width:1.1259;stroke-linecap:round;stroke-linejoin:round;stroke-miterlimit:10;" x1="324.151" y1="135.848" x2="325.085" y2="136.782"/>
							
								<line style="fill:none;stroke:#F9FBFC;stroke-width:1.1259;stroke-linecap:round;stroke-linejoin:round;stroke-miterlimit:10;" x1="325.915" y1="134.084" x2="326.848" y2="135.018"/>
							
								<line style="fill:none;stroke:#F9FBFC;stroke-width:1.1259;stroke-linecap:round;stroke-linejoin:round;stroke-miterlimit:10;" x1="327.679" y1="132.32" x2="329.546" y2="134.187"/>
							
								<line style="fill:none;stroke:#F9FBFC;stroke-width:1.1259;stroke-linecap:round;stroke-linejoin:round;stroke-miterlimit:10;" x1="329.443" y1="130.556" x2="330.376" y2="131.49"/>
							
								<line style="fill:none;stroke:#F9FBFC;stroke-width:1.1259;stroke-linecap:round;stroke-linejoin:round;stroke-miterlimit:10;" x1="331.207" y1="128.792" x2="332.14" y2="129.726"/>
							
								<line style="fill:none;stroke:#F9FBFC;stroke-width:1.1259;stroke-linecap:round;stroke-linejoin:round;stroke-miterlimit:10;" x1="332.971" y1="127.029" x2="334.838" y2="128.895"/>
							
								<line style="fill:none;stroke:#F9FBFC;stroke-width:1.1259;stroke-linecap:round;stroke-linejoin:round;stroke-miterlimit:10;" x1="334.735" y1="125.265" x2="335.668" y2="126.198"/>
							
								<line style="fill:none;stroke:#F9FBFC;stroke-width:1.1259;stroke-linecap:round;stroke-linejoin:round;stroke-miterlimit:10;" x1="336.499" y1="123.501" x2="337.432" y2="124.434"/>
							
								<line style="fill:none;stroke:#F9FBFC;stroke-width:1.1259;stroke-linecap:round;stroke-linejoin:round;stroke-miterlimit:10;" x1="338.262" y1="121.737" x2="340.129" y2="123.604"/>
							
								<line style="fill:none;stroke:#F9FBFC;stroke-width:1.1259;stroke-linecap:round;stroke-linejoin:round;stroke-miterlimit:10;" x1="340.026" y1="119.973" x2="340.96" y2="120.906"/>
							
								<line style="fill:none;stroke:#F9FBFC;stroke-width:1.1259;stroke-linecap:round;stroke-linejoin:round;stroke-miterlimit:10;" x1="341.79" y1="118.209" x2="342.724" y2="119.142"/>
							
								<line style="fill:none;stroke:#F9FBFC;stroke-width:1.1259;stroke-linecap:round;stroke-linejoin:round;stroke-miterlimit:10;" x1="343.554" y1="116.445" x2="345.421" y2="118.312"/>
							
								<line style="fill:none;stroke:#F9FBFC;stroke-width:1.1259;stroke-linecap:round;stroke-linejoin:round;stroke-miterlimit:10;" x1="345.318" y1="114.681" x2="346.252" y2="115.615"/>
							
								<line style="fill:none;stroke:#F9FBFC;stroke-width:1.1259;stroke-linecap:round;stroke-linejoin:round;stroke-miterlimit:10;" x1="347.082" y1="112.917" x2="348.016" y2="113.851"/>
							
								<line style="fill:none;stroke:#F9FBFC;stroke-width:1.1259;stroke-linecap:round;stroke-linejoin:round;stroke-miterlimit:10;" x1="317.185" y1="150.049" x2="350.699" y2="116.534"/>
						</g>
						<g>
							
								<polyline style="fill:none;stroke:#F9FBFC;stroke-width:1.1259;stroke-linecap:round;stroke-linejoin:round;stroke-miterlimit:10;" points="
								346.288,149.891 354.366,153.716 350.542,145.637 							"/>
							
								<line style="fill:none;stroke:#F9FBFC;stroke-width:1.1259;stroke-linecap:round;stroke-linejoin:round;stroke-miterlimit:10;" x1="316.818" y1="111.913" x2="332.452" y2="127.548"/>
							
								<polyline style="fill:none;stroke:#F9FBFC;stroke-width:1.1259;stroke-linecap:round;stroke-linejoin:round;stroke-miterlimit:10;" points="
								313.713,115.018 311.729,113.034 313.685,111.079 315.668,113.063 							"/>
							
								<line style="fill:none;stroke:#F9FBFC;stroke-width:1.1259;stroke-linecap:round;stroke-linejoin:round;stroke-miterlimit:10;" x1="314.547" y1="118.151" x2="318.801" y2="113.897"/>
							
								<path style="fill:none;stroke:#F9FBFC;stroke-width:1.1259;stroke-linecap:round;stroke-linejoin:round;stroke-miterlimit:10;" d="
								M316.818,111.913l-4.254,4.254l0,0c-1.033,1.033-1.033,2.708,0,3.741l10.032,10.032"/>
							
								<line style="fill:none;stroke:#F9FBFC;stroke-width:1.1259;stroke-linecap:round;stroke-linejoin:round;stroke-miterlimit:10;" x1="330.325" y1="129.674" x2="316.674" y2="116.024"/>
							
								<line style="fill:none;stroke:#F9FBFC;stroke-width:1.1259;stroke-linecap:round;stroke-linejoin:round;stroke-miterlimit:10;" x1="348.415" y1="147.764" x2="335.77" y2="135.12"/>
							
								<line style="fill:none;stroke:#F9FBFC;stroke-width:1.1259;stroke-linecap:round;stroke-linejoin:round;stroke-miterlimit:10;" x1="328.198" y1="131.801" x2="312.564" y2="116.167"/>
							
								<polyline style="fill:none;stroke:#F9FBFC;stroke-width:1.1259;stroke-linecap:round;stroke-linejoin:round;stroke-miterlimit:10;" points="
								337.897,132.993 350.542,145.637 346.288,149.891 333.643,137.247 							"/>
						</g>
					</g>
				</g>
				<g>
					<text transform="matrix(1 0 0 1 386.367 231.3174)"><tspan x="0" y="0" style="fill:#F9FBFC; font-family:'Poppins-ExtraBold'; font-size:7.3955px;">PRODUCTION</tspan><tspan x="-12.957" y="8.875" style="fill:#F9FBFC; font-family:'Poppins-ExtraBold'; font-size:7.3955px;">REMANUFACTURING</tspan></text>
					<g>
						
							<polygon style="fill:none;stroke:#F9FBFC;stroke-width:1.1259;stroke-linecap:round;stroke-linejoin:round;stroke-miterlimit:10;" points="
							392.071,219.003 430.602,219.003 430.603,192.693 429.205,192.693 421.179,196.248 421.132,192.693 419.734,192.693 
							411.709,196.248 411.663,192.693 410.264,192.693 400.794,196.887 400.794,201.863 392.071,201.863 						"/>
						
							<rect x="395.485" y="178.601" style="fill:none;stroke:#F9FBFC;stroke-width:1.1259;stroke-linecap:round;stroke-linejoin:round;stroke-miterlimit:10;" width="5.308" height="23.263"/>
						
							<line style="fill:none;stroke:#F9FBFC;stroke-width:1.1259;stroke-linecap:round;stroke-linejoin:round;stroke-miterlimit:10;" x1="395.485" y1="180.981" x2="400.794" y2="180.981"/>
						
							<line style="fill:none;stroke:#F9FBFC;stroke-width:1.1259;stroke-linecap:round;stroke-linejoin:round;stroke-miterlimit:10;" x1="395.485" y1="183.248" x2="400.794" y2="183.248"/>
						<g>
							<g>
								
									<path style="fill:none;stroke:#F9FBFC;stroke-width:1.1259;stroke-linecap:round;stroke-linejoin:round;stroke-miterlimit:10;" d="
									M407.468,197.941c-0.335,0-0.608,0.273-0.608,0.61c0,0.336,0.272,0.609,0.608,0.609c0.336,0,0.61-0.272,0.61-0.609
									C408.078,198.214,407.804,197.941,407.468,197.941z"/>
							</g>
							<g>
								
									<path style="fill:none;stroke:#F9FBFC;stroke-width:1.1259;stroke-linecap:round;stroke-linejoin:round;stroke-miterlimit:10;" d="
									M404.464,197.941c-0.336,0-0.609,0.273-0.609,0.61c0,0.336,0.273,0.609,0.609,0.609c0.336,0,0.608-0.272,0.608-0.609
									C405.072,198.214,404.8,197.941,404.464,197.941z"/>
							</g>
						</g>
						<g>
							<g>
								
									<path style="fill:none;stroke:#F9FBFC;stroke-width:1.1259;stroke-linecap:round;stroke-linejoin:round;stroke-miterlimit:10;" d="
									M416.938,197.941c-0.335,0-0.608,0.273-0.608,0.61c0,0.336,0.273,0.609,0.608,0.609c0.337,0,0.61-0.272,0.61-0.609
									C417.548,198.214,417.275,197.941,416.938,197.941z"/>
							</g>
							<g>
								
									<path style="fill:none;stroke:#F9FBFC;stroke-width:1.1259;stroke-linecap:round;stroke-linejoin:round;stroke-miterlimit:10;" d="
									M413.934,197.941c-0.335,0-0.608,0.273-0.608,0.61c0,0.336,0.273,0.609,0.608,0.609c0.337,0,0.611-0.272,0.611-0.609
									C414.544,198.214,414.271,197.941,413.934,197.941z"/>
							</g>
						</g>
						<g>
							<g>
								
									<path style="fill:none;stroke:#F9FBFC;stroke-width:1.1259;stroke-linecap:round;stroke-linejoin:round;stroke-miterlimit:10;" d="
									M426.41,197.941c-0.338,0-0.609,0.273-0.609,0.61c0,0.336,0.271,0.609,0.609,0.609c0.335,0,0.608-0.272,0.608-0.609
									C427.019,198.214,426.746,197.941,426.41,197.941z"/>
							</g>
							<g>
								
									<path style="fill:none;stroke:#F9FBFC;stroke-width:1.1259;stroke-linecap:round;stroke-linejoin:round;stroke-miterlimit:10;" d="
									M423.403,197.941c-0.335,0-0.608,0.273-0.608,0.61c0,0.336,0.273,0.609,0.608,0.609c0.337,0,0.611-0.272,0.611-0.609
									C424.014,198.214,423.74,197.941,423.403,197.941z"/>
							</g>
						</g>
						
							<polyline style="fill:none;stroke:#F9FBFC;stroke-width:1.1259;stroke-linecap:round;stroke-linejoin:round;stroke-miterlimit:10;" points="
							400.794,201.863 419.187,201.863 419.187,219.003 						"/>
						
							<polyline style="fill:none;stroke:#F9FBFC;stroke-width:1.1259;stroke-linecap:round;stroke-linejoin:round;stroke-miterlimit:10;" points="
							413.935,219.003 413.935,210.976 410.21,210.976 410.21,219.003 						"/>
						
							<rect x="424.014" y="206.073" style="fill:none;stroke:#F9FBFC;stroke-width:1.1259;stroke-linecap:round;stroke-linejoin:round;stroke-miterlimit:10;" width="2.435" height="2.397"/>
						
							<rect x="402.649" y="210.976" style="fill:none;stroke:#F9FBFC;stroke-width:1.1259;stroke-linecap:round;stroke-linejoin:round;stroke-miterlimit:10;" width="5.2" height="3.881"/>
						
							<rect x="394.848" y="210.976" style="fill:none;stroke:#F9FBFC;stroke-width:1.1259;stroke-linecap:round;stroke-linejoin:round;stroke-miterlimit:10;" width="5.2" height="3.881"/>
						
							<rect x="396.633" y="176.366" style="fill:none;stroke:#F9FBFC;stroke-width:1.1259;stroke-linecap:round;stroke-linejoin:round;stroke-miterlimit:10;" width="3.012" height="2.235"/>
						
							<line style="fill:none;stroke:#F9FBFC;stroke-width:1.1259;stroke-linecap:round;stroke-linejoin:round;stroke-miterlimit:10;" x1="392.071" y1="204.499" x2="419.187" y2="204.499"/>
					</g>
				</g>
				<g>
					
						<text transform="matrix(1 0 0 1 374.9344 325.5977)" style="fill:#F9FBFC; font-family:'Poppins-ExtraBold'; font-size:7.3955px;">DISTRIBUTION</text>
					<g>
						
							<polyline style="fill:none;stroke:#F9FBFC;stroke-width:1.1259;stroke-linecap:round;stroke-linejoin:round;stroke-miterlimit:10;" points="
							422.179,307.993 424.371,307.993 425.078,310.357 						"/>
						
							<line style="fill:none;stroke:#F9FBFC;stroke-width:1.1259;stroke-linecap:round;stroke-linejoin:round;stroke-miterlimit:10;" x1="391.892" y1="307.993" x2="407.15" y2="307.993"/>
						
							<path style="fill:none;stroke:#F9FBFC;stroke-width:1.1259;stroke-linecap:round;stroke-linejoin:round;stroke-miterlimit:10;" d="
							M380.428,293.31c0.29-0.739,1.003-1.224,1.796-1.224h4.533h3.946c0.657,0,1.189,0.533,1.189,1.189v14.718l-1.783,0
							c-0.291,0-0.577-0.12-0.758-0.349c-0.979-1.238-2.492-2.034-4.193-2.034c-1.701,0-3.215,0.796-4.193,2.034
							c-0.181,0.229-0.466,0.349-0.758,0.349h-2.872c-0.657,0-1.189-0.533-1.189-1.189v-3.455c0-0.249,0.078-0.485,0.214-0.68
							c0.455-0.653,0.907-1.309,1.198-2.05L380.428,293.31z"/>
						<g>
							
								<path style="fill:none;stroke:#F9FBFC;stroke-width:1.1259;stroke-linecap:round;stroke-linejoin:round;stroke-miterlimit:10;" d="
								M388.936,310.357c0-2.087-1.692-3.778-3.778-3.778s-3.778,1.691-3.778,3.778s1.691,3.778,3.778,3.778
								S388.936,312.444,388.936,310.357z"/>
							
								<path style="fill:none;stroke:#F9FBFC;stroke-width:1.1259;stroke-linecap:round;stroke-linejoin:round;stroke-miterlimit:10;" d="
								M386.279,310.357c0-0.619-0.502-1.12-1.12-1.12c-0.619,0-1.12,0.501-1.12,1.12c0,0.619,0.501,1.12,1.12,1.12
								C385.777,311.478,386.279,310.976,386.279,310.357z"/>
						</g>
						<g>
							
								<path style="fill:none;stroke:#F9FBFC;stroke-width:1.1259;stroke-linecap:round;stroke-linejoin:round;stroke-miterlimit:10;" d="
								M407.15,307.991c-0.521,0.648-0.832,1.47-0.832,2.366c0,2.087,1.692,3.778,3.778,3.778c2.087,0,3.778-1.692,3.778-3.778
								s-1.692-3.778-3.778-3.778C408.905,306.579,407.843,307.13,407.15,307.991"/>
							
								<path style="fill:none;stroke:#F9FBFC;stroke-width:1.1259;stroke-linecap:round;stroke-linejoin:round;stroke-miterlimit:10;" d="
								M411.216,310.357c0-0.619-0.501-1.12-1.12-1.12c-0.619,0-1.12,0.501-1.12,1.12c0,0.619,0.501,1.12,1.12,1.12
								C410.715,311.478,411.216,310.976,411.216,310.357z"/>
						</g>
						<g>
							
								<path style="fill:none;stroke:#F9FBFC;stroke-width:1.1259;stroke-linecap:round;stroke-linejoin:round;stroke-miterlimit:10;" d="
								M423.017,310.357c0-2.087-1.692-3.778-3.778-3.778s-3.778,1.691-3.778,3.778s1.692,3.778,3.778,3.778
								S423.017,312.444,423.017,310.357z"/>
							
								<path style="fill:none;stroke:#F9FBFC;stroke-width:1.1259;stroke-linecap:round;stroke-linejoin:round;stroke-miterlimit:10;" d="
								M420.359,310.357c0-0.619-0.501-1.12-1.12-1.12c-0.619,0-1.12,0.501-1.12,1.12c0,0.619,0.502,1.12,1.12,1.12
								C419.857,311.478,420.359,310.976,420.359,310.357z"/>
						</g>
						
							<path style="fill:none;stroke:#F9FBFC;stroke-width:1.1259;stroke-linecap:round;stroke-linejoin:round;stroke-miterlimit:10;" d="
							M424.231,305.91h-28.492c-1.034,0-1.872-0.838-1.872-1.872v-12.821c0-1.034,0.838-1.872,1.872-1.872h28.492
							c1.034,0,1.872,0.838,1.872,1.872v12.821C426.104,305.072,425.265,305.91,424.231,305.91z"/>
						
							<polyline style="fill:none;stroke:#F9FBFC;stroke-width:1.1259;stroke-linecap:round;stroke-linejoin:round;stroke-miterlimit:10;" points="
							423.998,300.673 423.998,291.536 399.521,291.536 						"/>
						
							<polyline style="fill:none;stroke:#F9FBFC;stroke-width:1.1259;stroke-linecap:round;stroke-linejoin:round;stroke-miterlimit:10;" points="
							395.973,293.787 395.973,303.72 421.095,303.72 						"/>
						
							<path style="fill:none;stroke:#F9FBFC;stroke-width:1.1259;stroke-linecap:round;stroke-linejoin:round;stroke-miterlimit:10;" d="
							M391.892,307.993h2.468v2.416c0,0.682-0.552,1.234-1.234,1.234l0,0c-0.682,0-1.234-0.552-1.234-1.234V307.993z"/>
						
							<path style="fill:none;stroke:#F9FBFC;stroke-width:1.1259;stroke-linecap:round;stroke-linejoin:round;stroke-miterlimit:10;" d="
							M398.362,311.478h3.826c1.067,0,1.932-0.865,1.932-1.932v-1.594h-7.69v1.594C396.43,310.613,397.295,311.478,398.362,311.478z
							"/>
						<g>
							
								<path style="fill:none;stroke:#F9FBFC;stroke-width:1.1259;stroke-linecap:round;stroke-linejoin:round;stroke-miterlimit:10;" d="
								M377.536,300.673h7.716l0.664-6.886h-4.666c-0.604,0-1.147,0.368-1.37,0.929l-0.543,1.361"/>
							
								<path style="fill:none;stroke:#F9FBFC;stroke-width:1.1259;stroke-linecap:round;stroke-linejoin:round;stroke-miterlimit:10;" d="
								M387.439,293.787l-0.124,6.886h2.94v-6.349c-0.012-0.3-0.258-0.537-0.558-0.537H387.439z"/>
						</g>
						
							<line style="fill:none;stroke:#F9FBFC;stroke-width:1.1259;stroke-linecap:round;stroke-linejoin:round;stroke-miterlimit:10;" x1="376.145" y1="305.126" x2="379.141" y2="305.126"/>
						
							<line style="fill:none;stroke:#F9FBFC;stroke-width:1.1259;stroke-linecap:round;stroke-linejoin:round;stroke-miterlimit:10;" x1="413.034" y1="307.993" x2="416.294" y2="307.993"/>
						
							<path style="fill:none;stroke:#F9FBFC;stroke-width:1.1259;stroke-linecap:round;stroke-linejoin:round;stroke-miterlimit:10;" d="
							M422.942,307.993h1.5c0.917,0,1.661-0.744,1.661-1.661v-2.612"/>
					</g>
				</g>
				<g>
					
						<text transform="matrix(1 0 0 1 300.0941 394.5694)" style="fill:#F9FBFC; font-family:'Poppins-ExtraBold'; font-size:7.3955px;">CONSUMPTION</text>
					<g>
						
							<polyline style="fill:none;stroke:#F9FBFC;stroke-width:1.1259;stroke-linecap:round;stroke-linejoin:round;stroke-miterlimit:10;" points="
							343.678,368.555 343.678,381.621 328.481,381.621 328.481,361.466 						"/>
						
							<polygon style="fill:none;stroke:#F9FBFC;stroke-width:1.1259;stroke-linecap:round;stroke-linejoin:round;stroke-miterlimit:10;" points="
							347.788,368.555 332.591,368.555 328.481,361.466 343.678,361.466 						"/>
						
							<polyline style="fill:none;stroke:#F9FBFC;stroke-width:1.1259;stroke-linecap:round;stroke-linejoin:round;stroke-miterlimit:10;" points="
							313.285,368.555 313.285,381.621 328.481,381.621 328.481,361.466 						"/>
						
							<polygon style="fill:none;stroke:#F9FBFC;stroke-width:1.1259;stroke-linecap:round;stroke-linejoin:round;stroke-miterlimit:10;" points="
							309.175,368.555 324.371,368.555 328.481,361.466 313.285,361.466 						"/>
						
							<rect x="332.935" y="375.123" style="fill:none;stroke:#F9FBFC;stroke-width:1.1259;stroke-linecap:round;stroke-linejoin:round;stroke-miterlimit:10;" width="7.372" height="3.128"/>
						
							<line style="fill:none;stroke:#F9FBFC;stroke-width:1.1259;stroke-linecap:round;stroke-linejoin:round;stroke-miterlimit:10;" x1="324.63" y1="376.687" x2="316.707" y2="376.687"/>
						<g>
							
								<circle style="fill:none;stroke:#F9FBFC;stroke-width:1.1259;stroke-linecap:round;stroke-linejoin:round;stroke-miterlimit:10;" cx="338.307" cy="353.652" r="5.371"/>
							
								<path style="fill:none;stroke:#F9FBFC;stroke-width:1.1259;stroke-linecap:round;stroke-linejoin:round;stroke-miterlimit:10;" d="
								M339.846,351.579c-0.85-0.474-2.228-0.474-3.078,0c-0.85,0.474-0.85,1.243,0,1.718c0.425,0.237,0.982,0.356,1.539,0.356
								c0.557,0,1.114,0.119,1.539,0.356c0.85,0.474,0.85,1.243,0,1.718c-0.85,0.474-2.228,0.474-3.078,0"/>
							
								<line style="fill:none;stroke:#F9FBFC;stroke-width:1.1259;stroke-linecap:round;stroke-linejoin:round;stroke-miterlimit:10;" x1="338.307" y1="350.387" x2="338.307" y2="356.918"/>
						</g>
						
							<rect x="326.946" y="351.535" style="fill:none;stroke:#F9FBFC;stroke-width:1.1259;stroke-linecap:round;stroke-linejoin:round;stroke-miterlimit:10;" width="3.07" height="9.93"/>
						
							<rect x="321.56" y="353.308" style="fill:none;stroke:#F9FBFC;stroke-width:1.1259;stroke-linecap:round;stroke-linejoin:round;stroke-miterlimit:10;" width="3.07" height="8.158"/>
						
							<rect x="316.173" y="355.493" style="fill:none;stroke:#F9FBFC;stroke-width:1.1259;stroke-linecap:round;stroke-linejoin:round;stroke-miterlimit:10;" width="3.07" height="5.973"/>
						<g>
							
								<path style="fill:none;stroke:#F9FBFC;stroke-width:1.1259;stroke-linecap:round;stroke-linejoin:round;stroke-miterlimit:10;" d="
								M315.507,352.162c0,0,8.815-1.565,12.974-6.672"/>
							
								<polyline style="fill:none;stroke:#F9FBFC;stroke-width:1.1259;stroke-linecap:round;stroke-linejoin:round;stroke-miterlimit:10;" points="
								325.974,345.49 328.481,345.49 328.481,347.997 							"/>
						</g>
					</g>
				</g>
				<g>
					
						<text transform="matrix(1 0 0 1 200.2449 394.5694)" style="fill:#F9FBFC; font-family:'Poppins-ExtraBold'; font-size:7.3955px;">REPAIR / REUSE</text>
					<g>
						<g>
							
								<path style="fill:none;stroke:#F9FBFC;stroke-width:1.1259;stroke-linecap:round;stroke-linejoin:round;stroke-miterlimit:10;" d="
								M230.81,371.505l9.106,9.106c1.03,1.03,2.699,1.03,3.729,0l0,0c1.03-1.03,1.03-2.699,0-3.729l-9.106-9.106L230.81,371.505z"
								/>
							
								<path style="fill:none;stroke:#F9FBFC;stroke-width:1.1259;stroke-linecap:round;stroke-linejoin:round;stroke-miterlimit:10;" d="
								M229.053,371.584L229.053,371.584c0.464,0.464,1.215,0.464,1.678,0l3.887-3.887c0.463-0.463,0.463-1.215,0-1.678l0,0
								c-0.464-0.463-1.215-0.463-1.678,0l-3.887,3.887C228.59,370.369,228.59,371.12,229.053,371.584z"/>
							
								<line style="fill:none;stroke:#F9FBFC;stroke-width:1.1259;stroke-linecap:round;stroke-linejoin:round;stroke-miterlimit:10;" x1="232.675" y1="369.64" x2="243.646" y2="380.611"/>
							
								<polygon style="fill:none;stroke:#F9FBFC;stroke-width:1.1259;stroke-linecap:round;stroke-linejoin:round;stroke-miterlimit:10;" points="
								216.73,352.169 216.306,350.487 212.81,348.249 211.284,349.775 213.522,353.271 215.204,353.695 230.234,368.725 
								231.76,367.199 							"/>
						</g>
						<g>
							
								<path style="fill:none;stroke:#F9FBFC;stroke-width:1.1259;stroke-linecap:round;stroke-linejoin:round;stroke-miterlimit:10;" d="
								M230.049,365.488l6.88-6.88l1.036,0.218c1.147,0.241,2.342,0.057,3.363-0.517l0.036-0.02c0.782-0.439,1.426-1.087,1.86-1.872
								l1.431-2.581l-0.905-0.905l-2.251,2.251c-0.388,0.388-0.953,0.539-1.482,0.397l-1.373-0.368
								c-0.53-0.142-0.943-0.556-1.085-1.085l-0.368-1.373c-0.142-0.53,0.01-1.095,0.397-1.483l2.251-2.251l-0.104-0.104
								l-0.905-0.904l-2.581,1.43c-0.784,0.435-1.432,1.079-1.872,1.86c-0.586,1.043-0.765,2.267-0.501,3.434l0.218,0.965
								l-6.916,6.916"/>
							
								<path style="fill:none;stroke:#F9FBFC;stroke-width:1.1259;stroke-linecap:round;stroke-linejoin:round;stroke-miterlimit:10;" d="
								M225.653,364.145l-6.88,6.88l-1.036-0.218c-1.147-0.241-2.342-0.057-3.363,0.517l-0.036,0.021
								c-0.782,0.439-1.426,1.087-1.86,1.871l-1.43,2.581l0.905,0.904l2.251-2.251c0.388-0.388,0.953-0.539,1.483-0.397l1.372,0.368
								c0.53,0.142,0.943,0.556,1.085,1.085l0.368,1.373c0.142,0.53-0.01,1.095-0.397,1.483l-2.251,2.251l0.104,0.104l0.904,0.904
								l2.581-1.43c0.784-0.435,1.432-1.079,1.871-1.86c0.586-1.043,0.765-2.267,0.501-3.435l-0.218-0.965l6.916-6.916"/>
							
								<line style="fill:none;stroke:#F9FBFC;stroke-width:1.1259;stroke-linecap:round;stroke-linejoin:round;stroke-miterlimit:10;" x1="228.614" y1="364.053" x2="235.417" y2="357.25"/>
							
								<line style="fill:none;stroke:#F9FBFC;stroke-width:1.1259;stroke-linecap:round;stroke-linejoin:round;stroke-miterlimit:10;" x1="220.285" y1="372.382" x2="227.088" y2="365.579"/>
						</g>
					</g>
				</g>
				<g>
					
						<text transform="matrix(1 0 0 1 138.7772 325.5977)" style="fill:#F9FBFC; font-family:'Poppins-ExtraBold'; font-size:7.3955px;">COLLECTION</text>
					<g>
						<g>
							
								<path style="fill:none;stroke:#F9FBFC;stroke-width:1.1259;stroke-linecap:round;stroke-linejoin:round;stroke-miterlimit:10;" d="
								M165.786,281.944c-0.861,0-1.625-0.421-2.255-1.007c-0.385-0.358-0.9-0.578-1.469-0.578s-1.084,0.22-1.469,0.578
								c-0.63,0.587-1.395,1.007-2.255,1.007h-4.155l0.191,3.804h15.374l0.191-3.804H165.786z"/>
							
								<path style="fill:none;stroke:#F9FBFC;stroke-width:1.1259;stroke-linecap:round;stroke-linejoin:round;stroke-miterlimit:10;" d="
								M157.616,309.407h8.892c1.149,0,2.096-0.901,2.153-2.048l0.969-19.27h-15.138l0.969,19.27
								C155.52,308.507,156.467,309.407,157.616,309.407z"/>
							
								<rect x="157.449" y="309.407" style="fill:none;stroke:#F9FBFC;stroke-width:1.1259;stroke-linecap:round;stroke-linejoin:round;stroke-miterlimit:10;" width="1.761" height="1.761"/>
							
								<rect x="164.975" y="309.407" style="fill:none;stroke:#F9FBFC;stroke-width:1.1259;stroke-linecap:round;stroke-linejoin:round;stroke-miterlimit:10;" width="1.761" height="1.761"/>
							<g>
								
									<polyline style="fill:none;stroke:#F9FBFC;stroke-width:1.1259;stroke-linecap:round;stroke-linejoin:round;stroke-miterlimit:10;" points="
									169.749,285.748 169.94,281.944 154.184,281.944 154.375,285.748 								"/>
							</g>
							<g>
								<g>
									
										<polyline style="fill:none;stroke:#F9FBFC;stroke-width:1.1259;stroke-linecap:round;stroke-linejoin:round;stroke-miterlimit:10;" points="
										163.238,299.253 165.454,299.253 163.758,296.315 									"/>
									
										<polyline style="fill:none;stroke:#F9FBFC;stroke-width:1.1259;stroke-linecap:round;stroke-linejoin:round;stroke-miterlimit:10;" points="
										163.914,298.701 163.238,299.253 163.914,299.806 									"/>
								</g>
								<g>
									
										<polyline style="fill:none;stroke:#F9FBFC;stroke-width:1.1259;stroke-linecap:round;stroke-linejoin:round;stroke-miterlimit:10;" points="
										163.17,295.297 162.062,293.378 160.366,296.315 									"/>
									
										<polyline style="fill:none;stroke:#F9FBFC;stroke-width:1.1259;stroke-linecap:round;stroke-linejoin:round;stroke-miterlimit:10;" points="
										162.354,294.988 163.17,295.297 163.311,294.435 									"/>
								</g>
								<g>
									
										<polyline style="fill:none;stroke:#F9FBFC;stroke-width:1.1259;stroke-linecap:round;stroke-linejoin:round;stroke-miterlimit:10;" points="
										159.778,297.334 158.67,299.253 162.062,299.253 									"/>
									
										<polyline style="fill:none;stroke:#F9FBFC;stroke-width:1.1259;stroke-linecap:round;stroke-linejoin:round;stroke-miterlimit:10;" points="
										159.918,298.196 159.778,297.334 158.961,297.643 									"/>
								</g>
							</g>
						</g>
						<g>
							
								<path style="fill:none;stroke:#F9FBFC;stroke-width:1.1259;stroke-linecap:round;stroke-linejoin:round;stroke-miterlimit:10;" d="
								M183.44,281.944c-0.861,0-1.625-0.421-2.255-1.007c-0.385-0.358-0.9-0.578-1.469-0.578s-1.084,0.22-1.469,0.578
								c-0.63,0.587-1.394,1.007-2.255,1.007h-4.155l0.191,3.804h15.374l0.191-3.804H183.44z"/>
							
								<path style="fill:none;stroke:#F9FBFC;stroke-width:1.1259;stroke-linecap:round;stroke-linejoin:round;stroke-miterlimit:10;" d="
								M175.27,309.407h8.893c1.149,0,2.096-0.901,2.153-2.048l0.969-19.27h-15.138l0.97,19.27
								C173.174,308.507,174.121,309.407,175.27,309.407z"/>
							
								<rect x="175.104" y="309.407" style="fill:none;stroke:#F9FBFC;stroke-width:1.1259;stroke-linecap:round;stroke-linejoin:round;stroke-miterlimit:10;" width="1.761" height="1.761"/>
							
								<rect x="182.629" y="309.407" style="fill:none;stroke:#F9FBFC;stroke-width:1.1259;stroke-linecap:round;stroke-linejoin:round;stroke-miterlimit:10;" width="1.761" height="1.761"/>
							<g>
								
									<polyline style="fill:none;stroke:#F9FBFC;stroke-width:1.1259;stroke-linecap:round;stroke-linejoin:round;stroke-miterlimit:10;" points="
									187.403,285.748 187.594,281.944 171.838,281.944 172.029,285.748 								"/>
							</g>
							<g>
								<g>
									
										<polyline style="fill:none;stroke:#F9FBFC;stroke-width:1.1259;stroke-linecap:round;stroke-linejoin:round;stroke-miterlimit:10;" points="
										180.892,299.253 183.108,299.253 181.412,296.315 									"/>
									
										<polyline style="fill:none;stroke:#F9FBFC;stroke-width:1.1259;stroke-linecap:round;stroke-linejoin:round;stroke-miterlimit:10;" points="
										181.568,298.701 180.892,299.253 181.568,299.806 									"/>
								</g>
								<g>
									
										<polyline style="fill:none;stroke:#F9FBFC;stroke-width:1.1259;stroke-linecap:round;stroke-linejoin:round;stroke-miterlimit:10;" points="
										180.824,295.297 179.716,293.378 178.02,296.315 									"/>
									
										<polyline style="fill:none;stroke:#F9FBFC;stroke-width:1.1259;stroke-linecap:round;stroke-linejoin:round;stroke-miterlimit:10;" points="
										180.008,294.988 180.824,295.297 180.965,294.435 									"/>
								</g>
								<g>
									
										<polyline style="fill:none;stroke:#F9FBFC;stroke-width:1.1259;stroke-linecap:round;stroke-linejoin:round;stroke-miterlimit:10;" points="
										177.432,297.334 176.324,299.253 179.716,299.253 									"/>
									
										<polyline style="fill:none;stroke:#F9FBFC;stroke-width:1.1259;stroke-linecap:round;stroke-linejoin:round;stroke-miterlimit:10;" points="
										177.572,298.196 177.432,297.334 176.615,297.643 									"/>
								</g>
							</g>
						</g>
						<g>
							
								<path style="fill:none;stroke:#F9FBFC;stroke-width:1.1259;stroke-linecap:round;stroke-linejoin:round;stroke-miterlimit:10;" d="
								M148.132,281.944c-0.861,0-1.625-0.421-2.255-1.007c-0.385-0.358-0.9-0.578-1.469-0.578s-1.084,0.22-1.469,0.578
								c-0.63,0.587-1.395,1.007-2.255,1.007h-4.154l0.191,3.804h15.374l0.191-3.804H148.132z"/>
							
								<path style="fill:none;stroke:#F9FBFC;stroke-width:1.1259;stroke-linecap:round;stroke-linejoin:round;stroke-miterlimit:10;" d="
								M139.962,309.407h8.893c1.149,0,2.095-0.901,2.153-2.048l0.97-19.27h-15.138l0.969,19.27
								C137.866,308.507,138.813,309.407,139.962,309.407z"/>
							
								<rect x="139.795" y="309.407" style="fill:none;stroke:#F9FBFC;stroke-width:1.1259;stroke-linecap:round;stroke-linejoin:round;stroke-miterlimit:10;" width="1.761" height="1.761"/>
							
								<rect x="147.321" y="309.407" style="fill:none;stroke:#F9FBFC;stroke-width:1.1259;stroke-linecap:round;stroke-linejoin:round;stroke-miterlimit:10;" width="1.761" height="1.761"/>
							<g>
								
									<polyline style="fill:none;stroke:#F9FBFC;stroke-width:1.1259;stroke-linecap:round;stroke-linejoin:round;stroke-miterlimit:10;" points="
									152.095,285.748 152.286,281.944 136.53,281.944 136.721,285.748 								"/>
							</g>
							<g>
								<g>
									
										<polyline style="fill:none;stroke:#F9FBFC;stroke-width:1.1259;stroke-linecap:round;stroke-linejoin:round;stroke-miterlimit:10;" points="
										145.584,299.253 147.8,299.253 146.104,296.315 									"/>
									
										<polyline style="fill:none;stroke:#F9FBFC;stroke-width:1.1259;stroke-linecap:round;stroke-linejoin:round;stroke-miterlimit:10;" points="
										146.26,298.701 145.584,299.253 146.26,299.806 									"/>
								</g>
								<g>
									
										<polyline style="fill:none;stroke:#F9FBFC;stroke-width:1.1259;stroke-linecap:round;stroke-linejoin:round;stroke-miterlimit:10;" points="
										145.516,295.297 144.408,293.378 142.712,296.315 									"/>
									
										<polyline style="fill:none;stroke:#F9FBFC;stroke-width:1.1259;stroke-linecap:round;stroke-linejoin:round;stroke-miterlimit:10;" points="
										144.7,294.988 145.516,295.297 145.657,294.435 									"/>
								</g>
								<g>
									
										<polyline style="fill:none;stroke:#F9FBFC;stroke-width:1.1259;stroke-linecap:round;stroke-linejoin:round;stroke-miterlimit:10;" points="
										142.124,297.334 141.016,299.253 144.408,299.253 									"/>
									
										<polyline style="fill:none;stroke:#F9FBFC;stroke-width:1.1259;stroke-linecap:round;stroke-linejoin:round;stroke-miterlimit:10;" points="
										142.264,298.196 142.124,297.334 141.307,297.643 									"/>
								</g>
							</g>
						</g>
					</g>
				</g>
				<g>
					<g>
						
							<text transform="matrix(1 0 0 1 168.2596 192.876)" style="fill:#F9FBFC; font-family:'Poppins-ExtraBold'; font-size:7.3955px;">RECYCLING</text>
					</g>
					<g>
						<g>
							
								<path style="fill:none;stroke:#F9FBFC;stroke-width:1.1259;stroke-linecap:round;stroke-linejoin:round;stroke-miterlimit:10;" d="
								M173.544,148.336l2.479-4.293c1.274-2.207,3.63-3.567,6.178-3.567h14.617c2.549,0,4.904,1.36,6.178,3.567l3.654,6.329v0
								l2.804-1.619l-4.175,9.374h-12.06l2.804-1.619l0,0l-6.514-11.282l-5.516,9.772"/>
							
								<line style="fill:none;stroke:#F9FBFC;stroke-width:1.1259;stroke-linecap:round;stroke-linejoin:round;stroke-miterlimit:10;" x1="192.252" y1="140.476" x2="189.51" y2="145.226"/>
						</g>
						<g>
							
								<path style="fill:none;stroke:#F9FBFC;stroke-width:1.1259;stroke-linecap:round;stroke-linejoin:round;stroke-miterlimit:10;" d="
								M187.158,180.062h-4.957c-2.549,0-4.904-1.36-6.178-3.567l-7.309-12.659c-1.274-2.207-1.274-4.927,0-7.134l3.654-6.329l0,0
								l-2.804-1.619l10.205-1.071l6.03,10.444l-2.804-1.619h0l-6.514,11.282l11.157-0.108"/>
							
								<line style="fill:none;stroke:#F9FBFC;stroke-width:1.1259;stroke-linecap:round;stroke-linejoin:round;stroke-miterlimit:10;" x1="170.997" y1="167.79" x2="176.482" y2="167.79"/>
						</g>
						<g>
							
								<path style="fill:none;stroke:#F9FBFC;stroke-width:1.1259;stroke-linecap:round;stroke-linejoin:round;stroke-miterlimit:10;" d="
								M207.826,152.409l2.479,4.293c1.274,2.207,1.274,4.927,0,7.134l-7.309,12.659c-1.274,2.207-3.629,3.567-6.178,3.567h-7.309
								l0,0v3.238l-6.03-8.303l6.03-10.444v3.238l0,0h13.027l-5.704-9.663"/>
							
								<line style="fill:none;stroke:#F9FBFC;stroke-width:1.1259;stroke-linecap:round;stroke-linejoin:round;stroke-miterlimit:10;" x1="205.279" y1="172.54" x2="202.537" y2="167.79"/>
						</g>
					</g>
				</g>
			</g>
			<g>
				<g>
					<g>
						
							<path style="fill:none;stroke:#808285;stroke-width:1.1259;stroke-linecap:round;stroke-linejoin:round;stroke-miterlimit:10;" d="
							M91.372,103.424c-1.713,4.464-6.04,7.633-11.107,7.633c-6.568,0-11.892-5.324-11.892-11.892
							c0-5.02,6.948-26.432,10.223-36.242c0.536-1.607,2.802-1.607,3.339,0c2.283,6.839,6.351,19.317,8.606,27.948"/>
						<g>
							
								<line style="fill:none;stroke:#808285;stroke-width:1.1259;stroke-linecap:round;stroke-linejoin:round;stroke-miterlimit:10;" x1="80.265" y1="79.484" x2="80.265" y2="117.203"/>
							
								<polyline style="fill:none;stroke:#808285;stroke-width:1.1259;stroke-linecap:round;stroke-linejoin:round;stroke-miterlimit:10;" points="
								83.868,82.788 80.267,86.389 76.648,82.77 							"/>
							
								<polyline style="fill:none;stroke:#808285;stroke-width:1.1259;stroke-linecap:round;stroke-linejoin:round;stroke-miterlimit:10;" points="
								86.125,88.955 80.272,94.807 74.39,88.925 							"/>
							
								<polyline style="fill:none;stroke:#808285;stroke-width:1.1259;stroke-linecap:round;stroke-linejoin:round;stroke-miterlimit:10;" points="
								87.761,96.433 80.277,103.918 72.754,96.395 							"/>
						</g>
					</g>
					<g>
						
							<ellipse transform="matrix(0.238 -0.9713 0.9713 0.238 -15.6357 172.8609)" style="fill:none;stroke:#808285;stroke-width:1.1259;stroke-linecap:round;stroke-linejoin:round;stroke-miterlimit:10;" cx="102.343" cy="96.395" rx="13.033" ry="13.033"/>
						<g>
							
								<line style="fill:none;stroke:#808285;stroke-width:1.1259;stroke-linecap:round;stroke-linejoin:round;stroke-miterlimit:10;" x1="102.349" y1="91.388" x2="102.349" y2="117.203"/>
							
								<polyline style="fill:none;stroke:#808285;stroke-width:1.1259;stroke-linecap:round;stroke-linejoin:round;stroke-miterlimit:10;" points="
								105.05,93.866 102.35,96.565 99.637,93.852 							"/>
							
								<polyline style="fill:none;stroke:#808285;stroke-width:1.1259;stroke-linecap:round;stroke-linejoin:round;stroke-miterlimit:10;" points="
								106.742,98.489 102.355,102.877 97.945,98.466 							"/>
						</g>
					</g>
				</g>
				
					<text transform="matrix(1 0 0 1 63.2557 129.5313)" style="fill:#6D6E71; font-family:'Poppins-ExtraBold'; font-size:7.3955px;">RAW MATERIAL</text>
			</g>
			<g>
				<text transform="matrix(1 0 0 1 31.2 247.1572)"><tspan x="0" y="0" style="fill:#6D6E71; font-family:'Poppins-ExtraBold'; font-size:7.3955px;">RESIDUAL </tspan><tspan x="4.537" y="8.875" style="fill:#6D6E71; font-family:'Poppins-ExtraBold'; font-size:7.3955px;">WASTE</tspan></text>
				<g>
					
						<path style="fill:none;stroke:#808285;stroke-width:1.1259;stroke-linecap:round;stroke-linejoin:round;stroke-miterlimit:10;" d="
						M44.613,233.775h8.893c1.149,0,2.095-0.9,2.153-2.048l0.97-19.27H41.49l0.97,19.27
						C42.517,232.874,43.464,233.775,44.613,233.775z"/>
					
						<rect x="44.447" y="233.775" style="fill:none;stroke:#808285;stroke-width:1.1259;stroke-linecap:round;stroke-linejoin:round;stroke-miterlimit:10;" width="1.761" height="1.761"/>
					
						<rect x="51.972" y="233.775" style="fill:none;stroke:#808285;stroke-width:1.1259;stroke-linecap:round;stroke-linejoin:round;stroke-miterlimit:10;" width="1.761" height="1.761"/>
					<g>
						
							<line style="fill:none;stroke:#808285;stroke-width:1.1259;stroke-linecap:round;stroke-linejoin:round;stroke-miterlimit:10;" x1="53.52" y1="215.222" x2="53.022" y2="231.727"/>
						
							<line style="fill:none;stroke:#808285;stroke-width:1.1259;stroke-linecap:round;stroke-linejoin:round;stroke-miterlimit:10;" x1="50.552" y1="215.222" x2="50.386" y2="231.727"/>
						
							<line style="fill:none;stroke:#808285;stroke-width:1.1259;stroke-linecap:round;stroke-linejoin:round;stroke-miterlimit:10;" x1="47.583" y1="215.222" x2="47.749" y2="231.727"/>
						
							<line style="fill:none;stroke:#808285;stroke-width:1.1259;stroke-linecap:round;stroke-linejoin:round;stroke-miterlimit:10;" x1="44.614" y1="215.222" x2="45.113" y2="231.727"/>
					</g>
					
						<rect x="40.121" y="210.01" style="fill:none;stroke:#808285;stroke-width:1.1259;stroke-linecap:round;stroke-linejoin:round;stroke-miterlimit:10;" width="17.876" height="2.448"/>
					
						<path style="fill:none;stroke:#808285;stroke-width:1.1259;stroke-linecap:round;stroke-linejoin:round;stroke-miterlimit:10;" d="
						M40.649,210.01c0,0,0-2.514,2.203-2.199c0,0,0.472-2.885,3.619-2.203c0,0,1.731-1.416,3.462-0.42c0,0,1.878-1.678,3.089,0.262
						c0,0,2.313-0.154,1.946,2.203c0,0,2.622-0.091,2.57,2.356H40.649z"/>
					
						<path style="fill:none;stroke:#808285;stroke-width:1.1259;stroke-linecap:round;stroke-linejoin:round;stroke-miterlimit:10;" d="
						M44.614,208.269c0,0,1.149-1.416,2.644-0.669"/>
					
						<path style="fill:none;stroke:#808285;stroke-width:1.1259;stroke-linecap:round;stroke-linejoin:round;stroke-miterlimit:10;" d="
						M49.094,207.509c0,0,0.983-1.112,1.849,0"/>
					
						<path style="fill:none;stroke:#808285;stroke-width:1.1259;stroke-linecap:round;stroke-linejoin:round;stroke-miterlimit:10;" d="
						M52.007,208.527c0,0,0.352-0.874,1.317-0.354"/>
				</g>
			</g>
		</g>
	</g>
</g>
</svg>
