<?xml version="1.0" encoding="utf-8"?>
<!-- Generator: Adobe Illustrator 27.5.0, SVG Export Plug-In . SVG Version: 6.00 Build 0)  -->
<svg version="1.1" xmlns="http://www.w3.org/2000/svg" xmlns:xlink="http://www.w3.org/1999/xlink" x="0px" y="0px"
	 viewBox="0 0 499.999 500" style="enable-background:new 0 0 499.999 500;" xml:space="preserve">
<g id="BACKGROUND">
	<rect x="-0.001" y="0.001" style="fill:#FFFFFF;" width="500" height="500"/>
</g>
<g id="OBJECTS">
	<rect x="-0.001" y="391.649" style="fill:#DAE2FB;" width="500" height="108.352"/>
	<g>
		<g>
			<g>
				<path style="fill:#BCCEFB;" d="M23,422.96c132.746,0,265.491,0,398.237,0c18.588,0,37.175,0,55.763,0c9.673,0,9.673-15,0-15
					c-132.748,0-265.496,0-398.243,0c-18.586,0-37.171,0-55.757,0C13.327,407.96,13.327,422.96,23,422.96L23,422.96z"/>
			</g>
		</g>
		<g>
			<g>
				<g>
					<path style="fill:#2F3D79;" d="M40.929,400.724c5.868-7.828,36.057-59.617,40.624-67.885c0,0,1.16-31.094,3.57-55.42
						c3.356,23.254,8.763,54.479,8.763,54.479c-10.013,17.432-2.729,62.185,0.167,73.088c5.128,0.709,9.807-1.44,14.972-1.018
						c6.688-42.639,9.842-121.127,6.493-151.611l-53.579-0.119l-7.144-0.685c-8.607,22.16-2.797,58.527,3.817,77.992
						c0,0-12.095,6.285-31.146,66.855"/>
				</g>
				<g>
					<g>
						<g>
							<path style="fill:#FFA602;" d="M26.184,394.183c0,0-8.544,11.531-2.036,13.541c3.326,1.037,19.822,6.533,28.758,9.033
								c10.659,3.207,2.722-7.012-10.055-17.336c0,0-9.138-2.871-14.113-4.434"/>
						</g>
						<g>
							<g>
								<g>
									<path style="fill:#2F3D79;" d="M43.862,405.845c1.275-1.033,2.558-1.815,4.115-2.345c1.518-0.516,0.866-2.931-0.665-2.41
										c-1.99,0.676-3.591,1.669-5.218,2.987C40.841,405.093,42.622,406.85,43.862,405.845L43.862,405.845z"/>
								</g>
							</g>
							<g>
								<g>
									<path style="fill:#2F3D79;" d="M46.109,408.875c1.444-0.971,2.846-2.04,4.535-2.541c1.542-0.457,0.885-2.87-0.665-2.41
										c-1.913,0.567-3.496,1.692-5.132,2.793C43.517,407.61,44.767,409.777,46.109,408.875L46.109,408.875z"/>
								</g>
							</g>
						</g>
					</g>
					<g>
						<g>
							<path style="fill:#FFA602;" d="M92.938,403.73c0,0-4.251,13.705,2.555,13.451c3.482-0.119,20.867-0.387,30.127-0.98
								c11.121-0.498-0.75-7.518-16.22-13.039c0,0-8.572,0.313-13.786,0.483"/>
						</g>
						<g>
							<g>
								<g>
									<path style="fill:#2F3D79;" d="M114.594,404.078c-1.267,1.385-2.06,3.001-3.029,4.586
										c-0.843,1.379,1.319,2.635,2.159,1.262c0.852-1.393,1.524-2.862,2.638-4.08
										C117.447,404.659,115.685,402.885,114.594,404.078L114.594,404.078z"/>
								</g>
							</g>
							<g>
								<g>
									<path style="fill:#2F3D79;" d="M117.899,405.831c-0.825,1.193-1.362,2.538-2,3.834c-0.709,1.44,1.446,2.708,2.158,1.262
										c0.638-1.296,1.176-2.641,2-3.834C120.977,405.762,118.809,404.514,117.899,405.831L117.899,405.831z"/>
								</g>
							</g>
						</g>
					</g>
				</g>
				<g>
					<g>
						<g>
							<path style="fill:#536CD6;" d="M26.341,394.829c5.129,3.612,11.096,4.583,17.097,5.877c3.144,0.678,4.48-4.143,1.329-4.822
								c-5.58-1.202-11.129-2.01-15.903-5.373C26.222,388.649,23.728,392.987,26.341,394.829L26.341,394.829z"/>
						</g>
					</g>
					<g>
						<g>
							<path style="fill:#536CD6;" d="M92.563,404.831c6.28,1.223,12.39,1.859,18.454-0.625c2.941-1.206,1.655-6.045-1.329-4.822
								c-5.264,2.157-10.327,1.69-15.796,0.625C90.743,399.395,89.4,404.214,92.563,404.831L92.563,404.831z"/>
						</g>
					</g>
				</g>
			</g>
			<g>
				<g>
					<g>
						<path style="fill:#EEBDA5;" d="M130.229,201.769c2.898,0.077,32.133-10.658,37.446-11.434c1.243,7.869,0.532-1.432,3.81,5.492
							c-17.783,19.967-37.009,26.451-46.9,23.502c-18.089-4.461-26.646-20.219-33.07-36.984l19.578-23.885
							C121.521,180.101,124.555,201.611,130.229,201.769z"/>
					</g>
					<g>
						<path style="fill:#7A3DB7;" d="M97.228,158.544c7.25-3,17.392-3.614,21.5,3c3.516,5.661,5.75,11.669,9,18.75
							c0,0-18,7.5-23.75,9.75"/>
					</g>
					<g>
						<g>
							<g>
								<path style="fill:#ADC7FF;" d="M143.228,215.044c0,1.924-3-14-3-14l25.25-1.5c0,0,0,2.5,0.5,6.5
									c0.25,2.25,0.5,4.5,0.75,6.75"/>
							</g>
							<g>
								<polyline style="fill:#CADBFF;" points="145.228,217.044 143.228,203.044 168.478,200.544 168.978,213.044 								"/>
							</g>
							<g>
								<path style="fill:#FFE3C1;" d="M159.837,219.794c0,0,5.339-15,7.341-20.25c0,0,4.006,1,10.68,1c2.338,0,17.021,1,17.021,1
									s-5.005,13.25-6.339,16"/>
							</g>
						</g>
						<g>
							<g>
								<path style="fill:#956E4F;" d="M139.781,207.821c-0.303,11.224-1.52,17.681-1.52,26c0,11.441-0.782,21.732-1.56,34.84
									c-0.558,9.401,4.16,7.28,14.04,7.8c7.28,0.52,14.559,1.56,21.84,1.56c3.64,0,18.756,2.297,21.72,0
									c3.195-2.477,2.997-16.351,2.681-25.961c-0.485-14.766-0.48-29.159-0.48-44.239"/>
							</g>
							<g>
								<path style="fill:#C79269;" d="M135.781,207.821c-0.303,11.224-1.52,17.681-1.52,26c0,11.441-0.782,21.732-1.56,34.84
									c-0.558,9.401,4.16,7.28,14.04,7.8c7.28,0.52,14.559,1.56,21.84,1.56c3.64,0,18.756,2.297,21.72,0
									c3.195-2.477,2.997-16.351,2.681-25.961c-0.485-14.766-0.48-29.159-0.48-44.239"/>
							</g>
						</g>
						<path style="fill:none;stroke:#956E4F;stroke-width:4;stroke-miterlimit:10;" d="M156.061,211.3
							c0-6.76-1.462-22.327,10.44-20.76c9.523,1.254,9.545,12.76,8.72,20.76"/>
						<g style="opacity:0.7;">
							<path style="fill-rule:evenodd;clip-rule:evenodd;fill:#956E4F;" d="M168.248,251.732c0,0.639,0,1.266,0,1.893
								c-0.013,0.004-0.025,0.01-0.038,0.014c-0.031-0.035-0.065-0.068-0.094-0.105c-0.641-0.864-1.288-1.725-1.919-2.596
								c-0.412-0.568-0.803-1.154-1.205-1.73c-0.041-0.058-0.054-0.099-0.008-0.165c1.023-1.47,2.044-2.94,3.066-4.411
								c0.053-0.077,0.113-0.149,0.181-0.24c0.007,0.033,0.013,0.049,0.014,0.064c0.015,0.546,0.031,1.092,0.042,1.637
								c0.002,0.074,0.031,0.102,0.096,0.119c0.62,0.168,1.246,0.241,1.887,0.203c1.642-0.095,3.037-0.754,4.238-1.851
								c0.657-0.599,1.216-1.282,1.683-2.038c0.018-0.029,0.038-0.059,0.072-0.112c0.109,0.294,0.217,0.567,0.311,0.845
								c0.282,0.838,0.455,1.697,0.44,2.586c-0.035,1.966-0.893,3.451-2.603,4.434c-0.728,0.419-1.517,0.682-2.339,0.834
								c-1.053,0.195-2.11,0.365-3.165,0.543C168.699,251.689,168.487,251.704,168.248,251.732z"/>
							<path style="fill-rule:evenodd;clip-rule:evenodd;fill:#956E4F;" d="M153.541,239.706c-0.536-0.321-1.078-0.645-1.62-0.969
								c0-0.009,0-0.018,0.001-0.026c0.166-0.028,0.332-0.064,0.498-0.082c1.011-0.113,2.021-0.227,3.032-0.328
								c0.648-0.064,1.299-0.105,1.948-0.162c0.075-0.007,0.095,0.031,0.119,0.083c0.414,0.868,0.834,1.732,1.244,2.602
								c0.372,0.792,0.732,1.589,1.098,2.384c0.021,0.045,0.036,0.092,0.063,0.159c-0.537-0.288-1.053-0.567-1.593-0.856
								c-0.148,0.162-0.311,0.325-0.458,0.502c-0.745,0.895-1.175,1.93-1.348,3.076c-0.19,1.26-0.01,2.482,0.415,3.67
								c0.171,0.479,0.403,0.936,0.609,1.402c0.016,0.037,0.038,0.074,0.069,0.138c-0.282-0.046-0.541-0.083-0.798-0.134
								c-0.978-0.191-1.909-0.51-2.751-1.055c-1.257-0.814-2.039-1.947-2.27-3.438c-0.131-0.85-0.061-1.691,0.145-2.523
								c0.237-0.957,0.593-1.875,0.941-2.797C153.091,240.806,153.316,240.266,153.541,239.706z"/>
							<path style="fill-rule:evenodd;clip-rule:evenodd;fill:#956E4F;" d="M164.969,236.634c0.218-0.135,0.417-0.259,0.617-0.381
								c0.274-0.169,0.546-0.341,0.824-0.504c0.073-0.044,0.08-0.086,0.061-0.16c-0.252-0.979-0.733-1.834-1.419-2.571
								c-0.953-1.024-2.13-1.664-3.476-2.017c-0.736-0.193-1.484-0.295-2.244-0.322c-0.015-0.001-0.03-0.004-0.056-0.006
								c0.008-0.02,0.01-0.039,0.02-0.053c0.718-0.939,1.544-1.758,2.586-2.338c0.882-0.489,1.824-0.737,2.837-0.668
								c0.926,0.064,1.763,0.392,2.536,0.898c0.727,0.477,1.328,1.089,1.892,1.742c0.749,0.869,1.48,1.753,2.17,2.688
								c0.552-0.307,1.105-0.615,1.688-0.94c-0.024,0.074-0.037,0.123-0.057,0.17c-0.381,0.887-0.754,1.776-1.148,2.658
								c-0.332,0.74-0.69,1.47-1.032,2.207c-0.036,0.078-0.079,0.096-0.161,0.089c-0.672-0.056-1.346-0.105-2.02-0.158
								c-0.724-0.058-1.448-0.119-2.171-0.183c-0.426-0.037-0.852-0.082-1.278-0.125
								C165.089,236.657,165.041,236.646,164.969,236.634z"/>
							<path style="fill-rule:evenodd;clip-rule:evenodd;fill:#956E4F;" d="M160.705,238.546c-1.657-0.852-3.303-1.697-4.956-2.547
								c0.02-0.037,0.031-0.064,0.046-0.09c0.996-1.52,1.993-3.041,2.988-4.561c0.039-0.059,0.076-0.091,0.15-0.081
								c1.491,0.172,2.943,0.474,4.283,1.184c0.253,0.134,0.493,0.289,0.732,0.43c-0.001,0.027,0.001,0.036-0.003,0.043
								c-0.625,0.789-1.092,1.675-1.567,2.557c-0.484,0.896-0.964,1.797-1.447,2.695
								C160.865,238.299,160.787,238.416,160.705,238.546z"/>
							<path style="fill-rule:evenodd;clip-rule:evenodd;fill:#956E4F;" d="M171.995,245.382c-0.162-0.335-0.295-0.669-0.475-0.975
								c-0.585-0.989-1.188-1.969-1.784-2.951c-0.313-0.518-0.623-1.037-0.933-1.556c-0.03-0.05-0.053-0.104-0.083-0.164
								c1.563-1.006,3.119-2.009,4.685-3.018c0.029,0.053,0.051,0.089,0.069,0.126c0.808,1.6,1.614,3.202,2.424,4.802
								c0.046,0.094,0.043,0.154-0.02,0.238c-0.726,0.98-1.528,1.888-2.497,2.634c-0.242,0.187-0.501,0.353-0.76,0.516
								C172.421,245.16,172.206,245.267,171.995,245.382z"/>
							<path style="fill-rule:evenodd;clip-rule:evenodd;fill:#956E4F;" d="M157.194,246.101c0.716,0.113,1.427,0.123,2.136,0.107
								c0.934-0.023,1.867-0.072,2.8-0.1c0.494-0.014,0.989-0.006,1.484-0.012c0.083,0,0.093,0.042,0.096,0.109
								c0.024,0.514,0.051,1.027,0.077,1.54c0.045,0.922,0.092,1.843,0.137,2.763c0.018,0.384,0.031,0.768,0.048,1.162
								c-0.238-0.012-0.468-0.023-0.698-0.037c-0.591-0.035-1.182-0.075-1.774-0.108c-0.913-0.052-1.826-0.1-2.739-0.149
								c-0.121-0.007-0.244-0.008-0.364-0.023c-0.036-0.004-0.085-0.037-0.1-0.07c-0.495-1.104-0.877-2.242-1.053-3.443
								C157.162,247.269,157.138,246.693,157.194,246.101z"/>
						</g>
					</g>
					<g>
						<path style="fill:#EEBDA5;" d="M158.346,190.893c2.197,11.883,18.913,11.608,17.755-1.063
							c-0.657-8.575-17.017-8.315-17.413,0.677"/>
						<g>
							<path style="fill:#EEBDA5;" d="M156.039,193.224c2.597-0.064,5.269-0.459,7.648-1.604c1.317-0.639,2.144-2.034,1.629-3.576
								c-0.449-1.34-2.077-2.353-3.4-1.715c-2.01,0.972-4.115,1.253-6.31,1.308c-1.454,0.036-2.555,1.57-2.439,3.022
								C153.291,192.248,154.588,193.261,156.039,193.224L156.039,193.224z"/>
						</g>
					</g>
				</g>
				<g>
					<path style="fill:#A251F4;" d="M119.207,265.597c0-6.416-7.488-41.673-7.108-56.581c8.722-8.957,9.222-17.303,2.575-31.355
						c-5.605-11.922-7.688-18.681-14.073-20.814c-6.388-2.13-12.12-2.303-25.754-0.653c-7.056,1.351-10.438,2.386-13.315,9.791
						c-2.878,7.408-2.818,23.06-0.132,37.479c1.935,13.581-12.64,50.549-12.421,59.581c0.22,9.036,29.181,13.991,70.229,3.553"/>
					<g>
						<g>
							<path style="fill:#7A3DB7;" d="M96.028,209.628c19.346,0,19.346-30,0-30S76.682,209.628,96.028,209.628L96.028,209.628z"/>
						</g>
						<path style="fill:#F0C44D;" d="M96.357,205.728c-4.503-3.448-11.551-10.268-9.528-15.757c2.233-6.059,8.585-1.943,9.422,2.158
							c0.106-4.102,5.653-9.281,9.213-3.885C108.836,193.356,100.858,202.28,96.357,205.728"/>
					</g>
				</g>
				<g>
					<g>
						<g>
							<path style="fill:#EEBDA5;" d="M108.159,113.543c0.303,23.941,5.273,36.242-18.667,38.238
								c-23.94,1.994-25.934-20.615-23.276-39.234"/>
						</g>
						<g>
							<path style="fill:#EEBDA5;" d="M80.265,134.49c-1.285,8.668-0.984,17.204-0.934,25.933c0.056,9.67,15.056,9.675,15,0
								c-0.042-7.279-0.674-14.713,0.398-21.946c0.599-4.041-0.942-8.044-5.238-9.226C85.916,128.269,80.866,130.439,80.265,134.49
								L80.265,134.49z"/>
						</g>
					</g>
					<g>
						<g>
							<path style="fill:#FFFFFF;" d="M84.738,136.216c5.568,0.229,11.102,0,16.082,0C100.82,146.591,84.441,145.9,84.738,136.216"
								/>
						</g>
						<g>
							<g>
								<g>
									<path style="fill:#1E254F;" d="M87.645,133.08c2.257,0,2.257-3.5,0-3.5C85.388,129.58,85.388,133.08,87.645,133.08
										L87.645,133.08z"/>
								</g>
							</g>
							<g>
								<g>
									<path style="fill:#1E254F;" d="M97.645,133.08c2.257,0,2.257-3.5,0-3.5C95.388,129.58,95.388,133.08,97.645,133.08
										L97.645,133.08z"/>
								</g>
							</g>
						</g>
						<g>
							<g>
								<g>
									<path style="fill:#E43C7A;" d="M80.728,140.919c3.224,0,3.224-5,0-5C77.504,135.919,77.504,140.919,80.728,140.919
										L80.728,140.919z"/>
								</g>
							</g>
							<g>
								<g>
									<path style="fill:#E43C7A;" d="M104.999,140.919c3.224,0,3.224-5,0-5C101.775,135.919,101.775,140.919,104.999,140.919
										L104.999,140.919z"/>
								</g>
							</g>
						</g>
					</g>
					<g>
						<g>
							<g>
								<path style="fill:#536CD6;" d="M70.478,105.295c6.5,23.5,38.75,25.25,54,11.25c-5-2.5-8-9-11-13.25
									c-4.25-6.5-10.75-12-18-14.25c-10.5-3.5-24.75,0.5-25.75,13"/>
							</g>
							<g>
								<path style="fill:#536CD6;" d="M79.978,108.045c-3.5,11-7.25,22.5-11.75,33c-3.75-9.25-8.812-17.305-10-28
									c-1.5-13.5,10.75-24,18.75-12.25"/>
							</g>
							<g>
								<path style="fill:#536CD6;" d="M70.966,97.045c5-5.5,8-12.75,3.5-19.5c-4.25-6.5-12.75-7.5-19-3.5
									c-12,7.25-8.932,28.736,9,25.75"/>
							</g>
						</g>
						<path style="fill:none;stroke:#E43C7A;stroke-width:4;stroke-linecap:round;stroke-linejoin:round;stroke-miterlimit:10;" d="
							M60.353,101.295c6.625-2.217,12.5-6.5,16.875-12.75"/>
						<g>
							<path style="fill:#6173FF;" d="M78.103,101.67l0.488,1.695c0.164,0.566,0.4,1.099,0.586,1.645
								c0.174,0.549,0.469,1.058,0.702,1.582c0.223,0.531,0.545,1.011,0.825,1.507c0.263,0.507,0.643,0.94,0.965,1.404
								c0.313,0.473,0.747,0.849,1.101,1.282c0.376,0.417,0.822,0.766,1.224,1.15c0.439,0.346,0.895,0.672,1.346,0.998
								c0.486,0.281,0.953,0.584,1.447,0.845c0.509,0.238,0.989,0.521,1.516,0.722c0.529,0.195,1.03,0.443,1.577,0.596
								c0.542,0.161,1.065,0.365,1.623,0.486c0.554,0.126,1.091,0.295,1.654,0.397c0.56,0.107,1.11,0.245,1.677,0.327
								c1.125,0.194,2.265,0.332,3.407,0.458l-0.734,2.153c-0.431-0.291-0.865-0.582-1.289-0.886
								c-0.383-0.348-0.765-0.702-1.131-1.068c-0.323-0.4-0.656-0.796-0.964-1.208c-0.267-0.437-0.545-0.869-0.796-1.314
								c-0.212-0.464-0.432-0.927-0.629-1.397c-0.155-0.485-0.315-0.971-0.458-1.46l-0.284-1.505l-0.099-1.533
								c-0.043-0.676,0.469-1.258,1.145-1.302c0.467-0.03,0.889,0.205,1.12,0.576l0.074,0.12l0.586,0.946
								c0.23,0.294,0.447,0.599,0.685,0.889c0.496,0.567,1.034,1.102,1.62,1.596c0.593,0.488,1.221,0.941,1.881,1.358
								c0.665,0.409,1.351,0.795,2.056,1.157c1.415,0.713,2.913,1.303,4.447,1.804c1.538,0.49,3.103,0.938,4.695,1.304l-0.776,1.665
								l-0.891-0.852c-0.307-0.271-0.537-0.629-0.805-0.939c-0.275-0.31-0.471-0.674-0.688-1.02
								c-0.229-0.345-0.38-0.711-0.563-1.068c-0.34-0.718-0.62-1.423-0.916-2.101l-0.473-0.981l-0.547-0.92l-0.024-0.04
								c-0.168-0.283-0.075-0.649,0.208-0.818c0.174-0.104,0.384-0.106,0.555-0.028c0.677,0.313,1.35,0.643,2.043,0.954l2.163,0.819
								l2.181,0.844c0.71,0.337,1.406,0.696,2.098,1.039c-0.747-0.234-1.479-0.478-2.215-0.695l-2.255-0.547l-2.273-0.572
								c-0.753-0.244-1.509-0.517-2.271-0.78l0.74-0.886l0.712,0.972l0.603,1.022c0.37,0.684,0.709,1.364,1.073,1.987
								c0.189,0.303,0.355,0.629,0.574,0.898c0.214,0.275,0.39,0.579,0.64,0.82c0.245,0.245,0.439,0.53,0.72,0.743l0.794,0.674
								c0.401,0.339,0.452,0.94,0.113,1.342c-0.225,0.266-0.569,0.377-0.889,0.324c-0.83-0.143-1.659-0.301-2.486-0.477
								c-0.828-0.177-1.65-0.386-2.468-0.617c-1.635-0.469-3.255-1.037-4.83-1.759c-0.787-0.363-1.561-0.764-2.309-1.221
								c-0.748-0.46-1.472-0.967-2.166-1.526c-0.689-0.566-1.337-1.191-1.939-1.868c-0.293-0.346-0.564-0.713-0.845-1.071
								l-0.737-1.159l2.339-0.606c0.034,0.411,0.05,0.821,0.072,1.233l0.215,1.22l0.357,1.188c0.158,0.381,0.333,0.755,0.494,1.135
								c0.201,0.358,0.42,0.706,0.626,1.063c0.244,0.328,0.504,0.641,0.751,0.967l0.867,0.852l0.968,0.72l0.12,0.089
								c0.511,0.38,0.617,1.101,0.237,1.612c-0.261,0.352-0.686,0.511-1.091,0.452c-1.185-0.173-2.368-0.361-3.546-0.608
								c-0.59-0.108-1.175-0.276-1.762-0.411c-0.589-0.125-1.163-0.34-1.743-0.513c-0.582-0.165-1.144-0.419-1.713-0.627
								c-0.574-0.2-1.115-0.503-1.671-0.75c-0.556-0.253-1.074-0.595-1.61-0.889c-0.525-0.316-1.01-0.704-1.513-1.053
								c-0.469-0.399-0.938-0.798-1.385-1.217c-0.411-0.459-0.859-0.879-1.23-1.366c-0.354-0.499-0.764-0.957-1.05-1.498
								c-0.294-0.533-0.641-1.033-0.864-1.597c-0.237-0.555-0.526-1.085-0.686-1.666c-0.172-0.576-0.402-1.125-0.51-1.717
								c-0.122-0.584-0.288-1.159-0.357-1.743L78.103,101.67z"/>
						</g>
					</g>
					<g>
						<path style="fill:#EEBDA5;" d="M68.956,127.795c-12.469-1.869-12.096,10.848-0.25,8.978"/>
					</g>
				</g>
				<g>
					<g>
						<g>
							<path style="fill:#7A3DB7;" d="M94.156,158.658c-3.025,5.277-10.819,5.75-14.558,0.875c-1.934-2.521-6.28-0.036-4.317,2.523
								c5.921,7.72,18.129,7.958,23.192-0.875C100.079,158.379,95.758,155.862,94.156,158.658L94.156,158.658z"/>
						</g>
					</g>
					<g>
						<g>
							<path style="fill:#7A3DB7;" d="M47.466,266.454c8.826,6.604,20.168,7.057,30.775,7.092
								c13.947,0.046,27.745-1.553,41.401-4.34c3.158-0.646,1.818-5.464-1.329-4.822c-12.308,2.513-24.764,4.078-37.335,4.161
								c-10.601,0.069-22.113,0.231-30.988-6.409C47.405,260.202,44.917,264.546,47.466,266.454L47.466,266.454z"/>
						</g>
					</g>
				</g>
				<g>
					<g>
						<g>
							<path style="fill:#EEBDA5;" d="M66.371,165.082l-4.432-1.137c-14.365,2.723-35.792,79.275-33.49,101.39
								c3.602,2.494,5.71,0.61,9.892,1.743c6.912-12.086,11.909-34.326,14.336-41.339C57.41,212.068,81.587,178.449,66.371,165.082z
								"/>
						</g>
						<g>
							<path style="fill:#EEBDA5;" d="M39.251,265.535c-0.019,4.783,2.25,8.457,4.432,13.239c2.932,6.421-3.225,2.375-5.126-0.649
								c-0.419,6.877,0.208,15.74-1.935,16.733c-3.208,1.487-2.688-8.204-2.354-11.773c-0.485,1.752-2.408,12.405-4.613,12.079
								c-1.746-0.256-0.631-9.66-0.367-11.442c-1.065,2.577-3.324,10.105-5.425,8.997c-1.599-0.575,0.407-8.264,1.155-11.799
								c-0.485,1.75-3.241,8.594-5.493,7.221c-1.133-0.69,1.262-6.809,1.717-8.338c1.934-5.409,4.204-11.808,7.6-16.319"/>
						</g>
					</g>
					<g>
						<path style="fill:#7A3DB7;" d="M42.478,187.044c3-12.5,15-36.25,30.5-23.5c8.5,6.75,1,26.5-2.75,34.75
							C65.228,196.044,47.228,189.794,42.478,187.044"/>
					</g>
					<g>
						<g>
							<path style="fill:#5CB98B;" d="M25.966,263.954c4.594,2.555,9.345,4.011,14.637,3.466c3.175-0.327,3.207-5.33,0-5
								c-4.463,0.46-8.226-0.621-12.113-2.784C25.67,258.067,23.149,262.386,25.966,263.954L25.966,263.954z"/>
						</g>
					</g>
				</g>
			</g>
		</g>
		<g>
			<g>
				<g>
					<path style="fill:#454D9E;" d="M279.802,403.706c0.617-7.611,1.619-34.209,1.452-39.705c-0.518-12.5-0.4-22.271-0.918-34.775
						c-0.591-21.506,1.574-78.225,0.45-79.627l-5.813-1.502c-12.865-0.24-51.616-7.965-56.167-1.332
						c-5.482,14.701,6.032,79.174,6.032,79.174s-11.025,17.164-19.142,36.029c-2.639,5.971-7.077,27.793-8.349,32.623
						c4.673,3.063,10.321,2.32,15.449,4.434c7.477-9.191,28.427-58.969,33.855-69.717c0,0,0.992-24.488,3.483-54.623
						c0.612,1.137,8.93,57.82,8.93,57.82c-2.965,23.557,2.067,63.201,5.068,71.531C270.031,404.366,273.917,404.069,279.802,403.706
						z"/>
				</g>
				<g>
					<g>
						<path style="fill:#E43C7A;" d="M263.466,403.332c0,0-4.251,13.705,2.555,13.451c3.482-0.119,20.867-0.387,30.127-0.98
							c11.121-0.498,0.25-7.517-15.22-13.039c0,0-9.572,0.313-14.786,0.482"/>
					</g>
					<g>
						<path style="fill:#E43C7A;" d="M197.711,393.786c0,0-8.544,11.531-2.036,13.541c4.247,1.324,20.745,6.791,28.758,9.033
							c10.659,3.207,2.722-7.012-10.055-17.336c0,0-9.138-2.871-14.113-4.434"/>
					</g>
				</g>
			</g>
			<g>
				<g>
					<g>
						<path style="fill:#EEBDA5;" d="M182.024,112.827c1.511,9.881,0,35.856,3.491,50.055c3.9,15.865,26.87,18.313,48.68,15.783
							l11.383-26.979c-15.902,1.359-36.73,15.746-41.439-3.41c-2.405-9.781-8.508-25.18-10.551-37.594"/>
					</g>
					<g>
						<g>
							<path style="fill:#CADBFF;" d="M164.694,130.021c5.855,7.211,7.149,10.646,15.26,4.061
								c5.107-4.148,11.848-8.125,15.191-13.832c1.071-2.365-0.694-3.924,1.409-5.631c2.16-2.252,3.379-0.751,5.37-1.369
								c2.89-1.351,4.938-2.514,7.641-4.709c6.609-5.367,11.618-7.565,3.497-17.796l-0.549-0.676
								c-8.346-10.048-11.524-5.597-18.133-0.23c-2.704,2.196-4.263,3.96-6.177,6.512c-1.015,1.82,0.205,3.323-2.443,4.975
								c-2.102,1.708-3.266-0.339-5.8,0.224c-6.271,2.102-11.547,7.881-16.655,12.028c-8.111,6.587-5.014,8.56,0.84,15.769"/>
						</g>
						<g>
							<path style="fill:#CADBFF;" d="M209.578,88.377l6.987-5.674l4.538,5.589c0,0-5.497,4.465-6.986,5.673"/>
						</g>
						<g>
							<path style="fill:#536CD6;" d="M210.823,85.627l6.986-5.674l6.24,7.686c0,0-5.497,4.465-6.986,5.673"/>
						</g>
						<g style="opacity:0.5;">
							<g>
								<g>
									<path style="fill:#7AA5FF;" d="M200.759,88.344c3.908,4.814,7.816,9.627,11.725,14.439
										c0.915,1.127,2.497-0.475,1.591-1.591c-3.909-4.813-7.817-9.626-11.725-14.439
										C201.435,85.626,199.853,87.228,200.759,88.344L200.759,88.344z"/>
								</g>
							</g>
							<g>
								<g>
									<path style="fill:#7AA5FF;" d="M195.26,92.615c3.971,4.891,7.942,9.782,11.914,14.672c0.915,1.127,2.497-0.475,1.591-1.591
										c-3.972-4.891-7.943-9.781-11.914-14.672C195.936,89.897,194.354,91.499,195.26,92.615L195.26,92.615z"/>
								</g>
							</g>
							<g>
								<g>
									<path style="fill:#7AA5FF;" d="M190.385,97.928c3.529,4.348,7.06,8.694,10.59,13.041c0.915,1.127,2.497-0.475,1.591-1.591
										c-3.53-4.347-7.06-8.694-10.59-13.041C191.061,95.21,189.479,96.812,190.385,97.928L190.385,97.928z"/>
								</g>
							</g>
							<g>
								<g>
									<path style="fill:#7AA5FF;" d="M177.99,105.674c4.287,5.279,8.573,10.558,12.859,15.836
										c0.915,1.127,2.497-0.475,1.591-1.591c-4.287-5.279-8.573-10.558-12.859-15.836
										C178.666,102.956,177.084,104.558,177.99,105.674L177.99,105.674z"/>
								</g>
							</g>
							<g>
								<g>
									<path style="fill:#7AA5FF;" d="M171.885,110.244c4.412,5.435,8.825,10.869,13.238,16.303
										c0.915,1.127,2.497-0.475,1.591-1.591c-4.413-5.434-8.826-10.868-13.238-16.303
										C172.561,107.526,170.979,109.128,171.885,110.244L171.885,110.244z"/>
								</g>
							</g>
							<g>
								<g>
									<path style="fill:#7AA5FF;" d="M166.208,114.951c4.381,5.396,8.762,10.791,13.144,16.186
										c0.915,1.127,2.497-0.475,1.591-1.591c-4.382-5.395-8.763-10.79-13.143-16.186
										C166.884,112.233,165.302,113.836,166.208,114.951L166.208,114.951z"/>
								</g>
							</g>
							<g>
								<g>
									<path style="fill:#7AA5FF;" d="M161.668,119.797c4.002,4.93,8.006,9.859,12.009,14.789
										c0.915,1.127,2.497-0.475,1.591-1.591c-4.002-4.93-8.006-9.859-12.009-14.789
										C162.344,117.079,160.763,118.681,161.668,119.797L161.668,119.797z"/>
								</g>
							</g>
						</g>
					</g>
					<g>
						<path style="fill:#EEBDA5;" d="M190.438,93.749c5.841,11.925-9.712,23.307-17.03,11.415
							c-5.069-7.961,10.147-19.107,16.459-11.516"/>
						<g>
							<path style="fill:#EEBDA5;" d="M194.101,94.184c-2.429,1.75-5.148,3.261-8.095,3.914c-1.633,0.356-3.317-0.291-3.864-1.998
								c-0.473-1.485,0.355-3.501,1.993-3.862c2.49-0.548,4.613-1.765,6.667-3.244c1.362-0.978,3.388-0.403,4.243,0.95
								C195.981,91.42,195.459,93.21,194.101,94.184L194.101,94.184z"/>
						</g>
					</g>
				</g>
				<g>
					<g>
						<g>
							<path style="fill:#EEBDA5;" d="M312.684,154.413c-2.736,9.616-9.916,37.27-9.916,37.27
								c-3.607,0.139-12.397-45.271-38.57-39.325l13.984,41.59c18.807,24.848,34.205,26.511,39.701,4.617
								c2.168-10.776,4.805-29.905,4.201-43.138"/>
						</g>
						<g>
							<path style="fill:#EEBDA5;" d="M311.129,161.591c-0.676-4.732-3.457-8.037-6.31-12.451c-3.834-5.928,2.846-2.82,5.164-0.104
								c-0.582-6.865-2.492-15.543-0.518-16.838c2.957-1.938,3.854,7.726,4.041,11.307c0.225-1.805,0.58-12.623,2.807-12.623
								c1.766,0,2.029,9.467,2.029,11.27c0.676-2.705,1.82-10.482,4.059-9.691c1.664,0.338,0.797,8.236,0.572,11.842
								c0.225-1.803,1.957-8.973,4.385-7.943c1.221,0.518-0.26,6.92-0.486,8.498c-1.127,5.635-2.443,12.295-5.146,17.254"/>
						</g>
					</g>
					<g>
						
							<rect x="303.306" y="123.513" transform="matrix(0.8475 -0.5308 0.5308 0.8475 -20.7813 181.4257)" style="fill:#536CD6;" width="4.074" height="6.731"/>
						<path style="fill:#7AA5FF;" d="M316.934,131.542c1.319,2.105,0.682,4.883-1.426,6.201l-4.83,3.025
							c-2.107,1.318-4.885,0.68-6.203-1.426l-3.133-5.004c-1.318-2.107-0.68-4.884,1.426-6.203l4.832-3.025
							c2.105-1.319,4.883-0.681,6.201,1.426L316.934,131.542z"/>
						
							<rect x="307.849" y="128.846" transform="matrix(0.8476 -0.5307 0.5307 0.8476 -28.3693 189.8268)" style="fill:#FFA602;" width="16.799" height="30.899"/>
						<g>
							<path style="fill:#E43C7A;" d="M301.977,136.989c4.617-2.892,9.236-5.783,13.854-8.675c1.637-1.023,0.131-3.62-1.514-2.59
								c-4.618,2.891-9.236,5.783-13.854,8.675C298.828,135.422,300.333,138.019,301.977,136.989L301.977,136.989z"/>
						</g>
						<g>
							<path style="fill:#E43C7A;" d="M317.936,163.021c4.781-2.993,9.563-5.987,14.344-8.98c1.635-1.023,0.131-3.62-1.514-2.59
								c-4.781,2.993-9.563,5.986-14.344,8.98C314.788,161.455,316.292,164.051,317.936,163.021L317.936,163.021z"/>
						</g>
					</g>
				</g>
				<g>
					<g>
						<g>
							<path style="fill:#7AA5FF;" d="M239.978,149.294c-10.387-6.554-32.25,0.264-32.258,1.928c-0.03,6.488-1.935,26.3-0.41,30.104
								c0.619,1.543,16.853,0.969,20.668,0.969"/>
						</g>
						<g>
							<path style="fill:#7AA5FF;" d="M261.728,149.044c8.5-1.5,17.75,0,24.5,5.5c3.75,2.75,9.84,12.812,10.75,17.5
								c0.485,2.5-15.913,13.496-21.25,15.25c-4.214,1.385-6-7-8.75-12.5"/>
						</g>
					</g>
					<g>
						<path style="fill:#536CD6;" d="M214.86,254.34c36.072,14.843,68.152,0.962,68.28,1.594
							c-1.162-22.028-3.771-49.112-3.875-79.043c-0.09-25.631-7.752-28.717-25.346-28.717c-21.321,0.27-32.107,1.18-33.475,26.908
							c-2.097,39.429-5.281,66.543-5.6,79.959"/>
					</g>
					<g>
						<g style="opacity:0.5;">
							<path style="fill:#454D9E;" d="M267.999,177.001c-8.25-0.5-16,0-22.5,5c-7.25,5.5-8.25,10.25-8.5,18.5
								c0,3.5-6.888,9.004-4.25,11.75c4.604,4.794,6.575-1.217,7.75-4c1.5-3.552,1.5-2,6.5-2.25c4.25-0.25,8.231-1.979,11.25-5.25
								C264.478,194.001,267.065,187.447,267.999,177.001"/>
						</g>
						<g>
							<g>
								<g>
									<path style="fill:#7AA5FF;" d="M241.728,201.169c-0.171-12.463,10.978-20.282,22.75-19.375
										c-0.321-0.422-0.643-0.844-0.964-1.266c-3.692,9.572-10.571,21.889-22.536,20.516c-1.28-0.147-1.266,1.855,0,2
										c12.922,1.483,20.473-11.637,24.464-21.984c0.251-0.65-0.375-1.22-0.964-1.266c-12.866-0.991-24.935,7.913-24.75,21.375
										C239.746,202.458,241.746,202.46,241.728,201.169L241.728,201.169z"/>
								</g>
							</g>
							<g>
								<g>
									<path style="fill:#7AA5FF;" d="M262.098,181.181c-10.445,7.776-22.963,15.421-26.71,28.723
										c-0.35,1.244,1.58,1.771,1.929,0.531c3.588-12.743,15.797-20.088,25.791-27.527
										C264.129,182.147,263.134,180.41,262.098,181.181L262.098,181.181z"/>
								</g>
							</g>
						</g>
					</g>
				</g>
				<g>
					<g>
						<path style="fill:#EEBDA5;" d="M227.835,104.827c-1.994,15.959-1.98,42.49,21.281,41.895
							c27.452-0.703,21.945-22.611,21.945-37.904"/>
						<g>
							<path style="fill:#EEBDA5;" d="M242.947,130.758c0,7.758,0,15.517,0,23.275c0,9.673,15,9.673,15,0c0-7.758,0-15.517,0-23.275
								C257.947,121.086,242.947,121.086,242.947,130.758L242.947,130.758z"/>
						</g>
						<path style="fill:#EEBDA5;" d="M229.218,124.448c-9.352-1.248-8.979,8.852,0.373,7.605"/>
					</g>
					<g>
						<g>
							<path style="fill:#FFFFFF;" d="M244.964,129.108c5.567,0.229,11.102,0,16.081,0
								C261.045,139.483,244.667,138.792,244.964,129.108"/>
						</g>
						<g>
							<g>
								<g>
									<path style="fill:#1E254F;" d="M248.478,125.129c2.257,0,2.257-3.5,0-3.5C246.221,121.629,246.221,125.129,248.478,125.129
										L248.478,125.129z"/>
								</g>
							</g>
							<g>
								<g>
									<path style="fill:#1E254F;" d="M258.478,125.129c2.257,0,2.257-3.5,0-3.5C256.221,121.629,256.221,125.129,258.478,125.129
										L258.478,125.129z"/>
								</g>
							</g>
						</g>
						<g>
							<g>
								<g>
									<path style="fill:#E43C7A;" d="M239.728,133.544c3.224,0,3.224-5,0-5C236.504,128.544,236.504,133.544,239.728,133.544
										L239.728,133.544z"/>
								</g>
							</g>
							<g>
								<g>
									<path style="fill:#E43C7A;" d="M265.999,133.544c3.225,0,3.225-5,0-5C262.775,128.544,262.775,133.544,265.999,133.544
										L265.999,133.544z"/>
								</g>
							</g>
						</g>
					</g>
					<g>
						<g>
							<g>
								<path style="fill:#1E254F;" d="M234.728,99.866c2.75-6.983,5.25-10.085,12.25-10.622c7.25-0.537,11,1.343,17.25-3.759
									c4.25-3.224,11.25-8.864,15.5-1.613c2.75,4.565,0.5,11.549-4.5,12.891c10-0.806,10.5,14.771-1,12.622
									c5.13,3.535,4.48,10.256-2.25,11.817c-5.25,1.218-8-2.954-13.25-5.372c-8-4.027-22.25,1.611-26-10.742"/>
							</g>
							<g>
								<path style="fill:#1E254F;" d="M238.371,96.545c-7.515-9-18.602-2.053-15.608,11.75c1.334,6.147,3.023,16.192,6.648,21.5
									c4.047-7.5,5.781-16.75,11.851-23.25"/>
							</g>
						</g>
						<g>
							<path style="fill:#2F3D79;" d="M241.978,103.92c1.517-0.183,3.06-0.286,4.61-0.222c0.775,0.039,1.556,0.095,2.334,0.22
								c0.775,0.135,1.555,0.292,2.316,0.535c0.769,0.22,1.513,0.527,2.237,0.873c0.717,0.358,1.424,0.743,2.087,1.184
								c0.679,0.423,1.306,0.91,1.92,1.405l0.88,0.693c0.293,0.209,0.554,0.395,0.85,0.583c1.184,0.742,2.457,1.315,3.737,1.539
								c0.636,0.112,1.273,0.128,1.842,0.019c0.57-0.105,1.053-0.344,1.381-0.648c0.316-0.312,0.502-0.688,0.523-1.177
								c0.018-0.488-0.13-1.058-0.399-1.617c-0.263-0.563-0.65-1.114-1.095-1.633c-0.424-0.535-0.938-1.024-1.458-1.508l-0.021-0.02
								c-0.463-0.431-0.489-1.157-0.058-1.62c0.273-0.293,0.672-0.41,1.039-0.348c0.317,0.056,0.637,0.125,0.953,0.134
								c0.316,0.019,0.635,0.02,0.94-0.032c0.31-0.032,0.611-0.114,0.903-0.214c0.295-0.094,0.582-0.225,0.848-0.391
								c0.272-0.156,0.526-0.351,0.756-0.572c0.238-0.214,0.446-0.464,0.634-0.729c0.367-0.534,0.663-1.14,0.801-1.786
								c0.064-0.322,0.112-0.652,0.102-0.98c0.005-0.33-0.048-0.656-0.134-0.971c-0.079-0.32-0.215-0.62-0.377-0.912
								c-0.182-0.278-0.391-0.547-0.649-0.776c-0.256-0.231-0.549-0.43-0.863-0.604c-0.315-0.177-0.659-0.304-1.012-0.426
								c-0.36-0.092-0.725-0.194-1.103-0.248c-0.376-0.082-0.76-0.083-1.147-0.125c0.382-0.044,0.768-0.13,1.161-0.134
								c0.394-0.037,0.788-0.013,1.189,0.02c0.792,0.097,1.609,0.324,2.324,0.798c0.359,0.232,0.681,0.527,0.974,0.856
								c0.272,0.343,0.519,0.717,0.689,1.128c0.169,0.409,0.291,0.842,0.343,1.28c0.065,0.439,0.059,0.882,0.025,1.322
								c-0.159,1.762-1.127,3.425-2.599,4.507c-0.364,0.273-0.767,0.504-1.189,0.685c-0.419,0.19-0.866,0.321-1.316,0.401
								c-0.449,0.097-0.909,0.124-1.359,0.121c-0.455,0.006-0.897-0.057-1.34-0.117l0.961-1.987c1.24,1.031,2.454,2.196,3.259,3.813
								c0.396,0.801,0.699,1.729,0.681,2.767c-0.006,1.033-0.475,2.153-1.253,2.898c-0.788,0.737-1.761,1.117-2.684,1.275
								c-0.932,0.158-1.839,0.106-2.696-0.055c-1.722-0.322-3.253-1.08-4.591-2.027c-0.335-0.235-0.683-0.508-0.995-0.758
								l-0.877-0.763c-0.544-0.49-1.1-0.964-1.67-1.409c-1.136-0.903-2.373-1.643-3.697-2.234c-0.658-0.308-1.351-0.541-2.055-0.759
								c-0.705-0.214-1.426-0.4-2.161-0.553c-0.735-0.141-1.479-0.28-2.229-0.392C243.499,104.127,242.738,104.01,241.978,103.92z"
								/>
						</g>
					</g>
				</g>
				<g>
					<g>
						<g>
							<path style="fill:#7AA5FF;" d="M238.194,155.681c4.337,10.147,20.15,9.34,24.693-0.25c1.372-2.897-2.938-5.436-4.318-2.523
								c-3.043,6.425-13.153,7.045-16.057,0.25C241.248,150.201,236.942,152.751,238.194,155.681L238.194,155.681z"/>
						</g>
					</g>
					<g>
						<g>
							<path style="fill:#7AA5FF;" d="M213.841,254.204c20.698,10.704,49.264,11.25,70.398,1.625
								c2.931-1.336,0.388-5.643-2.523-4.318c-19.399,8.836-46.379,8.188-65.351-1.624
								C213.506,248.407,210.977,252.721,213.841,254.204L213.841,254.204z"/>
						</g>
					</g>
				</g>
			</g>
		</g>
		<g>
			<g>
				<g>
					<g>
						<g>
							<path style="fill:#6173FF;" d="M453.942,392.889c0,0,9.41,10.834,3.078,13.342c-3.234,1.292-19.256,8.051-27.971,11.235
								c-10.379,4.023-3.258-6.78,8.68-18.063c0,0,8.889-3.57,13.729-5.514"/>
						</g>
						<g>
							<g>
								<g>
									<path style="fill:#2F3D79;" d="M432.594,402.928c1.195,0.967,2.305,2.033,3.5,3c0.529,0.428,1.248,0.52,1.768,0
										c0.443-0.443,0.53-1.339,0-1.767c-1.195-0.967-2.305-2.033-3.5-3c-0.529-0.428-1.248-0.52-1.768,0
										C432.151,401.604,432.064,402.5,432.594,402.928L432.594,402.928z"/>
								</g>
							</g>
							<g>
								<g>
									<path style="fill:#2F3D79;" d="M429.594,406.678c1,1,2,2,3,3c1.141,1.141,2.908-0.627,1.768-1.767c-1-1-2-2-3-3
										C430.221,403.77,428.454,405.538,429.594,406.678L429.594,406.678z"/>
								</g>
							</g>
						</g>
					</g>
					<g>
						<g>
							<path style="fill:#6173FF;" d="M388.471,404.576c0,0,3.396,13.941-3.381,13.269c-3.467-0.334-20.805-1.674-30.008-2.838
								c-11.07-1.183,0.213-7.519,15.994-12.075c0,0,9.535,0.902,14.728,1.393"/>
						</g>
						<g>
							<g>
								<g>
									<path style="fill:#2F3D79;" d="M364.567,404.13c0.701,1.368,1.289,2.79,1.991,4.157c0.736,1.435,2.894,0.17,2.158-1.262
										c-0.702-1.367-1.289-2.789-1.991-4.157C365.989,401.434,363.833,402.699,364.567,404.13L364.567,404.13z"/>
								</g>
							</g>
							<g>
								<g>
									<path style="fill:#2F3D79;" d="M360.182,406.051c0.512,1.318,1.022,2.637,1.533,3.955c0.246,0.635,0.83,1.068,1.537,0.873
										c0.607-0.167,1.12-0.901,0.873-1.537c-0.511-1.318-1.021-2.637-1.533-3.955c-0.246-0.635-0.83-1.068-1.537-0.873
										C360.449,404.681,359.935,405.416,360.182,406.051L360.182,406.051z"/>
								</g>
							</g>
						</g>
					</g>
				</g>
				<g>
					<path style="fill:#6727A8;" d="M371.984,403.504c-0.103-7.637,1.158-25.543,1.719-31.014
						c1.415-12.443,2.12-28.844,3.538-41.287c2.125-21.42-1.298-75.135-0.032-76.459l7.109-1.383
						c13.341,0.598,52.939-5.92,57.188,0.99c4.644,15.025-9.935,80.963-9.935,80.963s10.077,11.365,17.09,34.701
						c1.882,6.267,3.34,19.504,4.317,24.406c-5.057,2.75-6.102,4.932-11.565,6.707c-7.096-9.654-27.809-51.799-32.668-62.877
						c0,0,1.262-30.51,0.801-60.734c-0.773,20.724-10.746,59.262-10.746,59.262c3.629,26.525-8.014,59.885-11.711,68
						C380.961,404.729,378.052,404.249,371.984,403.504z"/>
				</g>
				<g>
					<g>
						<g>
							<path style="fill:#A251F4;" d="M437.478,401.044c6.366,0.164,13.427-1.854,17.767-6.732c2.136-2.399-1.388-5.948-3.535-3.535
								c-3.511,3.943-9.102,5.399-14.232,5.268C434.251,395.961,434.26,400.961,437.478,401.044L437.478,401.044z"/>
						</g>
					</g>
					<g>
						<g>
							<path style="fill:#A251F4;" d="M369.457,404.071c6.253,2.966,13.247,4.23,19.987,2.221c3.082-0.92,1.768-5.746-1.33-4.822
								c-5.415,1.616-11.087,0.678-16.134-1.717C369.083,398.378,366.544,402.689,369.457,404.071L369.457,404.071z"/>
						</g>
					</g>
				</g>
			</g>
			<g>
				<g>
					<g>
						<g>
							
								<rect x="434.33" y="298.288" transform="matrix(0.8748 -0.4844 0.4844 0.8748 -90.8816 249.4009)" style="fill:#C79269;" width="5.7" height="4.559"/>
						</g>
						<g>
							<path style="fill:#7AA5FF;" d="M436.497,297.392c3.111-1.723,6.303-3.291,9.33-5.169c-0.518-4.311-1.364-5.841,4.926-9.726
								c4.217-2.536,8.611-4.77,12.914-7.153c2.393-1.325,9.637-5.739,11.971-6.032c3.143-0.541,5.139,4.548,6.32,6.893l-0.375-0.68
								c1.359,2.244,4.615,6.637,2.49,9.015c-1.486,1.822-9.068,5.623-11.463,6.949c-4.303,2.384-8.526,4.924-12.913,7.154
								c-6.63,3.272-7.477,1.744-10.858-0.98c-3.196,1.569-6.218,3.444-9.329,5.169"/>
						</g>
						<g>
							
								<rect x="456.033" y="277.535" transform="matrix(0.8748 -0.4846 0.4846 0.8748 -79.5178 261.4849)" style="fill:#7AA5FF;" width="20.066" height="14.059"/>
						</g>
					</g>
					<g>
						<g>
							<path style="fill:#EEBDA5;" d="M456.522,272.91c-9.768-24.324-17.726-49.286-27.062-73.471l1.299-31.647
								c19.104-2.381,18.004,37.505,27.67,61.534c3.031,7.761,6.633,26.866,8.809,38.256"/>
						</g>
						<g>
							<path style="fill:#EEBDA5;" d="M455.635,267.697c0.892,4.695-0.67,8.723-1.939,13.824c-1.709,6.852,3.605,1.746,4.921-1.576
								c1.671,6.688,2.673,15.516,4.961,16.1c3.425,0.877,1.143-8.558,0.161-12.004c0.797,1.635,4.637,11.753,6.744,11.032
								c1.669-0.571-1.146-9.613-1.73-11.317c1.518,2.337,5.113,9.327,6.977,7.853c1.467-0.858-1.912-8.049-3.291-11.388
								c0.795,1.631,4.757,7.857,6.721,6.095c0.988-0.885-2.485-6.464-3.211-7.883c-2.891-4.965-6.291-10.84-10.457-14.658"/>
						</g>
					</g>
				</g>
				<g>
					<g>
						<g>
							<path style="fill:#EEBDA5;" d="M347.731,122.608c6.982,17.264,10.58,42.698,11.469,45.209c8.135-0.969,36.59-3,46.565-4.33
								l-16.625,24.604c-9.311,0.666-18.619,0.334-27.93,0.334c-13.104-1.227-16.408-4.576-19.617-16.957
								c-4.211-16.246-5.313-29.934-5.313-48.441C342.25,123.434,342.299,125.416,347.731,122.608z"/>
						</g>
						<g>
							<path style="fill:#EEBDA5;" d="M347.612,125.374c0.676-4.732,3.457-8.037,6.31-12.451c3.834-5.928-2.846-2.82-5.164-0.104
								c0.582-6.865,2.492-15.543,0.518-16.838c-2.957-1.938-3.854,7.726-4.041,11.307c-0.225-1.805-0.58-12.623-2.807-12.623
								c-1.766,0-2.029,9.467-2.029,11.27c-0.676-2.705-1.82-10.482-4.059-9.691c-1.664,0.338-0.797,8.236-0.572,11.842
								c-0.225-1.803-1.957-8.973-4.385-7.943c-1.221,0.518,0.26,6.92,0.486,8.498c1.127,5.635,2.443,12.295,5.147,17.254"/>
						</g>
					</g>
					<g>
						<g>
							
								<rect x="368.528" y="78.756" transform="matrix(0.8028 -0.5963 0.5963 0.8028 24.7562 237.8798)" style="fill:#399172;" width="6.9" height="5.52"/>
						</g>
						<g>
							<path style="fill:#7DC7A2;" d="M373.308,85.215c-3.456,2.569-7.034,4.963-10.364,7.701c1.312,5.09,2.575,6.789-4.348,12.459
								c-4.653,3.722-9.564,7.107-14.346,10.658c-2.658,1.977-10.641,8.434-13.395,9.162c-3.682,1.154-6.896-4.633-8.69-7.254
								l0.56,0.754c-1.991-2.475-6.604-7.223-4.436-10.415c1.49-2.426,9.979-8.206,12.637-10.181
								c4.78-3.551,9.439-7.277,14.345-10.658c7.429-4.991,8.69-3.293,13.185-0.566c3.583-2.398,6.907-5.132,10.364-7.701"/>
						</g>
						
							<rect x="327.745" y="96.847" transform="matrix(0.8027 -0.5964 0.5964 0.8027 4.2349 223.5142)" style="fill:#399172;" width="24.29" height="17.02"/>
					</g>
				</g>
				<g>
					<g>
						<g>
							<path style="fill:#AB2D5C;" d="M421.478,164.544c7.75-0.5,16-0.75,22,5c5.25,4.75,5.25,10.75,7.25,17
								c-7.25,3.75-16,4.5-23.75,5.25"/>
						</g>
						<g>
							<path style="fill:#AB2D5C;" d="M405.728,169.562c-1.25-6.254-14.252-7.179-20-7.179c-9.186,0-16.394-0.004-16.219,1.743
								c0.358,3.576-1.311,26.804,1.384,27.363c6.41,1.333,13.631,0.956,20.335,0.241"/>
						</g>
					</g>
					<g>
						<path style="fill:#E43C7A;" d="M376.409,257.746c34.35,9.059,65.998-1.559,66.059-0.922
							c-0.16-6.949-7.762-27.459-10.949-36.492c-2.104-9.313,9.686-10.586,5.543-27.98c-2.98-11.298-6.152-19.828-10.908-26.882
							c-3.425-3.724-11.588-3.955-21.375-3.262c-8.154,0.692-10.629-0.902-15.252,6.278c-4.623,7.178-11.398,17.946-12.156,28.863
							c-0.729,8.918,6.715,13.345,7.998,20.877C386.651,225.761,377.774,236.4,376.409,257.746"/>
					</g>
					<g>
						<g style="opacity:0.7;">
							<path style="fill:#AB2D5C;" d="M410.232,194.825c0,6.296-3.125,15.739,7.25,15.739c13.375,0,9-8.918,9-15.739"/>
						</g>
						<g>
							<g>
								<path style="fill:#AB2D5C;" d="M410.978,196.794c5,0,10,0,15,0c2.418,0,2.418-3.75,0-3.75c-5,0-10,0-15,0
									C408.56,193.044,408.56,196.794,410.978,196.794L410.978,196.794z"/>
							</g>
						</g>
					</g>
				</g>
				<g>
					<g>
						<path style="fill:#454D9E;" d="M386.728,130.044c1.25,9.827,0.75,16.75-0.75,25.75c-0.821,4.932-1.75,4.75,3.25,4.75
							c5.5,0,12.75,0.5,18.25,0.5c7.25,0,17.167-0.25,26.625-0.781c9.505-0.534,2.375-19.469,2.375-27.469c0-5.5-0.25-10.75-2.25-16
							"/>
					</g>
					<g>
						<g>
							<path style="fill:#EEBDA5;" d="M429.364,122.913c1.109,22.382,2.674,36.912-18.605,36.912s-22.752-11.867-18.619-37.24"/>
							<g>
								<path style="fill:#EEBDA5;" d="M403.258,141.534c-0.044,8.429-0.616,16.843-0.664,25.271c-0.055,9.675,14.945,9.67,15,0
									c0.048-8.429,0.62-16.842,0.664-25.271C418.309,131.858,403.309,131.863,403.258,141.534L403.258,141.534z"/>
							</g>
						</g>
						<g>
							<g>
								<path style="fill:#FFFFFF;" d="M400.292,144.172c5.568,0.229,11.102,0,16.082,0
									C416.374,154.547,399.995,153.856,400.292,144.172"/>
							</g>
							<g>
								<g>
									<g>
										<path style="fill:#1E254F;" d="M403.366,141.622c2.257,0,2.257-3.5,0-3.5
											C401.109,138.122,401.109,141.622,403.366,141.622L403.366,141.622z"/>
									</g>
								</g>
								<g>
									<g>
										<path style="fill:#1E254F;" d="M413.366,141.622c2.257,0,2.257-3.5,0-3.5
											C411.109,138.122,411.109,141.622,413.366,141.622L413.366,141.622z"/>
									</g>
								</g>
							</g>
							<g>
								<g>
									<g>
										<path style="fill:#E43C7A;" d="M395.999,147.919c3.225,0,3.225-5,0-5C392.775,142.919,392.775,147.919,395.999,147.919
											L395.999,147.919z"/>
									</g>
								</g>
								<g>
									<g>
										<path style="fill:#E43C7A;" d="M420.999,147.919c3.225,0,3.225-5,0-5C417.775,142.919,417.775,147.919,420.999,147.919
											L420.999,147.919z"/>
									</g>
								</g>
							</g>
						</g>
					</g>
					<g>
						<g>
							<g>
								<g>
									<path style="fill:#454D9E;" d="M425.478,109.545c2.75,18.75-17.5,24-31.75,23.5c1.5-1.5,3.5-3,4.75-5
										c-5,2.5-11.75,4.25-17,2c2.5-3.5,4.116-4.075,6.25-8.5c2.569-5.328,3.41-12.163,7.25-17.25c6.667-8.833,28-8.25,29.25,2.5"
										/>
								</g>
								<g>
									<path style="fill:#454D9E;" d="M420.978,123.545c5,10.75,3.5,25.25,1.75,36.5c5.5,0.25,12.25,0.5,17.75-0.25
										c4.5-0.75,4.25-3.25,4.75-7.75c0.75-7,1.25-14,1-21c-0.25-9.25-1-22.25-9.5-27.5c-5.75-3.75-15-1.75-18.5,4"/>
								</g>
							</g>
							<g style="opacity:0.7;">
								<path style="fill:#536CD6;" d="M420.103,114.92c-0.166,0.887-0.441,1.779-0.826,2.615c-0.375,0.845-0.846,1.65-1.382,2.41
									c-1.06,1.534-2.397,2.864-3.863,4.035c-1.489,1.14-3.124,2.118-4.898,2.823c-1.774,0.688-3.677,1.159-5.656,1.192
									c-0.655,0.011-1.195-0.511-1.206-1.167c-0.003-0.153,0.023-0.299,0.073-0.434l0.018-0.046
									c0.26-0.69,0.507-1.386,0.728-2.097c0.219-0.713,0.428-1.439,0.633-2.177c0.397-1.482,0.896-3.001,1.496-4.484l1.842,1.446
									c-1.007,0.7-1.964,1.511-2.97,2.309c-1,0.805-2.016,1.64-3.119,2.411c-0.553,0.384-1.141,0.732-1.741,1.062l-0.931,0.455
									l-0.97,0.383c-0.336,0.1-0.666,0.21-1.004,0.297c-0.345,0.063-0.686,0.138-1.029,0.187c-0.348,0.03-0.692,0.069-1.037,0.087
									l-1.033-0.009l-0.044,0c-0.36-0.003-0.649-0.298-0.646-0.658c0.001-0.115,0.033-0.225,0.086-0.318
									c0.608-1.06,1.17-2.179,1.725-3.319c0.29-0.565,0.587-1.131,0.907-1.685c0.324-0.553,0.7-1.076,1.097-1.569
									c-0.279,0.572-0.511,1.154-0.712,1.747c-0.205,0.592-0.387,1.191-0.564,1.797c-0.377,1.201-0.729,2.434-1.245,3.632
									l-0.604-0.977l0.897-0.103l0.875-0.184c0.574-0.16,1.13-0.36,1.674-0.592l0.796-0.4l0.77-0.465
									c0.503-0.334,0.989-0.699,1.474-1.078c0.971-0.759,1.905-1.612,2.867-2.476c0.955-0.872,1.974-1.72,3.063-2.52
									c0.542-0.397,1.303-0.28,1.7,0.261c0.25,0.341,0.296,0.77,0.16,1.14l-0.018,0.045c-0.259,0.689-0.506,1.385-0.727,2.095
									l-0.652,2.171c-0.22,0.739-0.447,1.484-0.692,2.235c-0.248,0.752-0.526,1.498-0.821,2.241l-1.115-1.646
									c0.815,0.004,1.645-0.047,2.47-0.189c0.826-0.137,1.647-0.346,2.454-0.615c0.805-0.274,1.609-0.574,2.386-0.946
									c0.778-0.367,1.535-0.789,2.267-1.254c1.48-0.907,2.838-2.022,4.061-3.283C418.315,118.03,419.379,116.588,420.103,114.92z"
									/>
							</g>
						</g>
						<g>
							<g>
								<g>
									<path style="fill:#FFA602;" d="M427.853,128.294c2.083,0,4.167,0,6.25,0c1.612,0,1.612-2.5,0-2.5c-2.083,0-4.167,0-6.25,0
										C426.241,125.795,426.241,128.294,427.853,128.294L427.853,128.294z"/>
								</g>
							</g>
							<g>
								<g>
									<path style="fill:#FFA602;" d="M427.853,132.294c2.083,0,4.167,0,6.25,0c1.612,0,1.612-2.5,0-2.5c-2.083,0-4.167,0-6.25,0
										C426.241,129.794,426.241,132.294,427.853,132.294L427.853,132.294z"/>
								</g>
							</g>
						</g>
						<g>
							<path style="fill:#EEBDA5;" d="M428.152,138.147c11.604-3.024,10.331,10.446-0.184,6.723"/>
						</g>
					</g>
				</g>
				<g>
					<g>
						<g>
							<path style="fill:#AB2D5C;" d="M397.442,168.959c2.864,10.714,22.288,11.33,24.697,0c0.668-3.145-4.151-4.482-4.822-1.329
								c-1.355,6.378-13.432,6.067-15.053,0C401.432,164.518,396.609,165.84,397.442,168.959L397.442,168.959z"/>
						</g>
					</g>
					<g>
						<g>
							<path style="fill:#AB2D5C;" d="M374.216,257.454c3.683,2.698,8.732,3.487,13.123,4.177
								c7.117,1.116,14.358,1.411,21.552,1.416c7.277,0.005,14.55-0.468,21.758-1.463c4.677-0.645,10.074-1.448,14.091-4.13
								c2.667-1.781,0.166-6.114-2.523-4.318c-3.407,2.275-7.974,2.855-11.929,3.483c-6.667,1.059-13.483,1.34-20.223,1.421
								c-6.711,0.081-13.441-0.227-20.105-1.048c-4.331-0.533-9.6-1.203-13.221-3.856
								C374.134,251.227,371.644,255.569,374.216,257.454L374.216,257.454z"/>
						</g>
					</g>
				</g>
			</g>
		</g>
	</g>
	<g>
		<g>
			<g>
				<path style="fill:#BCCEFB;" d="M48.437,459.46c133.044,0,266.089,0,399.133,0c1.331,0,2.661,0,3.992,0c12.897,0,12.897-20,0-20
					c-133.045,0-266.089,0-399.134,0c-1.33,0-2.661,0-3.991,0C35.54,439.46,35.54,459.46,48.437,459.46L48.437,459.46z"/>
			</g>
		</g>
		<g>
			<g>
				<path style="fill:#2F3D79;" d="M86.937,441.523c0,4.771-3.866,8.635-8.633,8.635l0,0c-4.768,0-8.633-3.863-8.633-8.635v-24.813
					c0-4.77,3.865-8.633,8.633-8.633l0,0c4.767,0,8.633,3.863,8.633,8.633V441.523z"/>
				<path style="fill:#2F3D79;" d="M174.329,441.523c0,4.771-3.866,8.635-8.631,8.635l0,0c-4.768,0-8.634-3.863-8.634-8.635v-24.813
					c0-4.77,3.866-8.633,8.634-8.633l0,0c4.765,0,8.631,3.863,8.631,8.633V441.523z"/>
			</g>
			<g>
				<path style="fill:#7AA5FF;" d="M72.017,322.285v-22.617c0-13.639,11.056-24.697,24.696-24.697h50.571
					c13.643,0,24.7,11.059,24.7,24.697v22.617"/>
				<path style="fill:#2F3D79;stroke:#6173FF;stroke-width:4;stroke-miterlimit:10;" d="M94.755,322.845v-5.398
					c0-12.512,10.145-22.656,22.658-22.656h9.174c12.515,0,22.657,10.145,22.657,22.656v5.398"/>
				<g>
					<path style="fill:none;stroke:#6173FF;stroke-width:3;stroke-miterlimit:10;" d="M122,274.763c0,3.332,0,6.666,0,10"/>
					<path style="fill:none;stroke:#6173FF;stroke-width:3;stroke-miterlimit:10;" d="M98,274.763c0,3.332,0,6.666,0,10"/>
					<path style="fill:none;stroke:#6173FF;stroke-width:3;stroke-miterlimit:10;" d="M146,274.763c0,3.332,0,6.666,0,10"/>
				</g>
			</g>
			<g>
				<polygon style="fill:#7AA5FF;" points="162.86,441.529 81.142,441.529 71.829,323.921 172.171,323.921 				"/>
				<g>
					<path style="fill:none;stroke:#6173FF;stroke-width:5;stroke-miterlimit:10;" d="M122,323.554c0,4.664,0,9.334,0,14"/>
					<path style="fill:none;stroke:#6173FF;stroke-width:5;stroke-miterlimit:10;" d="M92.869,323.554c0,4.664,0,9.334,0,14"/>
					<path style="fill:none;stroke:#6173FF;stroke-width:5;stroke-miterlimit:10;" d="M151.131,323.554c0,4.664,0,9.334,0,14"/>
				</g>
				<g>
					<path style="fill:#6173FF;" d="M177.024,322.845c0,1.486-1.206,2.695-2.697,2.695H69.672c-1.488,0-2.697-1.209-2.697-2.695l0,0
						c0-1.49,1.209-2.697,2.697-2.697h104.655C175.818,320.148,177.024,321.355,177.024,322.845L177.024,322.845z"/>
					
						<line style="fill:none;stroke:#6173FF;stroke-width:4;stroke-linecap:round;stroke-linejoin:round;stroke-miterlimit:10;" x1="81.142" y1="441.529" x2="162.86" y2="441.529"/>
				</g>
				<g>
					<path style="fill:#FFFFFF;stroke:#6173FF;stroke-width:4;stroke-miterlimit:10;" d="M141.422,381.562
						c0,10.729-8.696,19.422-19.422,19.422c-10.724,0-19.42-8.693-19.42-19.422c0-10.729,8.696-19.42,19.42-19.42
						C132.726,362.142,141.422,370.833,141.422,381.562z"/>
					<g>
						<g>
							<path style="fill:#7AA5FF;" d="M123.894,376.685c-0.416,0.236-0.967,0.607-1.381,0.842c0.733,0.123,5.181,0.447,5.181,0.447
								s1.68-3.482,2.057-4.611l-1.527,0.852c-0.146-0.244-1.047-2.242-2.086-2.824c-3.383-1.895-7.768-0.809-9.429,1.463
								c-1.275,1.744-2.462,4.092-2.462,4.092c0.751,0.404,4.456,2.295,4.456,2.295C119.971,377.32,122.129,371.494,123.894,376.685
								"/>
						</g>
						<g>
							<path style="fill:#7AA5FF;" d="M125.606,385.982c0.021-0.477-0.003-1.141,0.018-1.617c-0.491,0.557-3.124,4.158-3.124,4.158
								s2.063,3.27,2.82,4.185l0.087-1.746c0.286,0.006,2.457,0.301,3.501-0.272c3.4-1.865,4.802-6.158,3.756-8.771
								c-0.802-2.006-2.166-4.256-2.166-4.256c-0.74,0.422-4.307,2.563-4.307,2.563C127.147,382.32,130.944,387.236,125.606,385.982
								"/>
						</g>
						<g>
							<path style="fill:#7AA5FF;" d="M116.75,382.945c0.393,0.27,0.968,0.602,1.362,0.873c-0.212-0.715-1.871-4.854-1.871-4.854
								s-3.866,0.018-5.045,0.172l1.435,1c-0.157,0.24-1.558,1.926-1.624,3.113c-0.221,3.873,2.678,7.336,5.447,7.834
								c2.126,0.383,4.757,0.418,4.757,0.418c0.035-0.852,0.109-5.01,0.109-5.01C119.039,386.193,112.858,386.806,116.75,382.945"/>
						</g>
					</g>
				</g>
				<g style="opacity:0.3;">
					<g>
						<path style="fill:#FFFFFF;" d="M159.124,343.314c-2.208,29.583-4.417,59.167-6.625,88.75c-0.24,3.218,4.762,3.195,5,0
							c2.208-29.583,4.417-59.167,6.625-88.75C164.365,340.096,159.363,340.119,159.124,343.314L159.124,343.314z"/>
					</g>
				</g>
			</g>
		</g>
		<g>
			<g>
				<path style="fill:#2F3D79;" d="M214.937,441.523c0,4.771-3.866,8.635-8.633,8.635l0,0c-4.769,0-8.634-3.863-8.634-8.635v-24.813
					c0-4.77,3.865-8.633,8.634-8.633l0,0c4.767,0,8.633,3.863,8.633,8.633V441.523z"/>
				<path style="fill:#2F3D79;" d="M302.329,441.523c0,4.771-3.865,8.635-8.631,8.635l0,0c-4.768,0-8.633-3.863-8.633-8.635v-24.813
					c0-4.77,3.865-8.633,8.633-8.633l0,0c4.766,0,8.631,3.863,8.631,8.633V441.523z"/>
			</g>
			<g>
				<path style="fill:#F0C44D;" d="M200.017,322.285v-22.617c0-13.639,11.056-24.697,24.695-24.697h50.572
					c13.642,0,24.7,11.059,24.7,24.697v22.617"/>
				<path style="fill:#2F3D79;stroke:#FFA602;stroke-width:4;stroke-miterlimit:10;" d="M222.754,322.845v-5.398
					c0-12.512,10.145-22.656,22.658-22.656h9.174c12.515,0,22.658,10.145,22.658,22.656v5.398"/>
				<g>
					<path style="fill:none;stroke:#FFA602;stroke-width:3;stroke-miterlimit:10;" d="M250,274.763c0,3.332,0,6.666,0,10"/>
					<path style="fill:none;stroke:#FFA602;stroke-width:3;stroke-miterlimit:10;" d="M226,274.763c0,3.332,0,6.666,0,10"/>
					<path style="fill:none;stroke:#FFA602;stroke-width:3;stroke-miterlimit:10;" d="M274,274.763c0,3.332,0,6.666,0,10"/>
				</g>
			</g>
			<g>
				<polygon style="fill:#F0C44D;" points="290.861,441.529 209.141,441.529 199.829,323.921 300.17,323.921 				"/>
				<g>
					<path style="fill:none;stroke:#FFA602;stroke-width:5;stroke-miterlimit:10;" d="M250,323.554c0,4.664,0,9.334,0,14"/>
					<path style="fill:none;stroke:#FFA602;stroke-width:5;stroke-miterlimit:10;" d="M220.87,323.554c0,4.664,0,9.334,0,14"/>
					<path style="fill:none;stroke:#FFA602;stroke-width:5;stroke-miterlimit:10;" d="M279.131,323.554c0,4.664,0,9.334,0,14"/>
				</g>
				<g>
					<path style="fill:#FFA602;" d="M305.025,322.845c0,1.486-1.207,2.695-2.697,2.695H197.672c-1.489,0-2.697-1.209-2.697-2.695
						l0,0c0-1.49,1.208-2.697,2.697-2.697h104.655C303.818,320.148,305.025,321.355,305.025,322.845L305.025,322.845z"/>
					
						<line style="fill:none;stroke:#FFA602;stroke-width:4;stroke-linecap:round;stroke-linejoin:round;stroke-miterlimit:10;" x1="209.141" y1="441.529" x2="290.861" y2="441.529"/>
				</g>
				<g>
					<path style="fill:#FFFFFF;stroke:#FFA602;stroke-width:4;stroke-miterlimit:10;" d="M269.422,381.562
						c0,10.729-8.697,19.422-19.422,19.422c-10.725,0-19.421-8.693-19.421-19.422c0-10.729,8.696-19.42,19.421-19.42
						C260.725,362.142,269.422,370.833,269.422,381.562z"/>
					<g>
						<g>
							<path style="fill:#F0C44D;" d="M251.894,376.685c-0.416,0.236-0.967,0.607-1.381,0.842c0.733,0.123,5.181,0.447,5.181,0.447
								s1.68-3.482,2.057-4.611l-1.527,0.852c-0.147-0.244-1.047-2.242-2.086-2.824c-3.383-1.895-7.768-0.809-9.429,1.463
								c-1.275,1.744-2.462,4.092-2.462,4.092c0.751,0.404,4.456,2.295,4.456,2.295C247.971,377.32,250.129,371.494,251.894,376.685
								"/>
						</g>
						<g>
							<path style="fill:#F0C44D;" d="M253.606,385.982c0.021-0.477-0.003-1.141,0.018-1.617c-0.491,0.557-3.124,4.158-3.124,4.158
								s2.063,3.27,2.82,4.185l0.087-1.746c0.286,0.006,2.457,0.301,3.501-0.272c3.4-1.865,4.802-6.158,3.756-8.771
								c-0.802-2.006-2.166-4.256-2.166-4.256c-0.74,0.422-4.307,2.563-4.307,2.563C255.147,382.32,258.944,387.236,253.606,385.982
								"/>
						</g>
						<g>
							<path style="fill:#F0C44D;" d="M244.75,382.945c0.393,0.27,0.968,0.602,1.361,0.873c-0.211-0.715-1.87-4.854-1.87-4.854
								s-3.866,0.018-5.046,0.172l1.436,1c-0.156,0.24-1.558,1.926-1.624,3.113c-0.222,3.873,2.679,7.336,5.447,7.834
								c2.126,0.383,4.757,0.418,4.757,0.418c0.035-0.852,0.109-5.01,0.109-5.01C247.039,386.193,240.858,386.806,244.75,382.945"/>
						</g>
					</g>
				</g>
				<g style="opacity:0.4;">
					<g>
						<path style="fill:#FFFFFF;" d="M287.124,343.314c-2.208,29.583-4.417,59.167-6.625,88.75c-0.24,3.218,4.762,3.195,5,0
							c2.208-29.583,4.417-59.167,6.625-88.75C292.365,340.096,287.363,340.119,287.124,343.314L287.124,343.314z"/>
					</g>
				</g>
			</g>
		</g>
		<g>
			<g>
				<path style="fill:#2F3D79;" d="M342.936,441.523c0,4.771-3.865,8.635-8.633,8.635l0,0c-4.768,0-8.633-3.863-8.633-8.635v-24.813
					c0-4.77,3.865-8.633,8.633-8.633l0,0c4.768,0,8.633,3.863,8.633,8.633V441.523z"/>
				<path style="fill:#2F3D79;" d="M430.329,441.523c0,4.771-3.865,8.635-8.631,8.635l0,0c-4.768,0-8.633-3.863-8.633-8.635v-24.813
					c0-4.77,3.865-8.633,8.633-8.633l0,0c4.766,0,8.631,3.863,8.631,8.633V441.523z"/>
			</g>
			<g>
				<path style="fill:#5CB98B;" d="M328.016,322.285v-22.617c0-13.639,11.057-24.697,24.697-24.697h50.57
					c13.643,0,24.701,11.059,24.701,24.697v22.617"/>
				<path style="fill:#2F3D79;stroke:#399172;stroke-width:4;stroke-miterlimit:10;" d="M350.754,322.845v-5.398
					c0-12.512,10.145-22.656,22.658-22.656h9.174c12.514,0,22.658,10.145,22.658,22.656v5.398"/>
				<g>
					<path style="fill:none;stroke:#399172;stroke-width:3;stroke-miterlimit:10;" d="M378,274.763c0,3.332,0,6.666,0,10"/>
					<path style="fill:none;stroke:#399172;stroke-width:3;stroke-miterlimit:10;" d="M354,274.763c0,3.332,0,6.666,0,10"/>
					<path style="fill:none;stroke:#399172;stroke-width:3;stroke-miterlimit:10;" d="M402,274.763c0,3.332,0,6.666,0,10"/>
				</g>
			</g>
			<g>
				<polygon style="fill:#5CB98B;" points="418.86,441.529 337.141,441.529 327.829,323.921 428.17,323.921 				"/>
				<g>
					<path style="fill:none;stroke:#399172;stroke-width:5;stroke-miterlimit:10;" d="M378,323.554c0,4.664,0,9.334,0,14"/>
					<path style="fill:none;stroke:#399172;stroke-width:5;stroke-miterlimit:10;" d="M348.87,323.554c0,4.664,0,9.334,0,14"/>
					<path style="fill:none;stroke:#399172;stroke-width:5;stroke-miterlimit:10;" d="M407.131,323.554c0,4.664,0,9.334,0,14"/>
				</g>
				<g>
					<path style="fill:#399172;" d="M433.024,322.845c0,1.486-1.205,2.695-2.697,2.695H325.672c-1.488,0-2.697-1.209-2.697-2.695
						l0,0c0-1.49,1.209-2.697,2.697-2.697h104.654C431.819,320.148,433.024,321.355,433.024,322.845L433.024,322.845z"/>
					
						<line style="fill:none;stroke:#399172;stroke-width:4;stroke-linecap:round;stroke-linejoin:round;stroke-miterlimit:10;" x1="337.141" y1="441.529" x2="418.86" y2="441.529"/>
				</g>
				<g>
					<path style="fill:#FFFFFF;stroke:#399172;stroke-width:4;stroke-miterlimit:10;" d="M397.422,381.562
						c0,10.729-8.697,19.422-19.422,19.422c-10.725,0-19.422-8.693-19.422-19.422c0-10.729,8.697-19.42,19.422-19.42
						C388.725,362.142,397.422,370.833,397.422,381.562z"/>
					<g>
						<g>
							<path style="fill:#5CB98B;" d="M379.895,376.685c-0.416,0.236-0.967,0.607-1.381,0.842c0.733,0.123,5.181,0.447,5.181,0.447
								s1.681-3.482,2.057-4.611l-1.527,0.852c-0.146-0.244-1.047-2.242-2.086-2.824c-3.383-1.895-7.768-0.809-9.429,1.463
								c-1.275,1.744-2.462,4.092-2.462,4.092c0.751,0.404,4.456,2.295,4.456,2.295C375.971,377.32,378.129,371.494,379.895,376.685
								"/>
						</g>
						<g>
							<path style="fill:#5CB98B;" d="M381.607,385.982c0.021-0.477-0.003-1.141,0.017-1.617c-0.491,0.557-3.124,4.158-3.124,4.158
								s2.064,3.27,2.82,4.185l0.087-1.746c0.286,0.006,2.458,0.301,3.501-0.272c3.4-1.865,4.802-6.158,3.756-8.771
								c-0.802-2.006-2.166-4.256-2.166-4.256c-0.74,0.422-4.307,2.563-4.307,2.563C383.148,382.32,386.945,387.236,381.607,385.982
								"/>
						</g>
						<g>
							<path style="fill:#5CB98B;" d="M372.751,382.945c0.393,0.27,0.968,0.602,1.362,0.873c-0.213-0.715-1.871-4.854-1.871-4.854
								s-3.866,0.018-5.045,0.172l1.435,1c-0.157,0.24-1.558,1.926-1.624,3.113c-0.221,3.873,2.678,7.336,5.447,7.834
								c2.126,0.383,4.758,0.418,4.758,0.418c0.034-0.852,0.108-5.01,0.108-5.01C375.04,386.193,368.859,386.806,372.751,382.945"/>
						</g>
					</g>
				</g>
				<g style="opacity:0.3;">
					<g>
						<path style="fill:#FFFFFF;" d="M415.124,343.314c-2.208,29.583-4.417,59.167-6.625,88.75c-0.24,3.218,4.762,3.195,5,0
							c2.208-29.583,4.417-59.167,6.625-88.75C420.365,340.096,415.363,340.119,415.124,343.314L415.124,343.314z"/>
					</g>
				</g>
			</g>
		</g>
	</g>
</g>
</svg>
