<?xml version="1.0" encoding="UTF-8" standalone="no"?>
<!-- Created with Inkscape (http://www.inkscape.org/) -->

<svg
   width="47.482578mm"
   height="55.940804mm"
   viewBox="0 0 47.482579 55.940803"
   version="1.1"
   id="svg1"
   xml:space="preserve"
   xmlns:inkscape="http://www.inkscape.org/namespaces/inkscape"
   xmlns:sodipodi="http://sodipodi.sourceforge.net/DTD/sodipodi-0.dtd"
   xmlns="http://www.w3.org/2000/svg"
   xmlns:svg="http://www.w3.org/2000/svg"><sodipodi:namedview
     id="namedview1"
     pagecolor="#ffffff"
     bordercolor="#000000"
     borderopacity="0.25"
     inkscape:showpageshadow="2"
     inkscape:pageopacity="0.0"
     inkscape:pagecheckerboard="0"
     inkscape:deskcolor="#d1d1d1"
     inkscape:document-units="mm"><inkscape:page
       x="-5.8465153e-06"
       y="6.5159566e-06"
       width="47.482582"
       height="55.940804"
       id="page3"
       margin="0"
       bleed="0" /></sodipodi:namedview><defs
     id="defs1"><clipPath
       clipPathUnits="userSpaceOnUse"
       id="clipPath469"><path
         d="M 0,500 H 500 V 0 H 0 Z"
         transform="translate(-72.070402,-404.78881)"
         id="path469" /></clipPath><clipPath
       clipPathUnits="userSpaceOnUse"
       id="clipPath471"><path
         d="M 0,500 H 500 V 0 H 0 Z"
         transform="translate(-120.5436,-387.72241)"
         id="path471" /></clipPath><clipPath
       clipPathUnits="userSpaceOnUse"
       id="clipPath473"><path
         d="M 0,500 H 500 V 0 H 0 Z"
         transform="translate(-127.95231,-389.69061)"
         id="path473" /></clipPath><clipPath
       clipPathUnits="userSpaceOnUse"
       id="clipPath475"><path
         d="M 0,500 H 500 V 0 H 0 Z"
         transform="translate(-87.152005,-387.72241)"
         id="path475" /></clipPath><clipPath
       clipPathUnits="userSpaceOnUse"
       id="clipPath477"><path
         d="M 0,500 H 500 V 0 H 0 Z"
         transform="translate(-79.742799,-389.69061)"
         id="path477" /></clipPath><clipPath
       clipPathUnits="userSpaceOnUse"
       id="clipPath479"><path
         d="M 0,500 H 500 V 0 H 0 Z"
         transform="translate(-115.7208,-341.73851)"
         id="path479" /></clipPath><clipPath
       clipPathUnits="userSpaceOnUse"
       id="clipPath481"><path
         d="M 0,500 H 500 V 0 H 0 Z"
         transform="translate(-115.19541,-348.70231)"
         id="path481" /></clipPath><clipPath
       clipPathUnits="userSpaceOnUse"
       id="clipPath483"><path
         d="M 0,500 H 500 V 0 H 0 Z"
         transform="translate(-124.299,-375.94741)"
         id="path483" /></clipPath><clipPath
       clipPathUnits="userSpaceOnUse"
       id="clipPath485"><path
         d="M 0,500 H 500 V 0 H 0 Z"
         transform="translate(-125.5333,-385.45381)"
         id="path485" /></clipPath><clipPath
       clipPathUnits="userSpaceOnUse"
       id="clipPath487"><path
         d="M 0,500 H 500 V 0 H 0 Z"
         transform="translate(-119.9904,-411.82931)"
         id="path487" /></clipPath><clipPath
       clipPathUnits="userSpaceOnUse"
       id="clipPath489"><path
         d="M 0,500 H 500 V 0 H 0 Z"
         transform="translate(-110.20521,-370.89671)"
         id="path489" /></clipPath><clipPath
       clipPathUnits="userSpaceOnUse"
       id="clipPath491"><path
         d="M 0,500 H 500 V 0 H 0 Z"
         transform="translate(-110.20521,-370.94261)"
         id="path491" /></clipPath><clipPath
       clipPathUnits="userSpaceOnUse"
       id="clipPath493"><path
         d="M 0,500 H 500 V 0 H 0 Z"
         transform="translate(-109.17591,-372.22091)"
         id="path493" /></clipPath><clipPath
       clipPathUnits="userSpaceOnUse"
       id="clipPath495"><path
         d="M 0,500 H 500 V 0 H 0 Z"
         transform="translate(-99.037202,-370.65451)"
         id="path495" /></clipPath><clipPath
       clipPathUnits="userSpaceOnUse"
       id="clipPath497"><path
         d="M 0,500 H 500 V 0 H 0 Z"
         transform="translate(-101.92641,-371.18281)"
         id="path497" /></clipPath><clipPath
       clipPathUnits="userSpaceOnUse"
       id="clipPath499"><path
         d="M 0,500 H 500 V 0 H 0 Z"
         transform="translate(-107.09391,-393.35661)"
         id="path499" /></clipPath><clipPath
       clipPathUnits="userSpaceOnUse"
       id="clipPath501"><path
         d="M 0,500 H 500 V 0 H 0 Z"
         transform="translate(-100.6012,-393.35661)"
         id="path501" /></clipPath><clipPath
       clipPathUnits="userSpaceOnUse"
       id="clipPath503"><path
         d="M 0,500 H 500 V 0 H 0 Z"
         transform="translate(-107.69451,-384.69211)"
         id="path503" /></clipPath><clipPath
       clipPathUnits="userSpaceOnUse"
       id="clipPath505"><path
         d="M 0,500 H 500 V 0 H 0 Z"
         transform="translate(-111.6369,-386.67351)"
         id="path505" /></clipPath><clipPath
       clipPathUnits="userSpaceOnUse"
       id="clipPath507"><path
         d="M 0,500 H 500 V 0 H 0 Z"
         transform="translate(-117.5704,-384.87761)"
         id="path507" /></clipPath><clipPath
       clipPathUnits="userSpaceOnUse"
       id="clipPath509"><path
         d="M 0,500 H 500 V 0 H 0 Z"
         transform="translate(-107.6491,-387.99481)"
         id="path509" /></clipPath><clipPath
       clipPathUnits="userSpaceOnUse"
       id="clipPath511"><path
         d="M 0,500 H 500 V 0 H 0 Z"
         transform="translate(-99.601202,-384.45141)"
         id="path511" /></clipPath><clipPath
       clipPathUnits="userSpaceOnUse"
       id="clipPath513"><path
         d="M 0,500 H 500 V 0 H 0 Z"
         transform="translate(-96.058202,-386.67351)"
         id="path513" /></clipPath><clipPath
       clipPathUnits="userSpaceOnUse"
       id="clipPath515"><path
         d="M 0,500 H 500 V 0 H 0 Z"
         transform="translate(-90.125102,-384.87761)"
         id="path515" /></clipPath><clipPath
       clipPathUnits="userSpaceOnUse"
       id="clipPath517"><path
         d="M 0,500 H 500 V 0 H 0 Z"
         transform="translate(-100.04601,-387.99481)"
         id="path517" /></clipPath><clipPath
       clipPathUnits="userSpaceOnUse"
       id="clipPath519"><path
         d="M 0,500 H 500 V 0 H 0 Z"
         transform="translate(-100.7472,-377.50461)"
         id="path519" /></clipPath><clipPath
       clipPathUnits="userSpaceOnUse"
       id="clipPath521"><path
         d="M 0,500 H 500 V 0 H 0 Z"
         transform="translate(-106.9479,-377.39861)"
         id="path521" /></clipPath><clipPath
       clipPathUnits="userSpaceOnUse"
       id="clipPath523"><path
         d="M 0,500 H 500 V 0 H 0 Z"
         transform="translate(-100.6539,-377.65991)"
         id="path523" /></clipPath><clipPath
       clipPathUnits="userSpaceOnUse"
       id="clipPath525"><path
         d="M 0,500 H 500 V 0 H 0 Z"
         transform="translate(-149.9884,-295.86881)"
         id="path525" /></clipPath><clipPath
       clipPathUnits="userSpaceOnUse"
       id="clipPath527"><path
         d="M 0,500 H 500 V 0 H 0 Z"
         transform="translate(-145.983,-273.47531)"
         id="path527" /></clipPath><clipPath
       clipPathUnits="userSpaceOnUse"
       id="clipPath529"><path
         d="M 0,500 H 500 V 0 H 0 Z"
         transform="translate(-164.21601,-308.24331)"
         id="path529" /></clipPath><clipPath
       clipPathUnits="userSpaceOnUse"
       id="clipPath531"><path
         d="M 0,500 H 500 V 0 H 0 Z"
         transform="translate(-57.829201,-295.71111)"
         id="path531" /></clipPath><clipPath
       clipPathUnits="userSpaceOnUse"
       id="clipPath533"><path
         d="M 0,500 H 500 V 0 H 0 Z"
         transform="translate(-36.766701,-273.29321)"
         id="path533" /></clipPath><clipPath
       clipPathUnits="userSpaceOnUse"
       id="clipPath535"><path
         d="M 0,500 H 500 V 0 H 0 Z"
         transform="translate(-43.601701,-308.08561)"
         id="path535" /></clipPath><clipPath
       clipPathUnits="userSpaceOnUse"
       id="clipPath537"><path
         d="M 0,500 H 500 V 0 H 0 Z"
         transform="translate(-141.94791,-273.29321)"
         id="path537" /></clipPath><clipPath
       clipPathUnits="userSpaceOnUse"
       id="clipPath539"><path
         d="M 0,500 H 500 V 0 H 0 Z"
         transform="translate(-115.30191,-349.16031)"
         id="path539" /></clipPath></defs><g
     id="layer-MC1"
     inkscape:groupmode="layer"
     inkscape:label="OBJECTS"
     transform="matrix(0.26458333,0,0,0.26458334,88.343406,-140.2602)"><path
       id="path468"
       d="m 0,0 c -0.859,2.472 -0.679,5.319 0.484,7.65 1.162,2.332 3.29,4.113 5.718,4.785 0.256,3.784 3.486,6.735 7.103,6.599 0.295,1.783 1.701,3.427 3.316,4.068 1.614,0.641 3.542,0.322 4.89,-0.809 0.431,1.678 1.541,3.266 3.164,3.619 1.623,0.353 3.411,-0.325 4.444,-1.683 0.872,1.958 2.817,2.42 4.875,2.567 2.058,0.148 4.156,-0.954 5.275,-2.77 1.38,1.735 3.659,2.159 5.673,1.353 2.014,-0.805 3.425,-3.034 3.351,-5.292 1.297,1.029 3.368,0.709 4.819,-0.062 1.451,-0.77 2.417,-2.449 2.392,-4.153 1.809,-0.04 3.433,-1.116 4.457,-2.679 1.025,-1.562 1.281,-3.647 0.668,-5.43 1.818,-0.242 3.149,-2.403 3.751,-4.217 0.601,-1.813 0.141,-3.965 -1.143,-5.337 1.491,-0.987 1.995,-3.323 2.264,-5.149 0.27,-1.827 -0.25,-3.765 -1.386,-5.178 1.198,-1.158 1.367,-3.632 1.148,-5.324 -0.22,-1.693 -1.266,-3.245 -2.717,-4.026 1.112,-1.193 0.522,-3.76 -0.181,-5.256 -0.704,-1.495 -2.356,-2.435 -3.936,-2.237 0.468,-1.579 -0.734,-3.961 -2.003,-4.943 -1.269,-0.982 -3.134,-1.016 -4.435,-0.083 -0.399,-3.866 -5.033,-8.111 -8.719,-7.662 -0.923,-1.576 -3.062,-3.035 -4.823,-3.142 -1.761,-0.106 -3.551,0.738 -4.641,2.191 -0.649,-1.71 -3.055,-3.604 -4.811,-3.608 -1.757,-0.003 -3.46,1.199 -4.117,2.907 -2.952,-1.759 -8.049,0.226 -9.463,3.46 -1.297,-1.324 -4.209,-2.023 -5.747,-1.021 -1.537,1.001 -2.287,3.156 -1.727,4.96 -1.441,-0.153 -3.246,0.643 -4.236,1.751 -0.991,1.108 -1.454,2.71 -1.215,4.207 -1.372,0.181 -2.694,1.826 -3.188,3.18 -0.494,1.354 -0.219,2.983 0.689,4.078 -1.221,0.936 -1.768,3.04 -1.852,4.623 -0.083,1.582 0.542,3.189 1.656,4.26 -2.183,2.065 -2.512,6.46 -0.346,8.543 -0.871,0.529 -1.129,1.288 -1.167,2.343 C -1.755,-1.863 -0.831,-0.597 0,0"
       style="fill:#2e2e2e;fill-opacity:1;fill-rule:nonzero;stroke:none"
       transform="matrix(1.3333333,0,0,-1.3333333,-286.46797,565.86295)"
       clip-path="url(#clipPath469)" /><path
       id="path470"
       d="m 0,0 c -2.474,-3.973 -2.234,-8.679 0.534,-10.511 2.768,-1.833 7.018,-0.098 9.491,3.875 C 12.499,-2.664 12.26,2.042 9.492,3.875 6.723,5.708 2.474,3.973 0,0"
       style="fill:#f5f5ff;fill-opacity:1;fill-rule:nonzero;stroke:#2e2e2e;stroke-width:0.535;stroke-linecap:round;stroke-linejoin:round;stroke-miterlimit:10;stroke-dasharray:none;stroke-opacity:1"
       transform="matrix(1.3333333,0,0,-1.3333333,-221.83704,588.61815)"
       clip-path="url(#clipPath471)" /><path
       id="path472"
       d="M 0,0 C 1.199,-0.468 2.11,-1.607 2.305,-2.879 2.499,-4.152 1.969,-5.51 0.964,-6.315"
       style="fill:none;stroke:#2e2e2e;stroke-width:0.535;stroke-linecap:round;stroke-linejoin:round;stroke-miterlimit:10;stroke-dasharray:none;stroke-opacity:1"
       transform="matrix(1.3333333,0,0,-1.3333333,-211.95877,585.99388)"
       clip-path="url(#clipPath473)" /><path
       id="path474"
       d="m 0,0 c 2.473,-3.973 2.234,-8.679 -0.534,-10.511 -2.769,-1.833 -7.018,-0.098 -9.492,3.875 C -12.5,-2.664 -12.26,2.042 -9.492,3.875 -6.723,5.708 -2.474,3.973 0,0"
       style="fill:#f5f5ff;fill-opacity:1;fill-rule:nonzero;stroke:#2e2e2e;stroke-width:0.535;stroke-linecap:round;stroke-linejoin:round;stroke-miterlimit:10;stroke-dasharray:none;stroke-opacity:1"
       transform="matrix(1.3333333,0,0,-1.3333333,-266.35917,588.61815)"
       clip-path="url(#clipPath475)" /><path
       id="path476"
       d="m 0,0 c -1.199,-0.468 -2.11,-1.607 -2.304,-2.879 -0.195,-1.273 0.336,-2.631 1.341,-3.436"
       style="fill:none;stroke:#2e2e2e;stroke-width:0.535;stroke-linecap:round;stroke-linejoin:round;stroke-miterlimit:10;stroke-dasharray:none;stroke-opacity:1"
       transform="matrix(1.3333333,0,0,-1.3333333,-276.23811,585.99388)"
       clip-path="url(#clipPath477)" /><path
       id="path478"
       d="m 0,0 c 0.223,-6.718 -5.153,-12.273 -11.871,-12.273 -6.584,0 -11.882,5.343 -11.882,11.871 0,0.134 0,0.268 0.011,0.402 l 1.319,17.705 0.336,4.482 0.659,8.797 H -2.325 L -1.274,17.08 -0.525,6.964 Z"
       style="fill:#f5f5ff;fill-opacity:1;fill-rule:nonzero;stroke:#2e2e2e;stroke-width:0.559;stroke-linecap:round;stroke-linejoin:round;stroke-miterlimit:10;stroke-dasharray:none;stroke-opacity:1"
       transform="matrix(1.3333333,0,0,-1.3333333,-228.26744,649.93001)"
       clip-path="url(#clipPath479)" /><path
       id="path480"
       d="m 0,0 c -6.271,-0.447 -13.179,2.671 -17.918,8.729 -1.599,2.035 -2.817,4.237 -3.644,6.495 l 0.66,8.797 H -1.8 l 1.051,-13.905 z"
       style="fill:#2e2e2e;fill-opacity:1;fill-rule:nonzero;stroke:none"
       transform="matrix(1.3333333,0,0,-1.3333333,-228.96797,640.64495)"
       clip-path="url(#clipPath481)" /><path
       id="path482"
       d="m 0,0 c -0.744,-1.908 -1.818,-3.904 -3.112,-5.835 -2.492,-3.721 -5.793,-7.211 -9.089,-9.425 -3.614,-2.422 -8.35,-3.213 -12.472,-1.807 -3.243,1.104 -5.918,3.425 -8.31,5.881 -2.982,3.06 -5.705,6.485 -7.234,10.477 -1.187,3.106 -1.695,6.562 -1.831,10.099 -0.189,4.902 0.337,9.957 0.756,14.463 0.614,6.638 4.636,12.939 10.37,16.317 5.622,3.308 12.81,3.803 18.834,1.288 C -6.071,38.942 -1.364,33.485 0.23,27.154 1.371,22.654 0.98,17.982 1.052,13.394 1.069,12.106 1.128,10.807 1.158,9.508 1.247,6.278 1.181,3.047 0,0"
       style="fill:#f5f5ff;fill-opacity:1;fill-rule:nonzero;stroke:#2e2e2e;stroke-width:0.535;stroke-linecap:round;stroke-linejoin:round;stroke-miterlimit:10;stroke-dasharray:none;stroke-opacity:1"
       transform="matrix(1.3333333,0,0,-1.3333333,-216.82984,604.31815)"
       clip-path="url(#clipPath483)" /><path
       id="path484"
       d="m 0,0 v -0.161 l -0.118,0.108 c -1.487,1.294 -2.397,3.167 -2.493,5.125 l -0.781,14.82 c -0.781,0.31 -1.53,0.63 -2.29,0.984 -1.134,0.545 -2.236,1.134 -3.263,1.765 -2.237,1.338 -4.184,2.868 -5.66,4.441 -2.119,-0.514 -4.538,-0.781 -6.999,-0.781 -2.867,0 -5.638,0.364 -8.014,1.059 -1.38,-1.541 -3.199,-3.028 -5.296,-4.355 -1.199,-0.77 -2.493,-1.487 -3.863,-2.129 -0.3,-0.139 -0.631,-0.289 -1.027,-0.46 L -40.585,5.072 c -0.107,-2.044 -1.07,-3.948 -2.643,-5.243 l -0.118,-0.097 -0.01,0.15 c -0.172,4.558 0.277,9.309 0.663,13.493 l 0.096,0.974 c 0.396,4.291 2.172,8.399 4.944,11.706 1.54,1.851 3.391,3.445 5.467,4.675 5.628,3.307 12.873,3.81 18.896,1.285 2.964,-1.231 5.628,-3.2 7.747,-5.64 2.183,-2.493 3.799,-5.499 4.612,-8.709 0.877,-3.467 0.856,-7.083 0.824,-10.583 -0.011,-1.048 -0.011,-2.14 0,-3.199 0.01,-0.738 0.032,-1.498 0.064,-2.236 C -0.032,1.102 -0.011,0.557 0,0"
       style="fill:#2e2e2e;fill-opacity:1;fill-rule:nonzero;stroke:none"
       transform="matrix(1.3333333,0,0,-1.3333333,-215.18411,591.64295)"
       clip-path="url(#clipPath485)" /><path
       id="path486"
       d="m 0,0 c -2.119,2.439 -4.783,4.409 -7.747,5.639 -6.024,2.525 -13.268,2.022 -18.896,-1.284 -2.076,-1.23 -3.927,-2.825 -5.467,-4.676 0.384,-0.645 0.869,-1.258 1.423,-1.839 0.057,-1.349 0.652,-2.675 1.648,-3.59 1.168,-1.072 2.853,-1.554 4.412,-1.261 0.298,-1.18 1.69,-2.394 2.894,-2.57 1.205,-0.176 2.486,0.434 3.11,1.479 0.675,-1.044 2.076,-1.96 3.315,-1.854 1.239,0.105 2.389,0.935 2.878,2.078 0.731,-1.233 1.889,-2.31 3.31,-2.116 1.421,0.193 2.676,1.295 3.051,2.679 1.788,-0.516 3.891,0.337 4.339,2.145 0.21,0.847 0.027,1.742 -0.402,2.498 C -1.253,-1.852 -0.524,-0.959 0,0"
       style="fill:#2e2e2e;fill-opacity:1;fill-rule:nonzero;stroke:none"
       transform="matrix(1.3333333,0,0,-1.3333333,-222.57464,556.47561)"
       clip-path="url(#clipPath487)" /><path
       id="path488"
       d="m 0,0 c 0,-1.66 -3.554,-3.006 -5.969,-3.006 -2.27,0 -6.89,1.346 -6.89,3.006"
       style="fill:#f5f5ff;fill-opacity:1;fill-rule:nonzero;stroke:#2e2e2e;stroke-width:0.621;stroke-linecap:round;stroke-linejoin:round;stroke-miterlimit:10;stroke-dasharray:none;stroke-opacity:1"
       transform="matrix(1.3333333,0,0,-1.3333333,-235.62157,611.05241)"
       clip-path="url(#clipPath489)" /><path
       id="path490"
       d="M 0,0 V -0.031 H -12.859 V 0 c 0,1.263 4.476,2.287 6.891,2.287 C -3.698,2.287 0,1.263 0,0"
       style="fill:#2e2e2e;fill-opacity:1;fill-rule:nonzero;stroke:#2e2e2e;stroke-width:0.461;stroke-linecap:butt;stroke-linejoin:miter;stroke-miterlimit:10;stroke-dasharray:none;stroke-opacity:1"
       transform="matrix(1.3333333,0,0,-1.3333333,-235.62157,610.99121)"
       clip-path="url(#clipPath491)" /><path
       id="path492"
       d="M 0,0 C 0.649,-0.417 1.66,-0.498 2.517,-0.063 L 2.524,-0.06 C 2.658,0.008 2.821,-0.045 2.888,-0.178 2.941,-0.282 2.92,-0.404 2.845,-0.485 2.067,-1.324 0.802,-1.8 -0.518,-1.566 l -0.088,0.015 c -0.462,0.082 -0.77,0.523 -0.688,0.984 0.081,0.462 0.522,0.77 0.983,0.689 C -0.198,0.102 -0.091,0.058 0,0"
       style="fill:#2e2e2e;fill-opacity:1;fill-rule:nonzero;stroke:none"
       transform="matrix(1.3333333,0,0,-1.3333333,-236.99397,609.28681)"
       clip-path="url(#clipPath493)" /><path
       id="path494"
       d="m 0,0 c -1.32,-0.233 -2.584,0.243 -3.363,1.082 -0.101,0.109 -0.095,0.28 0.014,0.382 0.086,0.079 0.208,0.093 0.307,0.043 L -3.034,1.503 C -2.177,1.068 -1.167,1.15 -0.518,1.566 -0.123,1.82 0.402,1.705 0.655,1.311 0.909,0.916 0.794,0.391 0.399,0.137 0.303,0.076 0.199,0.036 0.093,0.016 Z"
       style="fill:#2e2e2e;fill-opacity:1;fill-rule:nonzero;stroke:none"
       transform="matrix(1.3333333,0,0,-1.3333333,-250.51224,611.37535)"
       clip-path="url(#clipPath495)" /><path
       id="path496"
       d="m 0,0 c 0.534,-0.49 1.243,-0.785 1.967,-0.818 0.724,-0.034 1.457,0.195 2.034,0.634"
       style="fill:#2e2e2e;fill-opacity:1;fill-rule:nonzero;stroke:#2e2e2e;stroke-width:0.922;stroke-linecap:round;stroke-linejoin:round;stroke-miterlimit:10;stroke-dasharray:none;stroke-opacity:1"
       transform="matrix(1.3333333,0,0,-1.3333333,-246.65997,610.67095)"
       clip-path="url(#clipPath497)" /><path
       id="path498"
       d="M 0,0 C 0.505,1.228 1.508,2.132 2.62,2.757 3.744,3.375 5.019,3.713 6.309,3.755 7.598,3.799 8.888,3.542 10.048,3.001 11.197,2.455 12.254,1.628 12.857,0.443 L 9.42,0.537 C 8.379,0.556 7.39,0.551 6.409,0.523 5.429,0.493 4.443,0.437 3.41,0.349 2.366,0.265 1.305,0.147 0,0"
       style="fill:#2e2e2e;fill-opacity:1;fill-rule:nonzero;stroke:none"
       transform="matrix(1.3333333,0,0,-1.3333333,-239.76997,581.10588)"
       clip-path="url(#clipPath499)" /><path
       id="path500"
       d="m 0,0 c -1.305,0.147 -2.366,0.265 -3.409,0.349 -1.034,0.088 -2.02,0.144 -3,0.174 -0.981,0.028 -1.97,0.033 -3.011,0.014 l -3.437,-0.094 c 0.603,1.185 1.66,2.012 2.809,2.558 1.16,0.541 2.45,0.798 3.74,0.754 C -5.019,3.713 -3.744,3.375 -2.62,2.757 -1.507,2.132 -0.505,1.228 0,0"
       style="fill:#2e2e2e;fill-opacity:1;fill-rule:nonzero;stroke:none"
       transform="matrix(1.3333333,0,0,-1.3333333,-248.42691,581.10588)"
       clip-path="url(#clipPath501)" /><path
       id="path502"
       d="m 0,0 c 0.232,0.516 0.491,1.016 0.736,1.524 l 0.02,0.031 C 1.367,2.473 2.134,3.359 3.158,3.939 4.162,4.536 5.372,4.838 6.544,4.765 7.709,4.707 8.858,4.358 9.847,3.755 10.341,3.458 10.792,3.102 11.208,2.717 11.622,2.339 11.995,1.879 12.147,1.32 L 12.149,1.311 C 12.187,1.174 12.106,1.034 11.97,0.996 11.911,0.98 11.852,0.986 11.8,1.009 11.249,1.25 10.891,1.57 10.493,1.883 10.099,2.191 9.678,2.457 9.242,2.68 8.378,3.134 7.429,3.396 6.468,3.473 5.512,3.55 4.558,3.378 3.69,2.956 2.828,2.526 2.049,1.871 1.381,1.093 L 1.402,1.124 C 1.067,0.669 0.747,0.206 0.4,-0.241 0.32,-0.343 0.173,-0.361 0.07,-0.282 -0.017,-0.214 -0.043,-0.097 0,0"
       style="fill:#2e2e2e;fill-opacity:1;fill-rule:nonzero;stroke:none"
       transform="matrix(1.3333333,0,0,-1.3333333,-238.96917,592.65855)"
       clip-path="url(#clipPath503)" /><path
       id="path504"
       d="M 0,0 C 0.078,1.084 1.02,1.899 2.104,1.821 3.188,1.743 4.003,0.801 3.925,-0.283 3.847,-1.367 2.905,-2.182 1.821,-2.104 0.737,-2.026 -0.078,-1.084 0,0"
       style="fill:#2e2e2e;fill-opacity:1;fill-rule:nonzero;stroke:none"
       transform="matrix(1.3333333,0,0,-1.3333333,-233.71264,590.01668)"
       clip-path="url(#clipPath505)" /><path
       id="path506"
       d="M 0,0 C 0.724,0.162 1.409,0.49 1.988,0.953"
       style="fill:none;stroke:#2e2e2e;stroke-width:0.535;stroke-linecap:round;stroke-linejoin:round;stroke-miterlimit:10;stroke-dasharray:none;stroke-opacity:1"
       transform="matrix(1.3333333,0,0,-1.3333333,-225.80131,592.41121)"
       clip-path="url(#clipPath507)" /><path
       id="path508"
       d="M 0,0 C 0.811,1.381 2.123,2.461 3.634,2.993 5.146,3.524 6.845,3.501 8.342,2.931"
       style="fill:none;stroke:#2e2e2e;stroke-width:0.535;stroke-linecap:round;stroke-linejoin:round;stroke-miterlimit:10;stroke-dasharray:none;stroke-opacity:1"
       transform="matrix(1.3333333,0,0,-1.3333333,-239.02971,588.25495)"
       clip-path="url(#clipPath509)" /><path
       id="path510"
       d="m 0,0 c -0.347,0.447 -0.667,0.91 -1.002,1.364 l 0.02,-0.031 C -1.649,2.112 -2.428,2.767 -3.291,3.197 -4.158,3.619 -5.112,3.791 -6.068,3.713 -7.029,3.636 -7.979,3.375 -8.843,2.921 -9.278,2.698 -9.699,2.432 -10.093,2.124 -10.491,1.811 -10.849,1.491 -11.4,1.25 c -0.13,-0.057 -0.281,0.002 -0.337,0.131 -0.025,0.056 -0.028,0.116 -0.013,0.17 l 0.003,0.01 c 0.152,0.559 0.524,1.019 0.939,1.397 0.416,0.384 0.867,0.74 1.361,1.038 0.989,0.603 2.137,0.952 3.302,1.01 1.173,0.073 2.383,-0.229 3.387,-0.826 1.024,-0.58 1.79,-1.467 2.401,-2.385 l 0.021,-0.03 C -0.092,1.256 0.167,0.756 0.399,0.241 0.453,0.122 0.4,-0.017 0.282,-0.07 0.181,-0.115 0.065,-0.083 0,0"
       style="fill:#2e2e2e;fill-opacity:1;fill-rule:nonzero;stroke:none"
       transform="matrix(1.3333333,0,0,-1.3333333,-249.76024,592.97948)"
       clip-path="url(#clipPath511)" /><path
       id="path512"
       d="m 0,0 c -0.078,1.084 -1.02,1.899 -2.104,1.821 -1.084,-0.078 -1.899,-1.02 -1.821,-2.104 0.078,-1.084 1.02,-1.899 2.104,-1.821 C -0.737,-2.026 0.078,-1.084 0,0"
       style="fill:#2e2e2e;fill-opacity:1;fill-rule:nonzero;stroke:none"
       transform="matrix(1.3333333,0,0,-1.3333333,-254.48424,590.01668)"
       clip-path="url(#clipPath513)" /><path
       id="path514"
       d="M 0,0 C -0.724,0.162 -1.409,0.49 -1.988,0.953"
       style="fill:none;stroke:#2e2e2e;stroke-width:0.535;stroke-linecap:round;stroke-linejoin:round;stroke-miterlimit:10;stroke-dasharray:none;stroke-opacity:1"
       transform="matrix(1.3333333,0,0,-1.3333333,-262.39504,592.41121)"
       clip-path="url(#clipPath515)" /><path
       id="path516"
       d="M 0,0 C -0.811,1.381 -2.123,2.461 -3.634,2.993 -5.146,3.524 -6.844,3.501 -8.341,2.931"
       style="fill:none;stroke:#2e2e2e;stroke-width:0.535;stroke-linecap:round;stroke-linejoin:round;stroke-miterlimit:10;stroke-dasharray:none;stroke-opacity:1"
       transform="matrix(1.3333333,0,0,-1.3333333,-249.16717,588.25495)"
       clip-path="url(#clipPath517)" /><path
       id="path518"
       d="M 0,0 C -1.059,-0.129 -1.664,1.021 -1.167,1.964"
       style="fill:none;stroke:#2e2e2e;stroke-width:0.621;stroke-linecap:round;stroke-linejoin:round;stroke-miterlimit:10;stroke-dasharray:none;stroke-opacity:1"
       transform="matrix(1.3333333,0,0,-1.3333333,-248.23224,602.24188)"
       clip-path="url(#clipPath519)" /><path
       id="path520"
       d="M 0,0 C 1.06,-0.129 1.665,1.021 1.167,1.964"
       style="fill:none;stroke:#2e2e2e;stroke-width:0.621;stroke-linecap:round;stroke-linejoin:round;stroke-miterlimit:10;stroke-dasharray:none;stroke-opacity:1"
       transform="matrix(1.3333333,0,0,-1.3333333,-239.96464,602.38321)"
       clip-path="url(#clipPath521)" /><path
       id="path522"
       d="M 0,0 C 1.706,-1.566 4.596,-1.613 6.352,-0.103"
       style="fill:none;stroke:#2e2e2e;stroke-width:0.621;stroke-linecap:round;stroke-linejoin:round;stroke-miterlimit:10;stroke-dasharray:none;stroke-opacity:1"
       transform="matrix(1.3333333,0,0,-1.3333333,-248.35664,602.03481)"
       clip-path="url(#clipPath523)" /><path
       id="path524"
       d="m 0,0 c -9.117,-4.114 -17.441,-5.382 -18.591,-2.832 -1.151,2.549 5.307,7.951 14.424,12.065 9.118,4.114 17.441,5.382 18.591,2.832 C 15.575,9.516 9.117,4.114 0,0"
       style="fill:#2e2e2e;fill-opacity:1;fill-rule:nonzero;stroke:none"
       transform="matrix(1.3333333,0,0,-1.3333333,-182.57731,711.08961)"
       clip-path="url(#clipPath525)" /><path
       id="path526"
       d="m 0,0 -4.269,10.368 -3.417,8.307 -2.88,7.008 -6.329,15.38 c -3.333,8.092 -0.057,17.057 7.13,19.519 1.255,0.429 2.54,0.623 3.814,0.614 0.118,-10e-4 0.235,-0.002 0.353,-0.013 5.573,-0.202 10.957,-4.34 13.115,-10.658 l 5.123,-14.975 2.295,-6.715 9.91,-29.017"
       style="fill:#f5f5ff;fill-opacity:1;fill-rule:nonzero;stroke:#2e2e2e;stroke-width:0.535;stroke-linecap:round;stroke-linejoin:round;stroke-miterlimit:10;stroke-dasharray:none;stroke-opacity:1"
       transform="matrix(1.3333333,0,0,-1.3333333,-187.91784,740.94761)"
       clip-path="url(#clipPath527)" /><path
       id="path528"
       d="m 0,0 c -1.686,2.128 -9.672,0.788 -18.39,-3.136 -9.119,-4.117 -15.585,-9.52 -14.424,-12.076 0.027,-0.055 0.055,-0.097 0.096,-0.152 l -0.096,-0.041 -10.073,23.613 c -3.951,9.271 0.318,19.84 9.299,22.977 1.699,0.594 3.426,0.884 5.153,0.884 6.149,0 12.049,-3.648 15.074,-9.561 z"
       style="fill:#f5f5ff;fill-opacity:1;fill-rule:nonzero;stroke:#2e2e2e;stroke-width:0.535;stroke-linecap:round;stroke-linejoin:round;stroke-miterlimit:10;stroke-dasharray:none;stroke-opacity:1"
       transform="matrix(1.3333333,0,0,-1.3333333,-163.60717,694.59028)"
       clip-path="url(#clipPath529)" /><path
       id="path530"
       d="m 0,0 c 9.117,-4.114 17.441,-5.382 18.591,-2.833 1.151,2.55 -5.307,7.952 -14.424,12.066 -9.118,4.114 -17.441,5.382 -18.591,2.832 C -15.575,9.516 -9.117,4.114 0,0"
       style="fill:#2e2e2e;fill-opacity:1;fill-rule:nonzero;stroke:none"
       transform="matrix(1.3333333,0,0,-1.3333333,-305.45624,711.29988)"
       clip-path="url(#clipPath531)" /><path
       id="path532"
       d="m 0,0 10.122,28.933 2.344,6.709 5.232,14.937 c 2.247,6.431 7.843,10.572 13.535,10.572 h 0.075 c 1.252,-0.011 2.504,-0.214 3.734,-0.642 7.169,-2.515 10.39,-11.503 6.999,-19.571 L 35.599,25.605 v -0.01 L 32.667,18.618 29.543,11.182 24.846,0"
       style="fill:#f5f5ff;fill-opacity:1;fill-rule:nonzero;stroke:#2e2e2e;stroke-width:0.535;stroke-linecap:round;stroke-linejoin:round;stroke-miterlimit:10;stroke-dasharray:none;stroke-opacity:1"
       transform="matrix(1.3333333,0,0,-1.3333333,-333.53957,741.19041)"
       clip-path="url(#clipPath533)" /><path
       id="path534"
       d="m 0,0 c 1.686,2.128 9.671,0.788 18.39,-3.136 9.119,-4.118 15.585,-9.52 14.424,-12.076 -0.027,-0.056 -0.055,-0.097 -0.096,-0.152 l 0.096,-0.042 10.073,23.613 c 3.951,9.271 -0.318,19.841 -9.299,22.978 -1.699,0.593 -3.426,0.884 -5.153,0.884 -6.149,0 -12.049,-3.648 -15.074,-9.562 z"
       style="fill:#f5f5ff;fill-opacity:1;fill-rule:nonzero;stroke:#2e2e2e;stroke-width:0.535;stroke-linecap:round;stroke-linejoin:round;stroke-miterlimit:10;stroke-dasharray:none;stroke-opacity:1"
       transform="matrix(1.3333333,0,0,-1.3333333,-324.42624,694.80055)"
       clip-path="url(#clipPath535)" /><path
       id="path536"
       d="m 0,0 h -76.302 l 0.396,11.182 0.279,8.068 0.353,9.908 1.134,31.993 0.173,5.364 16.765,5.454 2.761,0.994 1.369,0.503 3.574,1.923 h 1.081 20.651 0.428 l 4.012,-1.847 1.359,-0.493 2.76,-0.995 17.026,-5.539 0.127,-5.375 0.61,-18.019 0.46,-13.771 0.332,-9.961 v -0.054 l 0.299,-8.999 z"
       style="fill:#f5f5ff;fill-opacity:1;fill-rule:nonzero;stroke:#2e2e2e;stroke-width:0.535;stroke-linecap:round;stroke-linejoin:round;stroke-miterlimit:10;stroke-dasharray:none;stroke-opacity:1"
       transform="matrix(1.3333333,0,0,-1.3333333,-193.29797,741.19041)"
       clip-path="url(#clipPath537)" /><path
       id="path538"
       d="m 0,0 2.785,-2.093 1.303,-0.47 c -0.974,-7.771 -7.607,-13.77 -15.649,-13.77 -8.006,0 -14.627,5.964 -15.648,13.688 l 1.327,0.481 3.164,2.546"
       style="fill:#f5f5ff;fill-opacity:1;fill-rule:nonzero;stroke:#2e2e2e;stroke-width:0.535;stroke-linecap:round;stroke-linejoin:round;stroke-miterlimit:10;stroke-dasharray:none;stroke-opacity:1"
       transform="matrix(1.3333333,0,0,-1.3333333,-228.82597,640.03428)"
       clip-path="url(#clipPath539)" /></g></svg>
