<?xml version="1.0" encoding="UTF-8" standalone="no"?>
<!-- Created with Inkscape (http://www.inkscape.org/) -->

<svg
   width="47.57608mm"
   height="59.812836mm"
   viewBox="0 0 47.576082 59.812835"
   version="1.1"
   id="svg1"
   xml:space="preserve"
   xmlns:inkscape="http://www.inkscape.org/namespaces/inkscape"
   xmlns:sodipodi="http://sodipodi.sourceforge.net/DTD/sodipodi-0.dtd"
   xmlns="http://www.w3.org/2000/svg"
   xmlns:svg="http://www.w3.org/2000/svg"><sodipodi:namedview
     id="namedview1"
     pagecolor="#ffffff"
     bordercolor="#000000"
     borderopacity="0.25"
     inkscape:showpageshadow="2"
     inkscape:pageopacity="0.0"
     inkscape:pagecheckerboard="0"
     inkscape:deskcolor="#d1d1d1"
     inkscape:document-units="mm"><inkscape:page
       x="-8.596151e-06"
       y="2.9492783e-06"
       width="47.576084"
       height="59.81284"
       id="page3"
       margin="0"
       bleed="0" /></sodipodi:namedview><defs
     id="defs1"><clipPath
       clipPathUnits="userSpaceOnUse"
       id="clipPath257"><path
         d="M 0,500 H 500 V 0 H 0 Z"
         transform="translate(-189.6466,-374.85031)"
         id="path257" /></clipPath><clipPath
       clipPathUnits="userSpaceOnUse"
       id="clipPath259"><path
         d="M 0,500 H 500 V 0 H 0 Z"
         transform="translate(-287.28381,-371.87181)"
         id="path259" /></clipPath><clipPath
       clipPathUnits="userSpaceOnUse"
       id="clipPath261"><path
         d="M 0,500 H 500 V 0 H 0 Z"
         transform="translate(-261.51231,-334.33761)"
         id="path261" /></clipPath><clipPath
       clipPathUnits="userSpaceOnUse"
       id="clipPath263"><path
         d="M 0,500 H 500 V 0 H 0 Z"
         transform="translate(-260.96551,-343.01531)"
         id="path263" /></clipPath><clipPath
       clipPathUnits="userSpaceOnUse"
       id="clipPath265"><path
         d="M 0,500 H 500 V 0 H 0 Z"
         transform="translate(-267.09921,-381.42941)"
         id="path265" /></clipPath><clipPath
       clipPathUnits="userSpaceOnUse"
       id="clipPath267"><path
         d="M 0,500 H 500 V 0 H 0 Z"
         transform="translate(-274.0231,-383.26871)"
         id="path267" /></clipPath><clipPath
       clipPathUnits="userSpaceOnUse"
       id="clipPath269"><path
         d="M 0,500 H 500 V 0 H 0 Z"
         transform="translate(-232.89171,-381.42941)"
         id="path269" /></clipPath><clipPath
       clipPathUnits="userSpaceOnUse"
       id="clipPath271"><path
         d="M 0,500 H 500 V 0 H 0 Z"
         transform="translate(-225.96741,-383.26871)"
         id="path271" /></clipPath><clipPath
       clipPathUnits="userSpaceOnUse"
       id="clipPath273"><path
         d="M 0,500 H 500 V 0 H 0 Z"
         transform="translate(-273.0817,-388.37271)"
         id="path273" /></clipPath><clipPath
       clipPathUnits="userSpaceOnUse"
       id="clipPath275"><path
         d="M 0,500 H 500 V 0 H 0 Z"
         transform="translate(-252.75261,-415.52171)"
         id="path275" /></clipPath><clipPath
       clipPathUnits="userSpaceOnUse"
       id="clipPath277"><path
         d="M 0,500 H 500 V 0 H 0 Z"
         transform="translate(-254.8141,-414.34541)"
         id="path277" /></clipPath><clipPath
       clipPathUnits="userSpaceOnUse"
       id="clipPath279"><path
         d="M 0,500 H 500 V 0 H 0 Z"
         transform="translate(-230.85121,-379.25411)"
         id="path279" /></clipPath><clipPath
       clipPathUnits="userSpaceOnUse"
       id="clipPath281"><path
         d="M 0,500 H 500 V 0 H 0 Z"
         transform="translate(-253.29651,-379.25411)"
         id="path281" /></clipPath><clipPath
       clipPathUnits="userSpaceOnUse"
       id="clipPath283"><path
         d="M 0,500 H 500 V 0 H 0 Z"
         transform="translate(-247.16131,-380.21501)"
         id="path283" /></clipPath><clipPath
       clipPathUnits="userSpaceOnUse"
       id="clipPath285"><path
         d="M 0,500 H 500 V 0 H 0 Z"
         transform="translate(-230.85121,-379.25411)"
         id="path285" /></clipPath><clipPath
       clipPathUnits="userSpaceOnUse"
       id="clipPath287"><path
         d="M 0,500 H 500 V 0 H 0 Z"
         transform="translate(-269.45181,-379.25411)"
         id="path287" /></clipPath><clipPath
       clipPathUnits="userSpaceOnUse"
       id="clipPath289"><path
         d="M 0,500 H 500 V 0 H 0 Z"
         transform="translate(-254.06901,-387.52511)"
         id="path289" /></clipPath><clipPath
       clipPathUnits="userSpaceOnUse"
       id="clipPath291"><path
         d="M 0,500 H 500 V 0 H 0 Z"
         transform="translate(-246.23401,-387.52511)"
         id="path291" /></clipPath><clipPath
       clipPathUnits="userSpaceOnUse"
       id="clipPath293"><path
         d="M 0,500 H 500 V 0 H 0 Z"
         transform="translate(-254.6305,-379.42691)"
         id="path293" /></clipPath><clipPath
       clipPathUnits="userSpaceOnUse"
       id="clipPath295"><path
         d="M 0,500 H 500 V 0 H 0 Z"
         transform="translate(-258.3151,-381.27901)"
         id="path295" /></clipPath><clipPath
       clipPathUnits="userSpaceOnUse"
       id="clipPath297"><path
         d="M 0,500 H 500 V 0 H 0 Z"
         transform="translate(-263.86,-379.60081)"
         id="path297" /></clipPath><clipPath
       clipPathUnits="userSpaceOnUse"
       id="clipPath299"><path
         d="M 0,500 H 500 V 0 H 0 Z"
         transform="translate(-245.29951,-379.20231)"
         id="path299" /></clipPath><clipPath
       clipPathUnits="userSpaceOnUse"
       id="clipPath301"><path
         d="M 0,500 H 500 V 0 H 0 Z"
         transform="translate(-241.9879,-381.27901)"
         id="path301" /></clipPath><clipPath
       clipPathUnits="userSpaceOnUse"
       id="clipPath303"><path
         d="M 0,500 H 500 V 0 H 0 Z"
         transform="translate(-236.44251,-379.60081)"
         id="path303" /></clipPath><clipPath
       clipPathUnits="userSpaceOnUse"
       id="clipPath305"><path
         d="M 0,500 H 500 V 0 H 0 Z"
         transform="translate(-246.96501,-371.19891)"
         id="path305" /></clipPath><clipPath
       clipPathUnits="userSpaceOnUse"
       id="clipPath307"><path
         d="M 0,500 H 500 V 0 H 0 Z"
         transform="translate(-250.34491,-364.23501)"
         id="path307" /></clipPath><clipPath
       clipPathUnits="userSpaceOnUse"
       id="clipPath309"><path
         d="M 0,500 H 500 V 0 H 0 Z"
         transform="translate(-247.2121,-362.64571)"
         id="path309" /></clipPath><clipPath
       clipPathUnits="userSpaceOnUse"
       id="clipPath311"><path
         d="M 0,500 H 500 V 0 H 0 Z"
         transform="translate(-199.2516,-278.98901)"
         id="path311" /></clipPath><clipPath
       clipPathUnits="userSpaceOnUse"
       id="clipPath313"><path
         d="M 0,500 H 500 V 0 H 0 Z"
         transform="translate(-210.14271,-273.27611)"
         id="path313" /></clipPath><clipPath
       clipPathUnits="userSpaceOnUse"
       id="clipPath315"><path
         d="M 0,500 H 500 V 0 H 0 Z"
         transform="translate(-186.4962,-289.99041)"
         id="path315" /></clipPath><clipPath
       clipPathUnits="userSpaceOnUse"
       id="clipPath317"><path
         d="M 0,500 H 500 V 0 H 0 Z"
         transform="translate(-199.08171,-305.49091)"
         id="path317" /></clipPath><clipPath
       clipPathUnits="userSpaceOnUse"
       id="clipPath319"><path
         d="M 0,500 H 500 V 0 H 0 Z"
         transform="translate(-201.99721,-293.55581)"
         id="path319" /></clipPath><clipPath
       clipPathUnits="userSpaceOnUse"
       id="clipPath321"><path
         d="M 0,500 H 500 V 0 H 0 Z"
         transform="translate(-207.7453,-312.38981)"
         id="path321" /></clipPath><clipPath
       clipPathUnits="userSpaceOnUse"
       id="clipPath323"><path
         d="M 0,500 H 500 V 0 H 0 Z"
         transform="translate(-301.27701,-278.98901)"
         id="path323" /></clipPath><clipPath
       clipPathUnits="userSpaceOnUse"
       id="clipPath325"><path
         d="M 0,500 H 500 V 0 H 0 Z"
         transform="translate(-290.3854,-273.27611)"
         id="path325" /></clipPath><clipPath
       clipPathUnits="userSpaceOnUse"
       id="clipPath327"><path
         d="M 0,500 H 500 V 0 H 0 Z"
         transform="translate(-314.03191,-289.99041)"
         id="path327" /></clipPath><clipPath
       clipPathUnits="userSpaceOnUse"
       id="clipPath329"><path
         d="M 0,500 H 500 V 0 H 0 Z"
         transform="translate(-289.6774,-328.31021)"
         id="path329" /></clipPath><clipPath
       clipPathUnits="userSpaceOnUse"
       id="clipPath331"><path
         d="M 0,500 H 500 V 0 H 0 Z"
         transform="translate(-301.44691,-305.49091)"
         id="path331" /></clipPath><clipPath
       clipPathUnits="userSpaceOnUse"
       id="clipPath333"><path
         d="M 0,500 H 500 V 0 H 0 Z"
         transform="translate(-292.99771,-312.81461)"
         id="path333" /></clipPath><clipPath
       clipPathUnits="userSpaceOnUse"
       id="clipPath335"><path
         d="M 0,500 H 500 V 0 H 0 Z"
         transform="translate(-298.5319,-293.55581)"
         id="path335" /></clipPath><clipPath
       clipPathUnits="userSpaceOnUse"
       id="clipPath337"><path
         d="M 0,500 H 500 V 0 H 0 Z"
         transform="translate(-286.79941,-290.4567)"
         id="path337" /></clipPath><clipPath
       clipPathUnits="userSpaceOnUse"
       id="clipPath339"><path
         d="M 0,500 H 500 V 0 H 0 Z"
         transform="translate(-286.9762,-320.99581)"
         id="path339" /></clipPath><clipPath
       clipPathUnits="userSpaceOnUse"
       id="clipPath341"><path
         d="M 0,500 H 500 V 0 H 0 Z"
         transform="translate(-287.05731,-321.00071)"
         id="path341" /></clipPath><clipPath
       clipPathUnits="userSpaceOnUse"
       id="clipPath343"><path
         d="M 0,500 H 500 V 0 H 0 Z"
         transform="translate(-219.95911,-288.1725)"
         id="path343" /></clipPath><clipPath
       clipPathUnits="userSpaceOnUse"
       id="clipPath345"><path
         d="M 0,500 H 500 V 0 H 0 Z"
         transform="translate(-260.92051,-340.13641)"
         id="path345" /></clipPath><clipPath
       clipPathUnits="userSpaceOnUse"
       id="clipPath347"><path
         d="M 0,500 H 500 V 0 H 0 Z"
         transform="translate(-225.9142,-313.92161)"
         id="path347" /></clipPath><clipPath
       clipPathUnits="userSpaceOnUse"
       id="clipPath349"><path
         d="M 0,500 H 500 V 0 H 0 Z"
         transform="translate(-237.86781,-284.0373)"
         id="path349" /></clipPath><clipPath
       clipPathUnits="userSpaceOnUse"
       id="clipPath351"><path
         d="M 0,500 H 500 V 0 H 0 Z"
         transform="translate(-273.5074,-303.62811)"
         id="path351" /></clipPath><clipPath
       clipPathUnits="userSpaceOnUse"
       id="clipPath353"><path
         d="M 0,500 H 500 V 0 H 0 Z"
         transform="translate(-255.57681,-308.16621)"
         id="path353" /></clipPath><clipPath
       clipPathUnits="userSpaceOnUse"
       id="clipPath355"><path
         d="M 0,500 H 500 V 0 H 0 Z"
         transform="translate(-279.26331,-331.85221)"
         id="path355" /></clipPath><clipPath
       clipPathUnits="userSpaceOnUse"
       id="clipPath357"><path
         d="M 0,500 H 500 V 0 H 0 Z"
         transform="translate(-225.9142,-330.30241)"
         id="path357" /></clipPath><clipPath
       clipPathUnits="userSpaceOnUse"
       id="clipPath359"><path
         d="M 0,500 H 500 V 0 H 0 Z"
         transform="translate(-266.4235,-282.26631)"
         id="path359" /></clipPath><clipPath
       clipPathUnits="userSpaceOnUse"
       id="clipPath361"><path
         d="M 0,500 H 500 V 0 H 0 Z"
         transform="translate(-227.02111,-294.55191)"
         id="path361" /></clipPath><clipPath
       clipPathUnits="userSpaceOnUse"
       id="clipPath363"><path
         d="M 0,500 H 500 V 0 H 0 Z"
         transform="translate(-269.96551,-320.00901)"
         id="path363" /></clipPath><clipPath
       clipPathUnits="userSpaceOnUse"
       id="clipPath365"><path
         d="M 0,500 H 500 V 0 H 0 Z"
         transform="translate(-245.173,-319.34491)"
         id="path365" /></clipPath><clipPath
       clipPathUnits="userSpaceOnUse"
       id="clipPath367"><path
         d="M 0,500 H 500 V 0 H 0 Z"
         transform="translate(-253.58461,-279.27801)"
         id="path367" /></clipPath></defs><g
     id="layer-MC1"
     inkscape:groupmode="layer"
     inkscape:label="OBJECTS"
     transform="matrix(0.26458333,0,0,0.26458334,186.46018,-173.88206)"><path
       id="path256"
       d="m 0,0 c 0,33.479 27.14,60.618 60.618,60.618 33.478,0 60.618,-27.139 60.618,-60.618 0,-33.478 -27.14,-60.618 -60.618,-60.618 C 27.14,-60.618 0,-33.478 0,0"
       style="fill:#ffce33;fill-opacity:1;fill-rule:nonzero;stroke:none"
       transform="matrix(1.3333333,0,0,-1.3333333,-704.73137,738.01599)"
       clip-path="url(#clipPath257)"
       inkscape:export-filename="neha.svg"
       inkscape:export-xdpi="96"
       inkscape:export-ydpi="96" /><path
       id="path258"
       d="m 0,0 c 2.3,1.947 2.1,5.246 0.905,8.012 -1.194,2.766 -4.306,4.57 -7.301,4.231 2.403,1.686 2.079,5.138 0.716,7.737 -1.362,2.6 -4.77,3.912 -7.523,2.896 2.56,2.042 2.645,5.417 0.983,8.24 -0.694,1.18 -1.775,2.088 -3.016,2.659 -0.702,2.712 -2.265,5.201 -4.532,6.854 -1.821,1.327 -4.017,2.049 -6.26,2.203 -2.609,1.764 -5.935,2.792 -8.715,1.431 -7.885,2.832 -17.365,0.489 -23.024,-5.691 -0.948,-1.036 -1.822,-2.226 -2.053,-3.613 -0.23,-1.385 0.362,-2.991 1.655,-3.539 -3.516,1.712 -6.632,0.374 -9.327,-2.462 -2.694,-2.834 -3.289,-7.453 -1.4,-10.878 -3.021,-0.1 -5.455,-3.649 -6.169,-6.586 -0.713,-2.936 0.738,-6.263 3.375,-7.738 -3.724,-0.381 -5.103,-5.501 -3.98,-9.072 0.736,-2.339 3.015,-3.944 5.419,-4.27 -2.065,-1.025 -3.905,-2.992 -4.748,-4.926 -1.335,-3.063 -0.256,-6.988 2.456,-8.94 2.712,-1.952 6.778,-1.726 9.257,0.514 -0.847,-2.346 0.907,-5.53 3.127,-6.666 2.22,-1.135 4.944,-0.889 7.246,0.068 2.303,0.957 4.273,2.552 6.207,4.125 -0.799,-0.478 0.39,-1.684 0.746,-2.545 0.357,-0.86 1.133,-1.475 1.94,-1.939 4.49,-2.58 10.871,-1.057 13.712,3.272 -0.146,-3.092 2.232,-5.99 5.325,-6.079 3.095,-0.088 5.979,2.686 6.009,5.782 1.992,-2.998 5.655,-3.768 8.495,-1.558 2.841,2.21 3.25,6.915 0.834,9.582 2.62,-2.336 7.199,-3.755 9.362,-0.991 2.164,2.764 1.462,7.304 -1.436,9.285 3.232,-0.689 6.977,0.577 7.396,3.854 C 6.1,-3.47 3.301,-0.146 0,0"
       style="fill:#2e2e2e;fill-opacity:1;fill-rule:nonzero;stroke:none"
       transform="matrix(1.3333333,0,0,-1.3333333,-560.86349,751.462)"
       clip-path="url(#clipPath259)" /><path
       id="path260"
       d="m 0,0 c 0.217,-6.616 -4.971,-12.103 -11.442,-12.103 -6.337,0 -11.443,5.261 -11.443,11.714 0,0.127 0,0.263 0.009,0.389 l 1.274,17.472 0.163,2.25 0.795,10.856 h 18.403 l 0.822,-11.263 0.181,-2.458 z"
       style="fill:#f5f5ff;fill-opacity:1;fill-rule:nonzero;stroke:#2e2e2e;stroke-width:0.5;stroke-linecap:round;stroke-linejoin:round;stroke-miterlimit:10;stroke-dasharray:none;stroke-opacity:1"
       transform="matrix(1.3333333,0,0,-1.3333333,-595.22549,801.5076)"
       clip-path="url(#clipPath261)" /><path
       id="path262"
       d="m 0,0 c -5.8,-0.71 -12.34,2.08 -16.77,7.74 -1.8,2.29 -3.05,4.81 -3.77,7.36 l 0.52,7.05 h 18.4 L -0.8,10.89 -0.61,8.43 Z"
       style="fill:#2e2e2e;fill-opacity:1;fill-rule:nonzero;stroke:none"
       transform="matrix(1.3333333,0,0,-1.3333333,-595.95456,789.93733)"
       clip-path="url(#clipPath263)" /><path
       id="path264"
       d="m 0,0 c -2.312,-3.713 -2.089,-8.111 0.499,-9.824 2.587,-1.712 6.559,-0.091 8.87,3.622 2.312,3.713 2.089,8.111 -0.499,9.824 C 6.283,5.334 2.312,3.713 0,0"
       style="fill:#f5f5ff;fill-opacity:1;fill-rule:nonzero;stroke:#2e2e2e;stroke-width:0.5;stroke-linecap:round;stroke-linejoin:round;stroke-miterlimit:10;stroke-dasharray:none;stroke-opacity:1"
       transform="matrix(1.3333333,0,0,-1.3333333,-587.77629,738.71853)"
       clip-path="url(#clipPath265)" /><path
       id="path266"
       d="M 0,0 C 1.121,-0.437 1.973,-1.501 2.153,-2.691 2.335,-3.88 1.84,-5.15 0.9,-5.902"
       style="fill:none;stroke:#2e2e2e;stroke-width:0.5;stroke-linecap:round;stroke-linejoin:round;stroke-miterlimit:10;stroke-dasharray:none;stroke-opacity:1"
       transform="matrix(1.3333333,0,0,-1.3333333,-578.54443,736.26613)"
       clip-path="url(#clipPath267)" /><path
       id="path268"
       d="m 0,0 c 2.312,-3.713 2.088,-8.111 -0.499,-9.824 -2.587,-1.712 -6.559,-0.091 -8.871,3.622 -2.311,3.713 -2.088,8.111 0.499,9.824 C -6.283,5.334 -2.312,3.713 0,0"
       style="fill:#f5f5ff;fill-opacity:1;fill-rule:nonzero;stroke:#2e2e2e;stroke-width:0.5;stroke-linecap:round;stroke-linejoin:round;stroke-miterlimit:10;stroke-dasharray:none;stroke-opacity:1"
       transform="matrix(1.3333333,0,0,-1.3333333,-633.38629,738.71853)"
       clip-path="url(#clipPath269)" /><path
       id="path270"
       d="M 0,0 C -1.121,-0.437 -1.972,-1.501 -2.153,-2.691 -2.335,-3.88 -1.839,-5.15 -0.9,-5.902"
       style="fill:none;stroke:#2e2e2e;stroke-width:0.5;stroke-linecap:round;stroke-linejoin:round;stroke-miterlimit:10;stroke-dasharray:none;stroke-opacity:1"
       transform="matrix(1.3333333,0,0,-1.3333333,-642.61869,736.26613)"
       clip-path="url(#clipPath271)" /><path
       id="path272"
       d="M 0,0 C 0,-0.342 0,-0.672 -0.025,-0.984 -0.063,-1.956 -0.151,-2.928 -0.29,-3.877 l -0.146,-1.361 -0.069,-0.737 -0.107,-1.066 c -0.063,-0.648 -0.108,-1.284 -0.152,-1.921 -0.025,-0.406 -0.049,-0.807 -0.075,-1.207 -0.101,-1.615 -0.196,-3.206 -0.435,-4.796 0,-0.024 -0.013,-0.054 -0.013,-0.077 -0.051,-0.301 -0.102,-0.607 -0.164,-0.908 -0.064,-0.329 -0.126,-0.654 -0.221,-0.972 -0.114,-0.477 -0.253,-0.96 -0.417,-1.449 -0.051,-0.177 -0.113,-0.342 -0.182,-0.519 -0.127,-0.353 -0.278,-0.707 -0.429,-1.072 -0.424,-0.931 -0.922,-1.844 -1.496,-2.751 -2.392,-3.783 -6.052,-7.242 -9.725,-9.539 -0.013,-0.024 -0.038,-0.036 -0.051,-0.036 -0.448,-0.289 -0.895,-0.554 -1.338,-0.795 -4.473,-2.475 -9.768,-2.61 -14.407,-0.478 -0.959,0.442 -1.887,0.943 -2.782,1.538 -0.013,0 -0.026,0 -0.038,0.023 -3.553,2.299 -6.601,5.627 -8.898,9.287 -0.164,0.253 -0.316,0.506 -0.474,0.771 -0.075,0.136 -0.151,0.277 -0.227,0.413 -0.126,0.23 -0.252,0.471 -0.384,0.707 -0.367,0.63 -0.688,1.29 -0.979,1.932 -0.076,0.177 -0.164,0.354 -0.233,0.542 -1.08,2.575 -1.464,5.451 -1.717,8.279 -0.044,0.442 -0.082,0.889 -0.119,1.331 -0.045,0.495 -0.089,0.99 -0.127,1.479 l -0.126,1.326 c -0.032,0.147 -0.057,0.288 -0.082,0.43 -0.038,0.159 -0.063,0.318 -0.082,0.477 -0.114,0.607 -0.202,1.214 -0.272,1.844 -0.113,1.019 -0.176,2.092 -0.176,3.182 0,0.088 0,0.188 0.013,0.277 0,0.683 0.031,1.355 0.088,2.021 0.05,0.565 0.126,1.125 0.221,1.673 0.53,3.359 1.716,6.481 3.433,9.221 0.429,0.689 0.889,1.349 1.382,1.986 4.903,6.342 13.283,10.032 21.85,8.652 6.852,-1.104 12.416,-5.327 15.76,-10.756 0.102,-0.141 0.184,-0.288 0.285,-0.448 1.502,-2.586 2.575,-5.485 3.073,-8.59 0,-0.024 0.013,-0.041 0.013,-0.065 C -0.227,3.423 -0.157,2.863 -0.107,2.298 -0.044,1.632 -0.013,0.96 -0.013,0.277 0,0.188 0,0.088 0,0"
       style="fill:#f5f5ff;fill-opacity:1;fill-rule:nonzero;stroke:#2e2e2e;stroke-width:0.509;stroke-linecap:round;stroke-linejoin:round;stroke-miterlimit:10;stroke-dasharray:none;stroke-opacity:1"
       transform="matrix(1.3333333,0,0,-1.3333333,-579.79963,729.4608)"
       clip-path="url(#clipPath273)" /><path
       id="path274"
       d="m 0,0 c 2.458,-2.254 3.06,-6.132 1.393,-8.968 -1.668,-2.837 -5.453,-4.371 -8.754,-3.55 1.024,-1.533 0.22,-3.884 -0.882,-5.367 -1.102,-1.483 -3.183,-2.237 -5.04,-1.826 1.572,-4.895 -1.635,-10.635 -6.288,-13.193 1.259,-2.428 0.585,-6.3 -0.742,-8.693 -1.328,-2.394 -3.905,-4.119 -6.718,-4.495 1.86,-2.093 2.518,-5.437 1.536,-8.015 -0.983,-2.578 -3.484,-4.573 -6.319,-5.04 -2.314,-0.382 -5.847,0.211 -6.854,2.233 -1.007,2.021 -0.362,4.668 1.478,6.059 -1.065,2.17 -1.723,4.201 -1.857,6.594 -0.167,2.967 0.448,6.033 2.151,8.523 1.704,2.488 4.577,4.324 7.69,4.476 -2.686,3.812 -3.349,8.345 -1.391,12.541 1.958,4.196 6.276,7.308 11.046,7.961 -0.048,2.625 0.967,5.155 3.098,6.819 2.132,1.663 5.077,2.336 7.767,1.773 0.692,1.574 3.166,2.501 4.934,2.776 1.767,0.274 3.661,-0.375 4.842,-1.659"
       style="fill:#2e2e2e;fill-opacity:1;fill-rule:nonzero;stroke:none"
       transform="matrix(1.3333333,0,0,-1.3333333,-606.90509,693.26213)"
       clip-path="url(#clipPath275)" /><path
       id="path276"
       d="m 0,0 c -1.804,-3.155 -1.701,-7.307 0.257,-10.369 1.957,-3.062 5.683,-4.898 9.304,-4.585 -1.686,-1.878 -1.395,-4.985 0.174,-6.961 1.57,-1.975 4.618,-2.587 6.827,-1.371 -1.129,-0.949 -2.284,-2.381 -2.39,-3.854 -0.107,-1.471 0.737,-3.053 2.143,-3.501 1.407,-0.446 3.174,0.613 3.186,2.089 0.032,4.153 2.576,8.057 1.179,11.968 -1.399,3.911 -4.544,7.159 -8.408,8.684 C 10.895,-2.554 5.52,0.074 0,0"
       style="fill:#2e2e2e;fill-opacity:1;fill-rule:nonzero;stroke:none"
       transform="matrix(1.3333333,0,0,-1.3333333,-604.15643,694.83053)"
       clip-path="url(#clipPath277)" /><path
       id="path278"
       d="m 0,0 c 0,4.502 3.65,8.152 8.153,8.152 4.503,0 8.153,-3.65 8.153,-8.152 0,-4.503 -3.65,-8.153 -8.153,-8.153 C 3.65,-8.153 0,-4.503 0,0 Z"
       style="fill:none;stroke:#2e2e2e;stroke-width:0.5;stroke-linecap:round;stroke-linejoin:round;stroke-miterlimit:10;stroke-dasharray:none;stroke-opacity:1"
       transform="matrix(1.3333333,0,0,-1.3333333,-636.10696,741.61893)"
       clip-path="url(#clipPath279)" /><path
       id="path280"
       d="m 0,0 c 0,4.502 3.649,8.152 8.152,8.152 4.503,0 8.154,-3.65 8.154,-8.152 0,-4.503 -3.651,-8.153 -8.154,-8.153 C 3.649,-8.153 0,-4.503 0,0 Z"
       style="fill:none;stroke:#2e2e2e;stroke-width:0.5;stroke-linecap:round;stroke-linejoin:round;stroke-miterlimit:10;stroke-dasharray:none;stroke-opacity:1"
       transform="matrix(1.3333333,0,0,-1.3333333,-606.17989,741.61893)"
       clip-path="url(#clipPath281)" /><path
       id="path282"
       d="m 0,0 c 0.901,0.524 1.948,0.825 3.065,0.825 1.133,0 2.194,-0.309 3.103,-0.847"
       style="fill:none;stroke:#2e2e2e;stroke-width:0.5;stroke-linecap:round;stroke-linejoin:round;stroke-miterlimit:10;stroke-dasharray:none;stroke-opacity:1"
       transform="matrix(1.3333333,0,0,-1.3333333,-614.36016,740.33773)"
       clip-path="url(#clipPath283)" /><path
       id="path284"
       d="M 0,0 -4.611,6.14"
       style="fill:none;stroke:#2e2e2e;stroke-width:0.5;stroke-linecap:round;stroke-linejoin:round;stroke-miterlimit:10;stroke-dasharray:none;stroke-opacity:1"
       transform="matrix(1.3333333,0,0,-1.3333333,-636.10696,741.61893)"
       clip-path="url(#clipPath285)" /><path
       id="path286"
       d="M 0,0 4.61,6.14"
       style="fill:none;stroke:#2e2e2e;stroke-width:0.5;stroke-linecap:round;stroke-linejoin:round;stroke-miterlimit:10;stroke-dasharray:none;stroke-opacity:1"
       transform="matrix(1.3333333,0,0,-1.3333333,-584.63949,741.61893)"
       clip-path="url(#clipPath287)" /><path
       id="path288"
       d="M 0,0 C 0.472,1.147 1.409,1.993 2.448,2.577 3.499,3.155 4.69,3.47 5.895,3.51 7.101,3.551 8.307,3.31 9.391,2.805 10.464,2.294 11.452,1.521 12.016,0.414 L 8.804,0.501 C 7.831,0.52 6.906,0.515 5.989,0.489 5.073,0.46 4.152,0.408 3.187,0.326 2.211,0.248 1.22,0.137 0,0"
       style="fill:#2e2e2e;fill-opacity:1;fill-rule:nonzero;stroke:none"
       transform="matrix(1.3333333,0,0,-1.3333333,-605.14989,730.59093)"
       clip-path="url(#clipPath289)" /><path
       id="path290"
       d="M 0,0 C -1.22,0.137 -2.211,0.248 -3.187,0.326 -4.153,0.408 -5.074,0.46 -5.99,0.489 -6.907,0.515 -7.831,0.52 -8.804,0.501 l -3.212,-0.087 c 0.563,1.107 1.552,1.88 2.625,2.391 1.084,0.505 2.29,0.746 3.495,0.705 C -4.691,3.47 -3.5,3.155 -2.449,2.577 -1.409,1.993 -0.472,1.147 0,0"
       style="fill:#2e2e2e;fill-opacity:1;fill-rule:nonzero;stroke:none"
       transform="matrix(1.3333333,0,0,-1.3333333,-615.59656,730.59093)"
       clip-path="url(#clipPath291)" /><path
       id="path292"
       d="M 0,0 C 0.217,0.482 0.459,0.95 0.687,1.425 L 0.706,1.454 C 1.277,2.312 1.993,3.14 2.951,3.682 3.89,4.24 5.02,4.522 6.115,4.454 7.205,4.399 8.278,4.073 9.202,3.51 9.664,3.232 10.085,2.899 10.474,2.54 10.861,2.187 11.209,1.756 11.352,1.234 L 11.354,1.225 C 11.389,1.098 11.313,0.966 11.187,0.932 11.132,0.917 11.075,0.922 11.027,0.943 10.513,1.169 10.178,1.467 9.806,1.76 9.437,2.048 9.045,2.297 8.637,2.505 7.829,2.93 6.942,3.174 6.044,3.246 5.15,3.318 4.259,3.158 3.448,2.763 2.643,2.361 1.915,1.749 1.291,1.022 L 1.31,1.05 C 0.997,0.625 0.697,0.193 0.373,-0.225 0.299,-0.32 0.161,-0.337 0.065,-0.263 -0.017,-0.2 -0.041,-0.09 0,0"
       style="fill:#2e2e2e;fill-opacity:1;fill-rule:nonzero;stroke:none"
       transform="matrix(1.3333333,0,0,-1.3333333,-604.40123,741.38853)"
       clip-path="url(#clipPath293)" /><path
       id="path294"
       d="M 0,0 C 0.072,1.013 0.953,1.775 1.966,1.702 2.979,1.629 3.741,0.749 3.668,-0.264 3.595,-1.277 2.715,-2.039 1.701,-1.966 0.688,-1.893 -0.073,-1.013 0,0"
       style="fill:#2e2e2e;fill-opacity:1;fill-rule:nonzero;stroke:none"
       transform="matrix(1.3333333,0,0,-1.3333333,-599.48843,738.91907)"
       clip-path="url(#clipPath295)" /><path
       id="path296"
       d="M 0,0 C 0.676,0.151 1.317,0.458 1.857,0.891"
       style="fill:none;stroke:#2e2e2e;stroke-width:0.5;stroke-linecap:round;stroke-linejoin:round;stroke-miterlimit:10;stroke-dasharray:none;stroke-opacity:1"
       transform="matrix(1.3333333,0,0,-1.3333333,-592.09523,741.15667)"
       clip-path="url(#clipPath297)" /><path
       id="path298"
       d="M 0,0 C -0.325,0.417 -0.624,0.85 -0.937,1.275 L -0.918,1.247 C -1.542,1.974 -2.27,2.586 -3.076,2.988 -3.886,3.382 -4.778,3.542 -5.671,3.47 -6.57,3.398 -7.457,3.154 -8.264,2.73 -8.672,2.521 -9.064,2.272 -9.433,1.985 -9.805,1.692 -10.14,1.394 -10.655,1.168 c -0.12,-0.053 -0.262,0.002 -0.315,0.123 -0.023,0.052 -0.025,0.108 -0.011,0.159 l 0.002,0.009 c 0.143,0.522 0.49,0.953 0.878,1.305 0.388,0.36 0.809,0.693 1.271,0.971 0.925,0.562 1.998,0.889 3.087,0.943 1.096,0.069 2.226,-0.214 3.165,-0.771 0.957,-0.542 1.673,-1.371 2.245,-2.229 L -0.314,1.649 C -0.086,1.174 0.156,0.707 0.373,0.225 0.423,0.114 0.374,-0.016 0.263,-0.065 0.169,-0.108 0.061,-0.078 0,0"
       style="fill:#2e2e2e;fill-opacity:1;fill-rule:nonzero;stroke:none"
       transform="matrix(1.3333333,0,0,-1.3333333,-616.84256,741.688)"
       clip-path="url(#clipPath299)" /><path
       id="path300"
       d="M 0,0 C -0.073,1.013 -0.953,1.775 -1.966,1.702 -2.979,1.629 -3.741,0.749 -3.668,-0.264 -3.595,-1.277 -2.715,-2.039 -1.702,-1.966 -0.689,-1.893 0.073,-1.013 0,0"
       style="fill:#2e2e2e;fill-opacity:1;fill-rule:nonzero;stroke:none"
       transform="matrix(1.3333333,0,0,-1.3333333,-621.25803,738.91907)"
       clip-path="url(#clipPath301)" /><path
       id="path302"
       d="M 0,0 C -0.676,0.151 -1.317,0.458 -1.857,0.891"
       style="fill:none;stroke:#2e2e2e;stroke-width:0.5;stroke-linecap:round;stroke-linejoin:round;stroke-miterlimit:10;stroke-dasharray:none;stroke-opacity:1"
       transform="matrix(1.3333333,0,0,-1.3333333,-628.65189,741.15667)"
       clip-path="url(#clipPath303)" /><path
       id="path304"
       d="M 0,0 C 0.765,0.984 1.964,1.587 3.179,1.597 4.394,1.607 5.599,1.024 6.373,0.053"
       style="fill:none;stroke:#2e2e2e;stroke-width:0.464;stroke-linecap:round;stroke-linejoin:round;stroke-miterlimit:10;stroke-dasharray:none;stroke-opacity:1"
       transform="matrix(1.3333333,0,0,-1.3333333,-614.62189,752.3592)"
       clip-path="url(#clipPath305)" /><path
       id="path306"
       d="m 0,0 c 0.819,0.005 1.638,0.057 2.451,0.156 0.249,0.031 2.683,0.365 2.666,0.518 0,0 -1.254,0.963 -1.689,1.333 L 3.235,2.179 C 2.768,2.596 2.287,3.028 1.68,3.246 1.086,3.449 0.293,3.36 -0.165,2.839 -0.61,3.372 -1.4,3.483 -2.002,3.295 -2.611,3.095 -3.104,2.676 -3.582,2.272 L -3.777,2.106 C -4.223,1.75 -5.503,0.818 -5.503,0.818 -5.521,0.619 -3.405,0.253 -3.163,0.218 -2.271,0.088 -1.37,0.017 -0.469,0.002 -0.313,0 -0.156,-0.001 0,0"
       style="fill:#2e2e2e;fill-opacity:1;fill-rule:nonzero;stroke:none"
       transform="matrix(1.3333333,0,0,-1.3333333,-610.11536,761.6444)"
       clip-path="url(#clipPath307)" /><path
       id="path308"
       d="M 0,0 C 1.845,-1.094 4.272,-1.129 6.148,-0.088"
       style="fill:#f5f5ff;fill-opacity:1;fill-rule:nonzero;stroke:#2e2e2e;stroke-width:0.509;stroke-linecap:round;stroke-linejoin:round;stroke-miterlimit:10;stroke-dasharray:none;stroke-opacity:1"
       transform="matrix(1.3333333,0,0,-1.3333333,-614.29243,763.76347)"
       clip-path="url(#clipPath309)" /><path
       id="path310"
       d="M 0,0 C 8.122,-3.665 15.536,-4.794 16.561,-2.523 17.585,-0.252 11.833,4.56 3.711,8.225 -4.41,11.889 -11.824,13.019 -12.849,10.748 -13.874,8.476 -8.121,3.665 0,0"
       style="fill:#2e2e2e;fill-opacity:1;fill-rule:nonzero;stroke:none"
       transform="matrix(1.3333333,0,0,-1.3333333,-678.23976,875.30573)"
       clip-path="url(#clipPath311)" /><path
       id="path312"
       d="m 0,0 8.24,19.59 1.36,3.25 2.25,5.35 1.49,3.54 2.53,6.04 2.18,5.18 c 3.02,7.19 0.15,15.19 -6.23,17.43 -1.11,0.39 -2.26,0.58 -3.39,0.58 -1.01,0 -2.01,-0.15 -2.99,-0.43 -3.95,-1.11 -7.47,-4.4 -9.08,-8.99 L -8.4,37.94 -10.76,31.2 -21.58,0.29 C -21.61,0.19 -21.65,0.1 -21.68,0"
       style="fill:#f5f5ff;fill-opacity:1;fill-rule:nonzero;stroke:#2e2e2e;stroke-width:0.5;stroke-linecap:round;stroke-linejoin:round;stroke-miterlimit:10;stroke-dasharray:none;stroke-opacity:1"
       transform="matrix(1.3333333,0,0,-1.3333333,-663.71829,882.92293)"
       clip-path="url(#clipPath313)" /><path
       id="path314"
       d="m 0,0 c 1.501,1.896 8.615,0.702 16.381,-2.793 8.123,-3.668 13.883,-8.48 12.849,-10.757 -0.024,-0.05 -0.049,-0.087 -0.085,-0.136 l 0.085,-0.037 17.556,41.795 c 3.52,8.258 -0.284,17.673 -8.284,20.467 -1.513,0.529 -3.052,0.788 -4.59,0.788 -5.477,0 -10.732,-3.249 -13.428,-8.517 z"
       style="fill:#2e2e2e;fill-opacity:1;fill-rule:nonzero;stroke:none"
       transform="matrix(1.3333333,0,0,-1.3333333,-695.24696,860.6372)"
       clip-path="url(#clipPath315)" /><path
       id="path316"
       d="M 0,0 C 0,-0.561 0.455,-1.015 1.015,-1.015 1.576,-1.015 2.03,-0.561 2.03,0 2.03,0.561 1.576,1.015 1.015,1.015 0.455,1.015 0,0.561 0,0"
       style="fill:#f5f5ff;fill-opacity:1;fill-rule:nonzero;stroke:none"
       transform="matrix(1.3333333,0,0,-1.3333333,-678.46629,839.96987)"
       clip-path="url(#clipPath317)" /><path
       id="path318"
       d="m 0,0 c 0,-0.794 0.644,-1.438 1.439,-1.438 0.794,0 1.438,0.644 1.438,1.438 0,0.795 -0.644,1.439 -1.438,1.439 C 0.644,1.439 0,0.795 0,0"
       style="fill:#f5f5ff;fill-opacity:1;fill-rule:nonzero;stroke:none"
       transform="matrix(1.3333333,0,0,-1.3333333,-674.57896,855.88333)"
       clip-path="url(#clipPath319)" /><path
       id="path320"
       d="m 0,0 c 0,-0.672 -0.545,-1.218 -1.217,-1.218 -0.673,0 -1.218,0.546 -1.218,1.218 0,0.672 0.545,1.217 1.218,1.217 C -0.545,1.217 0,0.672 0,0"
       style="fill:#f5f5ff;fill-opacity:1;fill-rule:nonzero;stroke:none"
       transform="matrix(1.3333333,0,0,-1.3333333,-666.91483,830.77133)"
       clip-path="url(#clipPath321)" /><path
       id="path322"
       d="m 0,0 c -8.121,-3.665 -15.536,-4.794 -16.561,-2.523 -1.025,2.271 4.728,7.083 12.849,10.748 8.122,3.664 15.536,4.794 16.561,2.523 C 13.874,8.476 8.121,3.665 0,0"
       style="fill:#2e2e2e;fill-opacity:1;fill-rule:nonzero;stroke:none"
       transform="matrix(1.3333333,0,0,-1.3333333,-542.20589,875.30573)"
       clip-path="url(#clipPath323)" /><path
       id="path324"
       d="m 0,0 -8.239,19.59 -1.361,3.25 -2.25,5.35 -1.49,3.54 -2.529,6.04 -2.181,5.18 c -3.019,7.19 -0.149,15.19 6.231,17.43 1.11,0.39 2.259,0.58 3.389,0.58 1.01,0 2.01,-0.15 2.991,-0.43 3.95,-1.11 7.469,-4.4 9.08,-8.99 L 8.4,37.94 10.761,31.2 21.58,0.29 C 21.61,0.19 21.65,0.1 21.681,0"
       style="fill:#f5f5ff;fill-opacity:1;fill-rule:nonzero;stroke:#2e2e2e;stroke-width:0.5;stroke-linecap:round;stroke-linejoin:round;stroke-miterlimit:10;stroke-dasharray:none;stroke-opacity:1"
       transform="matrix(1.3333333,0,0,-1.3333333,-556.72803,882.92293)"
       clip-path="url(#clipPath325)" /><path
       id="path326"
       d="m 0,0 c -1.501,1.896 -8.615,0.702 -16.381,-2.793 -8.123,-3.668 -13.883,-8.48 -12.849,-10.757 0.025,-0.05 0.049,-0.087 0.086,-0.136 l -0.086,-0.037 -17.555,41.795 c -3.52,8.258 0.283,17.673 8.283,20.467 1.514,0.529 3.052,0.788 4.591,0.788 5.476,0 10.731,-3.249 13.428,-8.517 z"
       style="fill:#2e2e2e;fill-opacity:1;fill-rule:nonzero;stroke:none"
       transform="matrix(1.3333333,0,0,-1.3333333,-525.19936,860.6372)"
       clip-path="url(#clipPath327)" /><path
       id="path328"
       d="m 0,0 c 0,-0.55 -0.446,-0.996 -0.997,-0.996 -0.55,0 -0.996,0.446 -0.996,0.996 0,0.55 0.446,0.996 0.996,0.996 C -0.446,0.996 0,0.55 0,0"
       style="fill:#f5f5ff;fill-opacity:1;fill-rule:nonzero;stroke:none"
       transform="matrix(1.3333333,0,0,-1.3333333,-557.67203,809.54413)"
       clip-path="url(#clipPath329)" /><path
       id="path330"
       d="m 0,0 c 0,-0.561 -0.454,-1.015 -1.015,-1.015 -0.56,0 -1.015,0.454 -1.015,1.015 0,0.561 0.455,1.015 1.015,1.015 C -0.454,1.015 0,0.561 0,0"
       style="fill:#f5f5ff;fill-opacity:1;fill-rule:nonzero;stroke:none"
       transform="matrix(1.3333333,0,0,-1.3333333,-541.97936,839.96987)"
       clip-path="url(#clipPath331)" /><path
       id="path332"
       d="m 0,0 c 0,-0.672 -0.545,-1.217 -1.218,-1.217 -0.673,0 -1.218,0.545 -1.218,1.217 0,0.672 0.545,1.218 1.218,1.218 C -0.545,1.218 0,0.672 0,0"
       style="fill:#f5f5ff;fill-opacity:1;fill-rule:nonzero;stroke:none"
       transform="matrix(1.3333333,0,0,-1.3333333,-553.24496,830.20493)"
       clip-path="url(#clipPath333)" /><path
       id="path334"
       d="m 0,0 c 0,-0.794 -0.645,-1.438 -1.439,-1.438 -0.795,0 -1.439,0.644 -1.439,1.438 0,0.795 0.644,1.439 1.439,1.439 C -0.645,1.439 0,0.795 0,0"
       style="fill:#f5f5ff;fill-opacity:1;fill-rule:nonzero;stroke:none"
       transform="matrix(1.3333333,0,0,-1.3333333,-545.86603,855.88333)"
       clip-path="url(#clipPath335)" /><path
       id="path336"
       d="m 0,0 c 0,-0.55 -0.446,-0.996 -0.996,-0.996 -0.551,0 -0.996,0.446 -0.996,0.996 0,0.55 0.445,0.997 0.996,0.997 C -0.446,0.997 0,0.55 0,0"
       style="fill:#f5f5ff;fill-opacity:1;fill-rule:nonzero;stroke:none"
       transform="matrix(1.3333333,0,0,-1.3333333,-561.50936,860.01547)"
       clip-path="url(#clipPath337)" /><path
       id="path338"
       d="m 0,0 -2.56,-12.24 c 0.51,-1.12 0.911,-2.3 1.18,-3.53 0.28,-1.28 0.43,-2.6 0.43,-3.96 0,-1.62 -0.21,-3.2 -0.62,-4.7 -0.34,-1.3 -0.82,-2.54 -1.43,-3.7 -1,-1.92 -2.32,-3.65 -3.91,-5.1 l -3.01,-14.49 h -54.17 l -3.01,14.9 c -1.09,1.06 -2.05,2.27 -2.85,3.58 -0.95,1.56 -1.68,3.27 -2.13,5.09 -0.35,1.41 -0.54,2.89 -0.54,4.42 0,1.55 0.2,3.06 0.56,4.5 0.23,0.91 0.52,1.79 0.87,2.64 L -73.73,0 c -1.09,4.64 -0.88,9.18 0.76,12.6 1.35,2.84 3.69,4.9 7.09,5.63 0.86,0.18 1.8,0.28 2.81,0.28 h 53.74 c 1,0 1.92,-0.1 2.76,-0.28 3.22,-0.7 5.27,-2.69 6.37,-5.42 C 1.21,9.36 1.11,4.73 0,0"
       style="fill:#2e2e2e;fill-opacity:1;fill-rule:nonzero;stroke:none"
       transform="matrix(1.3333333,0,0,-1.3333333,-561.27363,819.29667)"
       clip-path="url(#clipPath339)" /><path
       id="path340"
       d="m 0,0 c -0.376,-2.05 -0.723,-4.107 -1.128,-6.151 -0.393,-2.047 -0.782,-4.095 -1.206,-6.135 l -0.015,0.137 c 0.8,-1.758 1.334,-3.643 1.543,-5.569 0.202,-1.925 0.088,-3.878 -0.307,-5.769 -0.393,-1.894 -1.136,-3.703 -2.108,-5.362 -0.975,-1.662 -2.251,-3.128 -3.684,-4.387 1.373,1.331 2.516,2.873 3.434,4.529 0.919,1.66 1.549,3.462 1.93,5.309 0.743,3.7 0.314,7.617 -1.215,11.066 -0.02,0.044 -0.024,0.093 -0.015,0.137 0.427,2.04 0.889,4.072 1.347,6.106 C -0.979,-4.053 -0.475,-2.03 0,0"
       style="fill:#ffffff;fill-opacity:1;fill-rule:nonzero;stroke:none"
       transform="matrix(1.3333333,0,0,-1.3333333,-561.16549,819.29013)"
       clip-path="url(#clipPath341)" /><path
       id="path342"
       d="m 0,0 c -1.33,1.25 -2.509,2.684 -3.414,4.289 -0.898,1.605 -1.58,3.343 -1.952,5.154 -0.366,1.811 -0.479,3.677 -0.3,5.519 0.171,1.844 0.654,3.654 1.373,5.356 l -0.014,-0.132 c -0.838,4.201 -1.598,8.418 -2.318,12.642 0.974,-4.174 1.907,-8.355 2.763,-12.553 0.009,-0.045 0.003,-0.092 -0.013,-0.132 C -5.241,16.806 -5.634,13.073 -4.942,9.528 -4.593,7.759 -4.011,6.029 -3.166,4.424 -2.322,2.82 -1.269,1.318 0,0"
       style="fill:#ffffff;fill-opacity:1;fill-rule:nonzero;stroke:none"
       transform="matrix(1.3333333,0,0,-1.3333333,-650.62976,863.06107)"
       clip-path="url(#clipPath343)" /><path
       id="path344"
       d="m 0,0 5.445,-0.816 c -2.42,-6.281 -8.63,-11.13 -15.409,-11.42 -7.281,-0.321 -14.361,4.659 -16.931,11.42 l 5.294,1.265"
       style="fill:#f5f5ff;fill-opacity:1;fill-rule:nonzero;stroke:#2e2e2e;stroke-width:0.5;stroke-linecap:round;stroke-linejoin:round;stroke-miterlimit:10;stroke-dasharray:none;stroke-opacity:1"
       transform="matrix(1.3333333,0,0,-1.3333333,-596.01456,793.77587)"
       clip-path="url(#clipPath345)" /><path
       id="path346"
       d="m 0,0 c 0,-0.672 -0.545,-1.217 -1.218,-1.217 -0.672,0 -1.217,0.545 -1.217,1.217 0,0.672 0.545,1.218 1.217,1.218 C -0.545,1.218 0,0.672 0,0"
       style="fill:#f5f5ff;fill-opacity:1;fill-rule:nonzero;stroke:none"
       transform="matrix(1.3333333,0,0,-1.3333333,-642.68963,828.72893)"
       clip-path="url(#clipPath347)" /><path
       id="path348"
       d="m 0,0 c 0,-1.284 -1.041,-2.324 -2.324,-2.324 -1.284,0 -2.324,1.04 -2.324,2.324 0,1.284 1.04,2.324 2.324,2.324 C -1.041,2.324 0,1.284 0,0"
       style="fill:#f5f5ff;fill-opacity:1;fill-rule:nonzero;stroke:none"
       transform="matrix(1.3333333,0,0,-1.3333333,-626.75149,868.57467)"
       clip-path="url(#clipPath349)" /><path
       id="path350"
       d="m 0,0 c 0,-0.856 -0.693,-1.549 -1.55,-1.549 -0.855,0 -1.549,0.693 -1.549,1.549 0,0.856 0.694,1.549 1.549,1.549 C -0.693,1.549 0,0.856 0,0"
       style="fill:#f5f5ff;fill-opacity:1;fill-rule:nonzero;stroke:none"
       transform="matrix(1.3333333,0,0,-1.3333333,-579.23203,842.4536)"
       clip-path="url(#clipPath351)" /><path
       id="path352"
       d="m 0,0 c 0,-1.773 -1.437,-3.21 -3.21,-3.21 -1.772,0 -3.209,1.437 -3.209,3.21 0,1.772 1.437,3.21 3.209,3.21 C -1.437,3.21 0,1.772 0,0"
       style="fill:#f5f5ff;fill-opacity:1;fill-rule:nonzero;stroke:none"
       transform="matrix(1.3333333,0,0,-1.3333333,-603.13949,836.4028)"
       clip-path="url(#clipPath353)" /><path
       id="path354"
       d="m 0,0 c 0,-0.672 -0.545,-1.218 -1.218,-1.218 -0.673,0 -1.218,0.546 -1.218,1.218 0,0.672 0.545,1.217 1.218,1.217 C -0.545,1.217 0,0.672 0,0"
       style="fill:#f5f5ff;fill-opacity:1;fill-rule:nonzero;stroke:none"
       transform="matrix(1.3333333,0,0,-1.3333333,-571.55749,804.82147)"
       clip-path="url(#clipPath355)" /><path
       id="path356"
       d="m 0,0 c 0,-1.284 -1.041,-2.324 -2.324,-2.324 -1.284,0 -2.325,1.04 -2.325,2.324 0,1.284 1.041,2.325 2.325,2.325 C -1.041,2.325 0,1.284 0,0"
       style="fill:#f5f5ff;fill-opacity:1;fill-rule:nonzero;stroke:none"
       transform="matrix(1.3333333,0,0,-1.3333333,-642.68963,806.88787)"
       clip-path="url(#clipPath357)" /><path
       id="path358"
       d="m 0,0 c 0,-1.039 -0.842,-1.881 -1.881,-1.881 -1.039,0 -1.882,0.842 -1.882,1.881 0,1.039 0.843,1.882 1.882,1.882 C -0.842,1.882 0,1.039 0,0"
       style="fill:#f5f5ff;fill-opacity:1;fill-rule:nonzero;stroke:none"
       transform="matrix(1.3333333,0,0,-1.3333333,-588.67723,870.936)"
       clip-path="url(#clipPath359)" /><path
       id="path360"
       d="m 0,0 c 0,-0.978 -0.793,-1.771 -1.771,-1.771 -0.978,0 -1.771,0.793 -1.771,1.771 0,0.979 0.793,1.771 1.771,1.771 C -0.793,1.771 0,0.979 0,0"
       style="fill:#f5f5ff;fill-opacity:1;fill-rule:nonzero;stroke:none"
       transform="matrix(1.3333333,0,0,-1.3333333,-641.21376,854.5552)"
       clip-path="url(#clipPath361)" /><path
       id="path362"
       d="m 0,0 c 0,-0.855 -0.693,-1.549 -1.549,-1.549 -0.856,0 -1.55,0.694 -1.55,1.549 0,0.856 0.694,1.55 1.55,1.55 C -0.693,1.55 0,0.856 0,0"
       style="fill:#f5f5ff;fill-opacity:1;fill-rule:nonzero;stroke:none"
       transform="matrix(1.3333333,0,0,-1.3333333,-583.95456,820.6124)"
       clip-path="url(#clipPath363)" /><path
       id="path364"
       d="m 0,0 c 0,-0.978 -0.793,-1.771 -1.771,-1.771 -0.978,0 -1.771,0.793 -1.771,1.771 0,0.978 0.793,1.771 1.771,1.771 C -0.793,1.771 0,0.978 0,0"
       style="fill:#f5f5ff;fill-opacity:1;fill-rule:nonzero;stroke:none"
       transform="matrix(1.3333333,0,0,-1.3333333,-617.01123,821.49787)"
       clip-path="url(#clipPath365)" /><path
       id="path366"
       d="m 0,0 c 0,-0.489 -0.396,-0.885 -0.886,-0.885 -0.488,0 -0.885,0.396 -0.885,0.885 0,0.489 0.397,0.885 0.885,0.885 C -0.396,0.885 0,0.489 0,0"
       style="fill:#f5f5ff;fill-opacity:1;fill-rule:nonzero;stroke:none"
       transform="matrix(1.3333333,0,0,-1.3333333,-605.79576,874.9204)"
       clip-path="url(#clipPath367)" /></g></svg>
