<?xml version="1.0" encoding="UTF-8" standalone="no"?>
<!-- Created with Inkscape (http://www.inkscape.org/) -->

<svg
   width="114.36086mm"
   height="99.781357mm"
   viewBox="0 0 114.36086 99.781357"
   version="1.1"
   id="svg1"
   xml:space="preserve"
   xmlns:inkscape="http://www.inkscape.org/namespaces/inkscape"
   xmlns:sodipodi="http://sodipodi.sourceforge.net/DTD/sodipodi-0.dtd"
   xmlns="http://www.w3.org/2000/svg"
   xmlns:svg="http://www.w3.org/2000/svg"><sodipodi:namedview
     id="namedview1"
     pagecolor="#ffffff"
     bordercolor="#000000"
     borderopacity="0.25"
     inkscape:showpageshadow="2"
     inkscape:pageopacity="0.0"
     inkscape:pagecheckerboard="0"
     inkscape:deskcolor="#d1d1d1"
     inkscape:document-units="mm" /><defs
     id="defs1" /><g
     inkscape:label="Layer 1"
     inkscape:groupmode="layer"
     id="layer1"
     transform="translate(-47.154248,-98.534711)"><g
       id="OBJECTS"
       transform="matrix(0.26458333,0,0,0.26458333,38.707208,82.354168)">&#10;	<g
   id="g150">&#10;		<g
   id="g9">&#10;			<circle
   style="fill:#f9fbfc"
   cx="283.255"
   cy="257.37701"
   r="175.42101"
   id="circle1" />&#10;			<path
   style="fill:#88b6ba"
   d="m 129.837,81.955 v 11.231 c 0,2.956 1.577,5.687 4.137,7.165 l 8.979,5.184 -8.978,5.184 c -2.56,1.478 -4.137,4.21 -4.137,7.166 v 11.231 H 280.79 V 81.955 Z"
   id="path1" />&#10;			<path
   style="fill:#2a4924"
   d="m 86.879,207.751 v 13.87 c 0,1.323 -0.706,2.545 -1.851,3.207 l -9.887,5.708 c -0.612,0.353 -0.612,1.237 0,1.59 l 9.887,5.709 c 1.146,0.661 1.851,1.884 1.851,3.206 v 13.87 h 57.696 V 207.75 H 86.879 Z"
   id="path2" />&#10;			&#10;				<circle
   transform="matrix(0.7071,-0.7071,0.7071,0.7071,-99.0293,275.6752)"
   style="fill:#f9fbfc"
   cx="283.255"
   cy="257.37701"
   id="ellipse2"
   r="180.90601" />&#10;			<path
   style="fill:#1e2c1f"
   d="m 152.859,240.563 c 0.44,-0.763 1.254,-1.233 2.135,-1.233 0.881,0 1.695,0.47 2.135,1.233 l 8.284,14.348 h 34.895 c 0.021,0 0.041,0.006 0.062,0.006 1.28,-43.851 36.575,-79.146 80.426,-80.426 -10e-4,-0.021 -0.006,-0.041 -0.006,-0.062 v -36.318 c 0,-0.881 0.47,-1.695 1.233,-2.135 l 11.883,-6.86 -11.883,-6.861 c -0.763,-0.44 -1.233,-1.254 -1.233,-2.135 V 81.987 c -94.923,1.309 -171.616,78.002 -172.925,172.925 h 36.71 z"
   id="path3" />&#10;			<path
   style="fill:#2a4924"
   d="m 179.162,337.691 c -0.228,-0.851 0.015,-1.759 0.638,-2.381 0.622,-0.622 1.533,-0.866 2.381,-0.638 l 16.004,4.288 24.674,-24.673 c 0.014,-0.014 0.031,-0.024 0.046,-0.038 -13.476,-14.295 -21.921,-33.366 -22.535,-54.413 -0.021,0 -0.041,0.006 -0.062,0.006 H 163.99 c -0.881,0 -1.695,-0.469 -2.135,-1.233 l -6.861,-11.883 -6.861,11.883 c -0.44,0.763 -1.254,1.233 -2.135,1.233 h -38.134 c 0.642,46.578 19.432,88.764 49.626,119.813 l 25.959,-25.96 z"
   id="path4" />&#10;			<path
   style="fill:#88b6ba"
   d="m 301.301,129.116 c 0,0.88 -0.47,1.695 -1.233,2.135 l -14.348,8.284 v 34.895 c 0,0.021 -0.006,0.041 -0.006,0.062 21.047,0.614 40.119,9.059 54.413,22.535 0.014,-0.014 0.023,-0.032 0.038,-0.046 l 25.68,-25.68 c 0.623,-0.623 1.533,-0.867 2.381,-0.638 l 13.254,3.551 -3.551,-13.254 c -0.228,-0.85 0.015,-1.759 0.638,-2.381 l 26.966,-26.966 C 374.484,101.419 332.298,82.629 285.72,81.987 v 36.71 l 14.348,8.285 c 0.763,0.44 1.233,1.254 1.233,2.134 z"
   id="path5" />&#10;			<path
   style="fill:#39d3c7"
   d="m 387.347,177.062 c 0.228,0.85 -0.015,1.759 -0.638,2.381 -0.623,0.624 -1.532,0.865 -2.381,0.638 l -16.004,-4.288 -24.674,24.674 c -0.014,0.014 -0.031,0.024 -0.046,0.038 13.476,14.295 21.921,33.366 22.535,54.413 0.021,-0.001 0.041,-0.006 0.062,-0.006 h 36.318 c 0.88,0 1.695,0.47 2.135,1.233 l 6.861,11.883 6.861,-11.883 c 0.44,-0.763 1.254,-1.233 2.135,-1.233 h 38.134 c -0.642,-46.578 -19.432,-88.764 -49.626,-119.813 l -25.959,25.959 z"
   id="path6" />&#10;			<path
   style="fill:#0baaa2"
   d="m 413.65,274.19 c -0.44,0.763 -1.254,1.233 -2.135,1.233 -0.881,0 -1.695,-0.469 -2.135,-1.233 l -8.284,-14.348 h -34.895 c -0.021,0 -0.041,-0.006 -0.062,-0.006 -0.614,21.047 -9.059,40.119 -22.535,54.413 0.014,0.014 0.032,0.023 0.046,0.038 l 25.68,25.68 c 0.623,0.622 0.866,1.53 0.638,2.381 l -3.551,13.255 13.254,-3.552 c 0.849,-0.226 1.758,0.016 2.381,0.638 l 26.966,26.966 c 30.194,-31.049 48.984,-73.235 49.626,-119.813 h -36.71 z"
   id="path7" />&#10;			<path
   style="fill:#79ba2b"
   d="m 363.569,361.469 c -0.849,0.229 -1.758,-0.014 -2.381,-0.638 -0.623,-0.622 -0.866,-1.53 -0.638,-2.381 l 4.288,-16.004 -24.674,-24.673 c -0.014,-0.014 -0.024,-0.031 -0.038,-0.046 -14.295,13.476 -33.366,21.921 -54.413,22.535 10e-4,0.021 0.006,0.041 0.006,0.062 v 36.318 c 0,0.881 -0.47,1.695 -1.233,2.135 l -11.883,6.86 11.883,6.861 c 0.763,0.441 1.233,1.254 1.233,2.135 v 38.133 c 46.578,-0.642 88.764,-19.432 119.813,-49.626 l -25.959,-25.96 z"
   id="path8" />&#10;			<path
   style="fill:#33854e"
   d="m 265.209,385.637 c 0,-0.881 0.47,-1.695 1.233,-2.135 l 14.348,-8.283 v -34.895 c 0,-0.021 0.006,-0.041 0.006,-0.062 -21.047,-0.614 -40.119,-9.059 -54.413,-22.535 -0.014,0.014 -0.023,0.032 -0.038,0.046 l -25.68,25.68 c -0.622,0.624 -1.533,0.864 -2.381,0.638 l -13.254,-3.551 3.551,13.254 c 0.228,0.851 -0.015,1.759 -0.638,2.381 l -26.966,26.966 c 31.049,30.194 73.235,48.984 119.813,49.626 v -36.71 l -14.348,-8.284 c -0.763,-0.441 -1.233,-1.255 -1.233,-2.136 z"
   id="path9" />&#10;		</g>&#10;		<g
   id="g25">&#10;			<g
   id="g24">&#10;				<path
   style="fill:#6d6e71"
   d="m 247.375,250.632 c -1.279,0 -2.272,-0.269 -2.979,-0.804 -0.707,-0.535 -1.198,-1.257 -1.473,-2.164 -0.275,-0.907 -0.413,-1.92 -0.413,-3.035 v -6.382 c 0,-1.22 0.137,-2.283 0.413,-3.191 0.275,-0.907 0.766,-1.609 1.473,-2.108 0.707,-0.498 1.7,-0.747 2.979,-0.747 1.13,0 2.027,0.208 2.689,0.624 0.662,0.417 1.138,1.012 1.428,1.785 0.29,0.774 0.435,1.704 0.435,2.79 v 1.428 h -2.388 v -1.271 c 0,-0.67 -0.033,-1.261 -0.101,-1.774 -0.067,-0.514 -0.249,-0.911 -0.546,-1.194 -0.298,-0.282 -0.796,-0.424 -1.495,-0.424 -0.714,0 -1.235,0.153 -1.562,0.458 -0.328,0.305 -0.54,0.736 -0.636,1.294 -0.096,0.558 -0.145,1.209 -0.145,1.952 v 7.163 c 0,0.908 0.075,1.626 0.223,2.153 0.149,0.528 0.394,0.904 0.737,1.127 0.342,0.224 0.803,0.335 1.383,0.335 0.684,0 1.175,-0.152 1.473,-0.457 0.297,-0.305 0.483,-0.726 0.558,-1.261 0.074,-0.536 0.111,-1.161 0.111,-1.875 v -1.339 h 2.388 v 1.339 c 0,1.102 -0.134,2.072 -0.402,2.912 -0.268,0.841 -0.729,1.495 -1.383,1.964 -0.655,0.467 -1.578,0.702 -2.767,0.702 z"
   id="path10" />&#10;				<path
   style="fill:#6d6e71"
   d="m 254.471,250.431 v -18.075 h 2.477 v 18.075 z"
   id="path11" />&#10;				<path
   style="fill:#6d6e71"
   d="m 259.87,250.431 v -18.075 h 3.637 c 1.205,0 2.202,0.16 2.99,0.48 0.788,0.32 1.373,0.833 1.751,1.539 0.379,0.707 0.569,1.633 0.569,2.778 0,0.699 -0.075,1.336 -0.223,1.908 -0.149,0.573 -0.387,1.057 -0.714,1.45 -0.327,0.395 -0.758,0.681 -1.294,0.859 l 2.566,9.06 h -2.432 l -2.365,-8.479 h -1.964 v 8.479 h -2.521 z m 2.522,-10.287 h 0.959 c 0.714,0 1.294,-0.089 1.741,-0.268 0.447,-0.179 0.773,-0.483 0.982,-0.915 0.208,-0.432 0.313,-1.034 0.313,-1.808 0,-1.056 -0.194,-1.818 -0.581,-2.287 -0.387,-0.469 -1.153,-0.703 -2.298,-0.703 h -1.116 z"
   id="path12" />&#10;				<path
   style="fill:#6d6e71"
   d="m 275.981,250.632 c -1.279,0 -2.272,-0.269 -2.979,-0.804 -0.707,-0.535 -1.198,-1.257 -1.473,-2.164 -0.275,-0.907 -0.413,-1.92 -0.413,-3.035 v -6.382 c 0,-1.22 0.137,-2.283 0.413,-3.191 0.275,-0.907 0.766,-1.609 1.473,-2.108 0.707,-0.498 1.7,-0.747 2.979,-0.747 1.13,0 2.027,0.208 2.689,0.624 0.662,0.417 1.138,1.012 1.428,1.785 0.29,0.774 0.435,1.704 0.435,2.79 v 1.428 h -2.388 v -1.271 c 0,-0.67 -0.033,-1.261 -0.101,-1.774 -0.067,-0.514 -0.249,-0.911 -0.546,-1.194 -0.298,-0.282 -0.796,-0.424 -1.495,-0.424 -0.714,0 -1.235,0.153 -1.562,0.458 -0.328,0.305 -0.54,0.736 -0.636,1.294 -0.096,0.558 -0.145,1.209 -0.145,1.952 v 7.163 c 0,0.908 0.075,1.626 0.223,2.153 0.149,0.528 0.394,0.904 0.737,1.127 0.342,0.224 0.803,0.335 1.383,0.335 0.684,0 1.175,-0.152 1.473,-0.457 0.297,-0.305 0.483,-0.726 0.558,-1.261 0.074,-0.536 0.111,-1.161 0.111,-1.875 v -1.339 h 2.388 v 1.339 c 0,1.102 -0.134,2.072 -0.402,2.912 -0.268,0.841 -0.729,1.495 -1.383,1.964 -0.654,0.467 -1.577,0.702 -2.767,0.702 z"
   id="path13" />&#10;				<path
   style="fill:#6d6e71"
   d="m 287.607,250.632 c -1.309,0 -2.313,-0.261 -3.012,-0.781 -0.7,-0.521 -1.175,-1.253 -1.428,-2.198 -0.253,-0.944 -0.379,-2.049 -0.379,-3.313 v -11.983 h 2.41 v 12.095 c 0,0.773 0.052,1.48 0.156,2.12 0.104,0.64 0.331,1.146 0.681,1.518 0.349,0.372 0.874,0.558 1.573,0.558 0.714,0 1.242,-0.186 1.584,-0.558 0.342,-0.372 0.565,-0.878 0.669,-1.518 0.104,-0.64 0.156,-1.347 0.156,-2.12 v -12.095 h 2.388 v 11.983 c 0,1.265 -0.126,2.369 -0.379,3.313 -0.253,0.945 -0.725,1.678 -1.417,2.198 -0.692,0.52 -1.693,0.781 -3.002,0.781 z"
   id="path14" />&#10;				<path
   style="fill:#6d6e71"
   d="m 295.06,250.431 v -18.075 h 2.521 v 16.268 h 4.619 v 1.808 h -7.14 z"
   id="path15" />&#10;				<path
   style="fill:#6d6e71"
   d="m 302.937,250.431 3.838,-18.075 h 2.432 l 3.86,18.075 h -2.388 l -0.826,-4.552 h -3.682 l -0.87,4.552 z m 3.57,-6.36 h 3.013 l -1.518,-8.146 z"
   id="path16" />&#10;				<path
   style="fill:#6d6e71"
   d="m 314.897,250.431 v -18.075 h 3.637 c 1.205,0 2.202,0.16 2.99,0.48 0.788,0.32 1.373,0.833 1.751,1.539 0.379,0.707 0.569,1.633 0.569,2.778 0,0.699 -0.075,1.336 -0.223,1.908 -0.149,0.573 -0.387,1.057 -0.714,1.45 -0.327,0.395 -0.758,0.681 -1.294,0.859 l 2.566,9.06 h -2.432 l -2.365,-8.479 h -1.964 v 8.479 h -2.521 z m 2.522,-10.287 h 0.959 c 0.714,0 1.294,-0.089 1.741,-0.268 0.447,-0.179 0.773,-0.483 0.982,-0.915 0.208,-0.432 0.313,-1.034 0.313,-1.808 0,-1.056 -0.194,-1.818 -0.581,-2.287 -0.387,-0.469 -1.153,-0.703 -2.298,-0.703 h -1.116 z"
   id="path17" />&#10;				<path
   style="fill:#6d6e71"
   d="m 243.727,277.208 v -18.075 h 7.007 v 1.875 h -4.485 v 5.98 h 3.637 v 1.785 h -3.637 v 6.627 h 4.53 v 1.808 z"
   id="path18" />&#10;				<path
   style="fill:#6d6e71"
   d="m 257.338,277.409 c -1.279,0 -2.272,-0.269 -2.979,-0.804 -0.707,-0.535 -1.198,-1.257 -1.473,-2.164 -0.275,-0.907 -0.413,-1.92 -0.413,-3.035 v -6.382 c 0,-1.22 0.137,-2.283 0.413,-3.191 0.275,-0.907 0.766,-1.609 1.473,-2.108 0.707,-0.498 1.7,-0.747 2.979,-0.747 1.13,0 2.027,0.208 2.689,0.624 0.662,0.417 1.138,1.012 1.428,1.785 0.29,0.774 0.435,1.704 0.435,2.79 v 1.428 h -2.388 v -1.271 c 0,-0.67 -0.033,-1.261 -0.101,-1.774 -0.067,-0.514 -0.249,-0.911 -0.546,-1.194 -0.298,-0.282 -0.796,-0.424 -1.495,-0.424 -0.714,0 -1.235,0.153 -1.562,0.458 -0.328,0.305 -0.54,0.736 -0.636,1.294 -0.096,0.558 -0.145,1.209 -0.145,1.952 v 7.163 c 0,0.908 0.075,1.626 0.223,2.153 0.149,0.528 0.394,0.904 0.737,1.127 0.342,0.224 0.803,0.335 1.383,0.335 0.684,0 1.175,-0.152 1.473,-0.457 0.297,-0.305 0.483,-0.726 0.558,-1.261 0.074,-0.536 0.111,-1.161 0.111,-1.875 v -1.339 h 2.388 v 1.339 c 0,1.102 -0.134,2.072 -0.402,2.912 -0.268,0.841 -0.729,1.495 -1.383,1.964 -0.654,0.468 -1.577,0.702 -2.767,0.702 z"
   id="path19" />&#10;				<path
   style="fill:#6d6e71"
   d="m 268.919,277.409 c -1.22,0 -2.194,-0.238 -2.923,-0.715 -0.729,-0.476 -1.25,-1.156 -1.562,-2.041 -0.312,-0.885 -0.468,-1.923 -0.468,-3.113 v -6.851 c 0,-1.189 0.16,-2.213 0.479,-3.068 0.319,-0.855 0.84,-1.51 1.562,-1.964 0.722,-0.453 1.692,-0.68 2.912,-0.68 1.22,0 2.187,0.23 2.901,0.691 0.714,0.461 1.231,1.115 1.551,1.964 0.32,0.848 0.48,1.867 0.48,3.057 v 6.873 c 0,1.175 -0.16,2.202 -0.48,3.079 -0.32,0.878 -0.837,1.559 -1.551,2.042 -0.714,0.483 -1.681,0.726 -2.901,0.726 z m 0,-1.986 c 0.669,0 1.175,-0.138 1.518,-0.413 0.342,-0.274 0.572,-0.661 0.691,-1.16 0.119,-0.498 0.179,-1.082 0.179,-1.752 v -7.921 c 0,-0.67 -0.06,-1.246 -0.179,-1.729 -0.119,-0.483 -0.35,-0.855 -0.691,-1.116 -0.343,-0.26 -0.848,-0.391 -1.518,-0.391 -0.67,0 -1.179,0.131 -1.528,0.391 -0.35,0.261 -0.584,0.633 -0.703,1.116 -0.119,0.483 -0.179,1.06 -0.179,1.729 v 7.921 c 0,0.67 0.06,1.254 0.179,1.752 0.119,0.499 0.353,0.886 0.703,1.16 0.349,0.275 0.859,0.413 1.528,0.413 z"
   id="path20" />&#10;				<path
   style="fill:#6d6e71"
   d="m 276.328,277.208 v -18.075 h 1.718 l 5.132,12.006 v -12.006 h 2.098 v 18.075 h -1.607 l -5.199,-12.34 v 12.34 z"
   id="path21" />&#10;				<path
   style="fill:#6d6e71"
   d="m 292.729,277.409 c -1.22,0 -2.194,-0.238 -2.923,-0.715 -0.729,-0.476 -1.25,-1.156 -1.562,-2.041 -0.312,-0.885 -0.468,-1.923 -0.468,-3.113 v -6.851 c 0,-1.189 0.16,-2.213 0.479,-3.068 0.319,-0.855 0.84,-1.51 1.562,-1.964 0.722,-0.453 1.692,-0.68 2.912,-0.68 1.22,0 2.187,0.23 2.901,0.691 0.714,0.461 1.231,1.115 1.551,1.964 0.32,0.848 0.48,1.867 0.48,3.057 v 6.873 c 0,1.175 -0.16,2.202 -0.48,3.079 -0.32,0.878 -0.837,1.559 -1.551,2.042 -0.714,0.483 -1.681,0.726 -2.901,0.726 z m 0,-1.986 c 0.669,0 1.175,-0.138 1.518,-0.413 0.342,-0.274 0.572,-0.661 0.691,-1.16 0.119,-0.498 0.179,-1.082 0.179,-1.752 v -7.921 c 0,-0.67 -0.06,-1.246 -0.179,-1.729 -0.119,-0.483 -0.35,-0.855 -0.691,-1.116 -0.343,-0.26 -0.848,-0.391 -1.518,-0.391 -0.67,0 -1.179,0.131 -1.528,0.391 -0.35,0.261 -0.584,0.633 -0.703,1.116 -0.119,0.483 -0.179,1.06 -0.179,1.729 v 7.921 c 0,0.67 0.06,1.254 0.179,1.752 0.119,0.499 0.353,0.886 0.703,1.16 0.349,0.275 0.859,0.413 1.528,0.413 z"
   id="path22" />&#10;				<path
   style="fill:#6d6e71"
   d="m 300.092,277.208 0.334,-18.075 h 2.477 l 3.191,14.661 3.213,-14.661 h 2.455 l 0.334,18.075 h -2.03 l -0.201,-13.121 -3.057,13.121 h -1.428 l -3.035,-13.121 -0.201,13.121 z"
   id="path23" />&#10;				<path
   style="fill:#6d6e71"
   d="m 317.631,277.208 v -6.382 l -3.905,-11.693 h 2.343 l 2.767,8.726 2.722,-8.726 h 2.365 l -3.882,11.693 v 6.382 z"
   id="path24" />&#10;			</g>&#10;		</g>&#10;		<g
   id="g149">&#10;			<g
   id="g132">&#10;				<g
   id="g53">&#10;					<g
   id="g26">&#10;						&#10;							<text
   transform="translate(319.245,163.8945)"
   style="font-size:7.3955px;font-family:Poppins-ExtraBold;fill:#f9fbfc"
   id="text25">DESIGN</text>&#10;					</g>&#10;					<g
   id="g52">&#10;						<g
   id="g46">&#10;							&#10;								<rect
   x="306.854"
   y="128.547"
   transform="matrix(0.7071,-0.7071,0.7071,0.7071,3.9285,274.2784)"
   style="fill:none;stroke:#f9fbfc;stroke-width:1.1259;stroke-linecap:round;stroke-linejoin:round;stroke-miterlimit:10"
   width="52.386002"
   height="7.7010002"
   id="rect26" />&#10;							&#10;								<line
   style="fill:none;stroke:#f9fbfc;stroke-width:1.1259;stroke-linecap:round;stroke-linejoin:round;stroke-miterlimit:10"
   x1="313.56699"
   y1="146.43201"
   x2="314.50101"
   y2="147.36501"
   id="line26" />&#10;							&#10;								<line
   style="fill:none;stroke:#f9fbfc;stroke-width:1.1259;stroke-linecap:round;stroke-linejoin:round;stroke-miterlimit:10"
   x1="315.33099"
   y1="144.668"
   x2="316.26501"
   y2="145.601"
   id="line27" />&#10;							&#10;								<line
   style="fill:none;stroke:#f9fbfc;stroke-width:1.1259;stroke-linecap:round;stroke-linejoin:round;stroke-miterlimit:10"
   x1="317.095"
   y1="142.90401"
   x2="318.96201"
   y2="144.771"
   id="line28" />&#10;							&#10;								<line
   style="fill:none;stroke:#f9fbfc;stroke-width:1.1259;stroke-linecap:round;stroke-linejoin:round;stroke-miterlimit:10"
   x1="318.85901"
   y1="141.14"
   x2="319.793"
   y2="142.07401"
   id="line29" />&#10;							&#10;								<line
   style="fill:none;stroke:#f9fbfc;stroke-width:1.1259;stroke-linecap:round;stroke-linejoin:round;stroke-miterlimit:10"
   x1="320.62299"
   y1="139.37601"
   x2="321.55701"
   y2="140.30901"
   id="line30" />&#10;							&#10;								<line
   style="fill:none;stroke:#f9fbfc;stroke-width:1.1259;stroke-linecap:round;stroke-linejoin:round;stroke-miterlimit:10"
   x1="322.38699"
   y1="137.612"
   x2="324.254"
   y2="139.479"
   id="line31" />&#10;							&#10;								<line
   style="fill:none;stroke:#f9fbfc;stroke-width:1.1259;stroke-linecap:round;stroke-linejoin:round;stroke-miterlimit:10"
   x1="324.151"
   y1="135.84801"
   x2="325.08499"
   y2="136.782"
   id="line32" />&#10;							&#10;								<line
   style="fill:none;stroke:#f9fbfc;stroke-width:1.1259;stroke-linecap:round;stroke-linejoin:round;stroke-miterlimit:10"
   x1="325.91501"
   y1="134.084"
   x2="326.84799"
   y2="135.01801"
   id="line33" />&#10;							&#10;								<line
   style="fill:none;stroke:#f9fbfc;stroke-width:1.1259;stroke-linecap:round;stroke-linejoin:round;stroke-miterlimit:10"
   x1="327.67899"
   y1="132.32001"
   x2="329.54599"
   y2="134.187"
   id="line34" />&#10;							&#10;								<line
   style="fill:none;stroke:#f9fbfc;stroke-width:1.1259;stroke-linecap:round;stroke-linejoin:round;stroke-miterlimit:10"
   x1="329.44299"
   y1="130.556"
   x2="330.37601"
   y2="131.49001"
   id="line35" />&#10;							&#10;								<line
   style="fill:none;stroke:#f9fbfc;stroke-width:1.1259;stroke-linecap:round;stroke-linejoin:round;stroke-miterlimit:10"
   x1="331.207"
   y1="128.79201"
   x2="332.14001"
   y2="129.726"
   id="line36" />&#10;							&#10;								<line
   style="fill:none;stroke:#f9fbfc;stroke-width:1.1259;stroke-linecap:round;stroke-linejoin:round;stroke-miterlimit:10"
   x1="332.97101"
   y1="127.029"
   x2="334.83801"
   y2="128.895"
   id="line37" />&#10;							&#10;								<line
   style="fill:none;stroke:#f9fbfc;stroke-width:1.1259;stroke-linecap:round;stroke-linejoin:round;stroke-miterlimit:10"
   x1="334.73499"
   y1="125.265"
   x2="335.668"
   y2="126.198"
   id="line38" />&#10;							&#10;								<line
   style="fill:none;stroke:#f9fbfc;stroke-width:1.1259;stroke-linecap:round;stroke-linejoin:round;stroke-miterlimit:10"
   x1="336.49899"
   y1="123.501"
   x2="337.43201"
   y2="124.434"
   id="line39" />&#10;							&#10;								<line
   style="fill:none;stroke:#f9fbfc;stroke-width:1.1259;stroke-linecap:round;stroke-linejoin:round;stroke-miterlimit:10"
   x1="338.26199"
   y1="121.737"
   x2="340.129"
   y2="123.604"
   id="line40" />&#10;							&#10;								<line
   style="fill:none;stroke:#f9fbfc;stroke-width:1.1259;stroke-linecap:round;stroke-linejoin:round;stroke-miterlimit:10"
   x1="340.026"
   y1="119.973"
   x2="340.95999"
   y2="120.906"
   id="line41" />&#10;							&#10;								<line
   style="fill:none;stroke:#f9fbfc;stroke-width:1.1259;stroke-linecap:round;stroke-linejoin:round;stroke-miterlimit:10"
   x1="341.79001"
   y1="118.209"
   x2="342.724"
   y2="119.142"
   id="line42" />&#10;							&#10;								<line
   style="fill:none;stroke:#f9fbfc;stroke-width:1.1259;stroke-linecap:round;stroke-linejoin:round;stroke-miterlimit:10"
   x1="343.55399"
   y1="116.445"
   x2="345.42099"
   y2="118.312"
   id="line43" />&#10;							&#10;								<line
   style="fill:none;stroke:#f9fbfc;stroke-width:1.1259;stroke-linecap:round;stroke-linejoin:round;stroke-miterlimit:10"
   x1="345.31799"
   y1="114.681"
   x2="346.25201"
   y2="115.615"
   id="line44" />&#10;							&#10;								<line
   style="fill:none;stroke:#f9fbfc;stroke-width:1.1259;stroke-linecap:round;stroke-linejoin:round;stroke-miterlimit:10"
   x1="347.082"
   y1="112.917"
   x2="348.01599"
   y2="113.851"
   id="line45" />&#10;							&#10;								<line
   style="fill:none;stroke:#f9fbfc;stroke-width:1.1259;stroke-linecap:round;stroke-linejoin:round;stroke-miterlimit:10"
   x1="317.185"
   y1="150.049"
   x2="350.69901"
   y2="116.534"
   id="line46" />&#10;						</g>&#10;						<g
   id="g51">&#10;							&#10;								<polyline
   style="fill:none;stroke:#f9fbfc;stroke-width:1.1259;stroke-linecap:round;stroke-linejoin:round;stroke-miterlimit:10"
   points="         346.288,149.891 354.366,153.716 350.542,145.637        "
   id="polyline46" />&#10;							&#10;								<line
   style="fill:none;stroke:#f9fbfc;stroke-width:1.1259;stroke-linecap:round;stroke-linejoin:round;stroke-miterlimit:10"
   x1="316.81799"
   y1="111.913"
   x2="332.452"
   y2="127.548"
   id="line47" />&#10;							&#10;								<polyline
   style="fill:none;stroke:#f9fbfc;stroke-width:1.1259;stroke-linecap:round;stroke-linejoin:round;stroke-miterlimit:10"
   points="         313.713,115.018 311.729,113.034 313.685,111.079 315.668,113.063        "
   id="polyline47" />&#10;							&#10;								<line
   style="fill:none;stroke:#f9fbfc;stroke-width:1.1259;stroke-linecap:round;stroke-linejoin:round;stroke-miterlimit:10"
   x1="314.547"
   y1="118.151"
   x2="318.80099"
   y2="113.897"
   id="line48" />&#10;							&#10;								<path
   style="fill:none;stroke:#f9fbfc;stroke-width:1.1259;stroke-linecap:round;stroke-linejoin:round;stroke-miterlimit:10"
   d="m 316.818,111.913 -4.254,4.254 v 0 c -1.033,1.033 -1.033,2.708 0,3.741 l 10.032,10.032"
   id="path48" />&#10;							&#10;								<line
   style="fill:none;stroke:#f9fbfc;stroke-width:1.1259;stroke-linecap:round;stroke-linejoin:round;stroke-miterlimit:10"
   x1="330.32501"
   y1="129.674"
   x2="316.67401"
   y2="116.024"
   id="line49" />&#10;							&#10;								<line
   style="fill:none;stroke:#f9fbfc;stroke-width:1.1259;stroke-linecap:round;stroke-linejoin:round;stroke-miterlimit:10"
   x1="348.41501"
   y1="147.76401"
   x2="335.76999"
   y2="135.12"
   id="line50" />&#10;							&#10;								<line
   style="fill:none;stroke:#f9fbfc;stroke-width:1.1259;stroke-linecap:round;stroke-linejoin:round;stroke-miterlimit:10"
   x1="328.198"
   y1="131.80099"
   x2="312.564"
   y2="116.167"
   id="line51" />&#10;							&#10;								<polyline
   style="fill:none;stroke:#f9fbfc;stroke-width:1.1259;stroke-linecap:round;stroke-linejoin:round;stroke-miterlimit:10"
   points="         337.897,132.993 350.542,145.637 346.288,149.891 333.643,137.247        "
   id="polyline51" />&#10;						</g>&#10;					</g>&#10;				</g>&#10;				<g
   id="g68">&#10;					<text
   transform="translate(386.367,231.3174)"
   id="text54"><tspan
     x="0"
     y="0"
     style="font-size:7.3955px;font-family:Poppins-ExtraBold;fill:#f9fbfc"
     id="tspan53">PRODUCTION</tspan><tspan
     x="-12.957"
     y="8.875"
     style="font-size:7.3955px;font-family:Poppins-ExtraBold;fill:#f9fbfc"
     id="tspan54">REMANUFACTURING</tspan></text>&#10;					<g
   id="g67">&#10;						&#10;							<polygon
   style="fill:none;stroke:#f9fbfc;stroke-width:1.1259;stroke-linecap:round;stroke-linejoin:round;stroke-miterlimit:10"
   points="419.734,192.693 411.709,196.248 411.663,192.693 410.264,192.693 400.794,196.887 400.794,201.863 392.071,201.863 392.071,219.003 430.602,219.003 430.603,192.693 429.205,192.693 421.179,196.248 421.132,192.693 "
   id="polygon54" />&#10;						&#10;							<rect
   x="395.48499"
   y="178.601"
   style="fill:none;stroke:#f9fbfc;stroke-width:1.1259;stroke-linecap:round;stroke-linejoin:round;stroke-miterlimit:10"
   width="5.3080001"
   height="23.263"
   id="rect54" />&#10;						&#10;							<line
   style="fill:none;stroke:#f9fbfc;stroke-width:1.1259;stroke-linecap:round;stroke-linejoin:round;stroke-miterlimit:10"
   x1="395.48499"
   y1="180.981"
   x2="400.79401"
   y2="180.981"
   id="line54" />&#10;						&#10;							<line
   style="fill:none;stroke:#f9fbfc;stroke-width:1.1259;stroke-linecap:round;stroke-linejoin:round;stroke-miterlimit:10"
   x1="395.48499"
   y1="183.248"
   x2="400.79401"
   y2="183.248"
   id="line55" />&#10;						<g
   id="g57">&#10;							<g
   id="g55">&#10;								&#10;									<path
   style="fill:none;stroke:#f9fbfc;stroke-width:1.1259;stroke-linecap:round;stroke-linejoin:round;stroke-miterlimit:10"
   d="m 407.468,197.941 c -0.335,0 -0.608,0.273 -0.608,0.61 0,0.336 0.272,0.609 0.608,0.609 0.336,0 0.61,-0.272 0.61,-0.609 0,-0.337 -0.274,-0.61 -0.61,-0.61 z"
   id="path55" />&#10;							</g>&#10;							<g
   id="g56">&#10;								&#10;									<path
   style="fill:none;stroke:#f9fbfc;stroke-width:1.1259;stroke-linecap:round;stroke-linejoin:round;stroke-miterlimit:10"
   d="m 404.464,197.941 c -0.336,0 -0.609,0.273 -0.609,0.61 0,0.336 0.273,0.609 0.609,0.609 0.336,0 0.608,-0.272 0.608,-0.609 0,-0.337 -0.272,-0.61 -0.608,-0.61 z"
   id="path56" />&#10;							</g>&#10;						</g>&#10;						<g
   id="g60">&#10;							<g
   id="g58">&#10;								&#10;									<path
   style="fill:none;stroke:#f9fbfc;stroke-width:1.1259;stroke-linecap:round;stroke-linejoin:round;stroke-miterlimit:10"
   d="m 416.938,197.941 c -0.335,0 -0.608,0.273 -0.608,0.61 0,0.336 0.273,0.609 0.608,0.609 0.337,0 0.61,-0.272 0.61,-0.609 0,-0.337 -0.273,-0.61 -0.61,-0.61 z"
   id="path57" />&#10;							</g>&#10;							<g
   id="g59">&#10;								&#10;									<path
   style="fill:none;stroke:#f9fbfc;stroke-width:1.1259;stroke-linecap:round;stroke-linejoin:round;stroke-miterlimit:10"
   d="m 413.934,197.941 c -0.335,0 -0.608,0.273 -0.608,0.61 0,0.336 0.273,0.609 0.608,0.609 0.337,0 0.611,-0.272 0.611,-0.609 -0.001,-0.337 -0.274,-0.61 -0.611,-0.61 z"
   id="path58" />&#10;							</g>&#10;						</g>&#10;						<g
   id="g63">&#10;							<g
   id="g61">&#10;								&#10;									<path
   style="fill:none;stroke:#f9fbfc;stroke-width:1.1259;stroke-linecap:round;stroke-linejoin:round;stroke-miterlimit:10"
   d="m 426.41,197.941 c -0.338,0 -0.609,0.273 -0.609,0.61 0,0.336 0.271,0.609 0.609,0.609 0.335,0 0.608,-0.272 0.608,-0.609 0.001,-0.337 -0.272,-0.61 -0.608,-0.61 z"
   id="path60" />&#10;							</g>&#10;							<g
   id="g62">&#10;								&#10;									<path
   style="fill:none;stroke:#f9fbfc;stroke-width:1.1259;stroke-linecap:round;stroke-linejoin:round;stroke-miterlimit:10"
   d="m 423.403,197.941 c -0.335,0 -0.608,0.273 -0.608,0.61 0,0.336 0.273,0.609 0.608,0.609 0.337,0 0.611,-0.272 0.611,-0.609 0,-0.337 -0.274,-0.61 -0.611,-0.61 z"
   id="path61" />&#10;							</g>&#10;						</g>&#10;						&#10;							<polyline
   style="fill:none;stroke:#f9fbfc;stroke-width:1.1259;stroke-linecap:round;stroke-linejoin:round;stroke-miterlimit:10"
   points="        400.794,201.863 419.187,201.863 419.187,219.003       "
   id="polyline63" />&#10;						&#10;							<polyline
   style="fill:none;stroke:#f9fbfc;stroke-width:1.1259;stroke-linecap:round;stroke-linejoin:round;stroke-miterlimit:10"
   points="        413.935,219.003 413.935,210.976 410.21,210.976 410.21,219.003       "
   id="polyline64" />&#10;						&#10;							<rect
   x="424.01401"
   y="206.073"
   style="fill:none;stroke:#f9fbfc;stroke-width:1.1259;stroke-linecap:round;stroke-linejoin:round;stroke-miterlimit:10"
   width="2.4349999"
   height="2.3970001"
   id="rect64" />&#10;						&#10;							<rect
   x="402.64899"
   y="210.976"
   style="fill:none;stroke:#f9fbfc;stroke-width:1.1259;stroke-linecap:round;stroke-linejoin:round;stroke-miterlimit:10"
   width="5.1999998"
   height="3.881"
   id="rect65" />&#10;						&#10;							<rect
   x="394.84799"
   y="210.976"
   style="fill:none;stroke:#f9fbfc;stroke-width:1.1259;stroke-linecap:round;stroke-linejoin:round;stroke-miterlimit:10"
   width="5.1999998"
   height="3.881"
   id="rect66" />&#10;						&#10;							<rect
   x="396.633"
   y="176.366"
   style="fill:none;stroke:#f9fbfc;stroke-width:1.1259;stroke-linecap:round;stroke-linejoin:round;stroke-miterlimit:10"
   width="3.0120001"
   height="2.2349999"
   id="rect67" />&#10;						&#10;							<line
   style="fill:none;stroke:#f9fbfc;stroke-width:1.1259;stroke-linecap:round;stroke-linejoin:round;stroke-miterlimit:10"
   x1="392.07101"
   y1="204.49899"
   x2="419.18701"
   y2="204.49899"
   id="line67" />&#10;					</g>&#10;				</g>&#10;				<g
   id="g81">&#10;					&#10;						<text
   transform="translate(374.9344,325.5977)"
   style="font-size:7.3955px;font-family:Poppins-ExtraBold;fill:#f9fbfc"
   id="text68">DISTRIBUTION</text>&#10;					<g
   id="g80">&#10;						&#10;							<polyline
   style="fill:none;stroke:#f9fbfc;stroke-width:1.1259;stroke-linecap:round;stroke-linejoin:round;stroke-miterlimit:10"
   points="        422.179,307.993 424.371,307.993 425.078,310.357       "
   id="polyline68" />&#10;						&#10;							<line
   style="fill:none;stroke:#f9fbfc;stroke-width:1.1259;stroke-linecap:round;stroke-linejoin:round;stroke-miterlimit:10"
   x1="391.892"
   y1="307.99301"
   x2="407.14999"
   y2="307.99301"
   id="line68" />&#10;						&#10;							<path
   style="fill:none;stroke:#f9fbfc;stroke-width:1.1259;stroke-linecap:round;stroke-linejoin:round;stroke-miterlimit:10"
   d="m 380.428,293.31 c 0.29,-0.739 1.003,-1.224 1.796,-1.224 h 4.533 3.946 c 0.657,0 1.189,0.533 1.189,1.189 v 14.718 h -1.783 c -0.291,0 -0.577,-0.12 -0.758,-0.349 -0.979,-1.238 -2.492,-2.034 -4.193,-2.034 -1.701,0 -3.215,0.796 -4.193,2.034 -0.181,0.229 -0.466,0.349 -0.758,0.349 h -2.872 c -0.657,0 -1.189,-0.533 -1.189,-1.189 v -3.455 c 0,-0.249 0.078,-0.485 0.214,-0.68 0.455,-0.653 0.907,-1.309 1.198,-2.05 z"
   id="path68" />&#10;						<g
   id="g70">&#10;							&#10;								<path
   style="fill:none;stroke:#f9fbfc;stroke-width:1.1259;stroke-linecap:round;stroke-linejoin:round;stroke-miterlimit:10"
   d="m 388.936,310.357 c 0,-2.087 -1.692,-3.778 -3.778,-3.778 -2.086,0 -3.778,1.691 -3.778,3.778 0,2.087 1.691,3.778 3.778,3.778 2.087,0 3.778,-1.691 3.778,-3.778 z"
   id="path69" />&#10;							&#10;								<path
   style="fill:none;stroke:#f9fbfc;stroke-width:1.1259;stroke-linecap:round;stroke-linejoin:round;stroke-miterlimit:10"
   d="m 386.279,310.357 c 0,-0.619 -0.502,-1.12 -1.12,-1.12 -0.619,0 -1.12,0.501 -1.12,1.12 0,0.619 0.501,1.12 1.12,1.12 0.618,0.001 1.12,-0.501 1.12,-1.12 z"
   id="path70" />&#10;						</g>&#10;						<g
   id="g72">&#10;							&#10;								<path
   style="fill:none;stroke:#f9fbfc;stroke-width:1.1259;stroke-linecap:round;stroke-linejoin:round;stroke-miterlimit:10"
   d="m 407.15,307.991 c -0.521,0.648 -0.832,1.47 -0.832,2.366 0,2.087 1.692,3.778 3.778,3.778 2.087,0 3.778,-1.692 3.778,-3.778 0,-2.086 -1.692,-3.778 -3.778,-3.778 -1.191,0 -2.253,0.551 -2.946,1.412"
   id="path71" />&#10;							&#10;								<path
   style="fill:none;stroke:#f9fbfc;stroke-width:1.1259;stroke-linecap:round;stroke-linejoin:round;stroke-miterlimit:10"
   d="m 411.216,310.357 c 0,-0.619 -0.501,-1.12 -1.12,-1.12 -0.619,0 -1.12,0.501 -1.12,1.12 0,0.619 0.501,1.12 1.12,1.12 0.619,0.001 1.12,-0.501 1.12,-1.12 z"
   id="path72" />&#10;						</g>&#10;						<g
   id="g74">&#10;							&#10;								<path
   style="fill:none;stroke:#f9fbfc;stroke-width:1.1259;stroke-linecap:round;stroke-linejoin:round;stroke-miterlimit:10"
   d="m 423.017,310.357 c 0,-2.087 -1.692,-3.778 -3.778,-3.778 -2.086,0 -3.778,1.691 -3.778,3.778 0,2.087 1.692,3.778 3.778,3.778 2.086,0 3.778,-1.691 3.778,-3.778 z"
   id="path73" />&#10;							&#10;								<path
   style="fill:none;stroke:#f9fbfc;stroke-width:1.1259;stroke-linecap:round;stroke-linejoin:round;stroke-miterlimit:10"
   d="m 420.359,310.357 c 0,-0.619 -0.501,-1.12 -1.12,-1.12 -0.619,0 -1.12,0.501 -1.12,1.12 0,0.619 0.502,1.12 1.12,1.12 0.618,0.001 1.12,-0.501 1.12,-1.12 z"
   id="path74" />&#10;						</g>&#10;						&#10;							<path
   style="fill:none;stroke:#f9fbfc;stroke-width:1.1259;stroke-linecap:round;stroke-linejoin:round;stroke-miterlimit:10"
   d="m 424.231,305.91 h -28.492 c -1.034,0 -1.872,-0.838 -1.872,-1.872 v -12.821 c 0,-1.034 0.838,-1.872 1.872,-1.872 h 28.492 c 1.034,0 1.872,0.838 1.872,1.872 v 12.821 c 10e-4,1.034 -0.838,1.872 -1.872,1.872 z"
   id="path75" />&#10;						&#10;							<polyline
   style="fill:none;stroke:#f9fbfc;stroke-width:1.1259;stroke-linecap:round;stroke-linejoin:round;stroke-miterlimit:10"
   points="        423.998,300.673 423.998,291.536 399.521,291.536       "
   id="polyline75" />&#10;						&#10;							<polyline
   style="fill:none;stroke:#f9fbfc;stroke-width:1.1259;stroke-linecap:round;stroke-linejoin:round;stroke-miterlimit:10"
   points="        395.973,293.787 395.973,303.72 421.095,303.72       "
   id="polyline76" />&#10;						&#10;							<path
   style="fill:none;stroke:#f9fbfc;stroke-width:1.1259;stroke-linecap:round;stroke-linejoin:round;stroke-miterlimit:10"
   d="m 391.892,307.993 h 2.468 v 2.416 c 0,0.682 -0.552,1.234 -1.234,1.234 v 0 c -0.682,0 -1.234,-0.552 -1.234,-1.234 z"
   id="path76" />&#10;						&#10;							<path
   style="fill:none;stroke:#f9fbfc;stroke-width:1.1259;stroke-linecap:round;stroke-linejoin:round;stroke-miterlimit:10"
   d="m 398.362,311.478 h 3.826 c 1.067,0 1.932,-0.865 1.932,-1.932 v -1.594 h -7.69 v 1.594 c 0,1.067 0.865,1.932 1.932,1.932 z"
   id="path77" />&#10;						<g
   id="g79">&#10;							&#10;								<path
   style="fill:none;stroke:#f9fbfc;stroke-width:1.1259;stroke-linecap:round;stroke-linejoin:round;stroke-miterlimit:10"
   d="m 377.536,300.673 h 7.716 l 0.664,-6.886 h -4.666 c -0.604,0 -1.147,0.368 -1.37,0.929 l -0.543,1.361"
   id="path78" />&#10;							&#10;								<path
   style="fill:none;stroke:#f9fbfc;stroke-width:1.1259;stroke-linecap:round;stroke-linejoin:round;stroke-miterlimit:10"
   d="m 387.439,293.787 -0.124,6.886 h 2.94 v -6.349 c -0.012,-0.3 -0.258,-0.537 -0.558,-0.537 z"
   id="path79" />&#10;						</g>&#10;						&#10;							<line
   style="fill:none;stroke:#f9fbfc;stroke-width:1.1259;stroke-linecap:round;stroke-linejoin:round;stroke-miterlimit:10"
   x1="376.14499"
   y1="305.12601"
   x2="379.14099"
   y2="305.12601"
   id="line79" />&#10;						&#10;							<line
   style="fill:none;stroke:#f9fbfc;stroke-width:1.1259;stroke-linecap:round;stroke-linejoin:round;stroke-miterlimit:10"
   x1="413.034"
   y1="307.99301"
   x2="416.29401"
   y2="307.99301"
   id="line80" />&#10;						&#10;							<path
   style="fill:none;stroke:#f9fbfc;stroke-width:1.1259;stroke-linecap:round;stroke-linejoin:round;stroke-miterlimit:10"
   d="m 422.942,307.993 h 1.5 c 0.917,0 1.661,-0.744 1.661,-1.661 v -2.612"
   id="path80" />&#10;					</g>&#10;				</g>&#10;				<g
   id="g87">&#10;					&#10;						<text
   transform="translate(300.0941,394.5694)"
   style="font-size:7.3955px;font-family:Poppins-ExtraBold;fill:#f9fbfc"
   id="text81">CONSUMPTION</text>&#10;					<g
   id="g86">&#10;						&#10;							<polyline
   style="fill:none;stroke:#f9fbfc;stroke-width:1.1259;stroke-linecap:round;stroke-linejoin:round;stroke-miterlimit:10"
   points="        343.678,368.555 343.678,381.621 328.481,381.621 328.481,361.466       "
   id="polyline81" />&#10;						&#10;							<polygon
   style="fill:none;stroke:#f9fbfc;stroke-width:1.1259;stroke-linecap:round;stroke-linejoin:round;stroke-miterlimit:10"
   points="328.481,361.466 343.678,361.466 347.788,368.555 332.591,368.555 "
   id="polygon81" />&#10;						&#10;							<polyline
   style="fill:none;stroke:#f9fbfc;stroke-width:1.1259;stroke-linecap:round;stroke-linejoin:round;stroke-miterlimit:10"
   points="        313.285,368.555 313.285,381.621 328.481,381.621 328.481,361.466       "
   id="polyline82" />&#10;						&#10;							<polygon
   style="fill:none;stroke:#f9fbfc;stroke-width:1.1259;stroke-linecap:round;stroke-linejoin:round;stroke-miterlimit:10"
   points="328.481,361.466 313.285,361.466 309.175,368.555 324.371,368.555 "
   id="polygon82" />&#10;						&#10;							<rect
   x="332.935"
   y="375.12299"
   style="fill:none;stroke:#f9fbfc;stroke-width:1.1259;stroke-linecap:round;stroke-linejoin:round;stroke-miterlimit:10"
   width="7.3720002"
   height="3.128"
   id="rect82" />&#10;						&#10;							<line
   style="fill:none;stroke:#f9fbfc;stroke-width:1.1259;stroke-linecap:round;stroke-linejoin:round;stroke-miterlimit:10"
   x1="324.63"
   y1="376.68701"
   x2="316.707"
   y2="376.68701"
   id="line82" />&#10;						<g
   id="g83">&#10;							&#10;								<circle
   style="fill:none;stroke:#f9fbfc;stroke-width:1.1259;stroke-linecap:round;stroke-linejoin:round;stroke-miterlimit:10"
   cx="338.30701"
   cy="353.65201"
   r="5.3709998"
   id="circle82" />&#10;							&#10;								<path
   style="fill:none;stroke:#f9fbfc;stroke-width:1.1259;stroke-linecap:round;stroke-linejoin:round;stroke-miterlimit:10"
   d="m 339.846,351.579 c -0.85,-0.474 -2.228,-0.474 -3.078,0 -0.85,0.474 -0.85,1.243 0,1.718 0.425,0.237 0.982,0.356 1.539,0.356 0.557,0 1.114,0.119 1.539,0.356 0.85,0.474 0.85,1.243 0,1.718 -0.85,0.474 -2.228,0.474 -3.078,0"
   id="path82" />&#10;							&#10;								<line
   style="fill:none;stroke:#f9fbfc;stroke-width:1.1259;stroke-linecap:round;stroke-linejoin:round;stroke-miterlimit:10"
   x1="338.30701"
   y1="350.38699"
   x2="338.30701"
   y2="356.918"
   id="line83" />&#10;						</g>&#10;						&#10;							<rect
   x="326.94601"
   y="351.535"
   style="fill:none;stroke:#f9fbfc;stroke-width:1.1259;stroke-linecap:round;stroke-linejoin:round;stroke-miterlimit:10"
   width="3.0699999"
   height="9.9300003"
   id="rect83" />&#10;						&#10;							<rect
   x="321.56"
   y="353.30801"
   style="fill:none;stroke:#f9fbfc;stroke-width:1.1259;stroke-linecap:round;stroke-linejoin:round;stroke-miterlimit:10"
   width="3.0699999"
   height="8.158"
   id="rect84" />&#10;						&#10;							<rect
   x="316.173"
   y="355.49301"
   style="fill:none;stroke:#f9fbfc;stroke-width:1.1259;stroke-linecap:round;stroke-linejoin:round;stroke-miterlimit:10"
   width="3.0699999"
   height="5.973"
   id="rect85" />&#10;						<g
   id="g85">&#10;							&#10;								<path
   style="fill:none;stroke:#f9fbfc;stroke-width:1.1259;stroke-linecap:round;stroke-linejoin:round;stroke-miterlimit:10"
   d="m 315.507,352.162 c 0,0 8.815,-1.565 12.974,-6.672"
   id="path85" />&#10;							&#10;								<polyline
   style="fill:none;stroke:#f9fbfc;stroke-width:1.1259;stroke-linecap:round;stroke-linejoin:round;stroke-miterlimit:10"
   points="         325.974,345.49 328.481,345.49 328.481,347.997        "
   id="polyline85" />&#10;						</g>&#10;					</g>&#10;				</g>&#10;				<g
   id="g93">&#10;					&#10;						<text
   transform="translate(200.2449,394.5694)"
   style="font-size:7.3955px;font-family:Poppins-ExtraBold;fill:#f9fbfc"
   id="text87">REPAIR / REUSE</text>&#10;					<g
   id="g92">&#10;						<g
   id="g88">&#10;							&#10;								<path
   style="fill:none;stroke:#f9fbfc;stroke-width:1.1259;stroke-linecap:round;stroke-linejoin:round;stroke-miterlimit:10"
   d="m 230.81,371.505 9.106,9.106 c 1.03,1.03 2.699,1.03 3.729,0 v 0 c 1.03,-1.03 1.03,-2.699 0,-3.729 l -9.106,-9.106 z"
   id="path87" />&#10;							&#10;								<path
   style="fill:none;stroke:#f9fbfc;stroke-width:1.1259;stroke-linecap:round;stroke-linejoin:round;stroke-miterlimit:10"
   d="m 229.053,371.584 v 0 c 0.464,0.464 1.215,0.464 1.678,0 l 3.887,-3.887 c 0.463,-0.463 0.463,-1.215 0,-1.678 v 0 c -0.464,-0.463 -1.215,-0.463 -1.678,0 l -3.887,3.887 c -0.463,0.463 -0.463,1.214 0,1.678 z"
   id="path88" />&#10;							&#10;								<line
   style="fill:none;stroke:#f9fbfc;stroke-width:1.1259;stroke-linecap:round;stroke-linejoin:round;stroke-miterlimit:10"
   x1="232.675"
   y1="369.64001"
   x2="243.646"
   y2="380.61099"
   id="line88" />&#10;							&#10;								<polygon
   style="fill:none;stroke:#f9fbfc;stroke-width:1.1259;stroke-linecap:round;stroke-linejoin:round;stroke-miterlimit:10"
   points="230.234,368.725 231.76,367.199 216.73,352.169 216.306,350.487 212.81,348.249 211.284,349.775 213.522,353.271 215.204,353.695 "
   id="polygon88" />&#10;						</g>&#10;						<g
   id="g91">&#10;							&#10;								<path
   style="fill:none;stroke:#f9fbfc;stroke-width:1.1259;stroke-linecap:round;stroke-linejoin:round;stroke-miterlimit:10"
   d="m 230.049,365.488 6.88,-6.88 1.036,0.218 c 1.147,0.241 2.342,0.057 3.363,-0.517 l 0.036,-0.02 c 0.782,-0.439 1.426,-1.087 1.86,-1.872 l 1.431,-2.581 -0.905,-0.905 -2.251,2.251 c -0.388,0.388 -0.953,0.539 -1.482,0.397 l -1.373,-0.368 c -0.53,-0.142 -0.943,-0.556 -1.085,-1.085 l -0.368,-1.373 c -0.142,-0.53 0.01,-1.095 0.397,-1.483 l 2.251,-2.251 -0.104,-0.104 -0.905,-0.904 -2.581,1.43 c -0.784,0.435 -1.432,1.079 -1.872,1.86 -0.586,1.043 -0.765,2.267 -0.501,3.434 l 0.218,0.965 -6.916,6.916"
   id="path89" />&#10;							&#10;								<path
   style="fill:none;stroke:#f9fbfc;stroke-width:1.1259;stroke-linecap:round;stroke-linejoin:round;stroke-miterlimit:10"
   d="m 225.653,364.145 -6.88,6.88 -1.036,-0.218 c -1.147,-0.241 -2.342,-0.057 -3.363,0.517 l -0.036,0.021 c -0.782,0.439 -1.426,1.087 -1.86,1.871 l -1.43,2.581 0.905,0.904 2.251,-2.251 c 0.388,-0.388 0.953,-0.539 1.483,-0.397 l 1.372,0.368 c 0.53,0.142 0.943,0.556 1.085,1.085 l 0.368,1.373 c 0.142,0.53 -0.01,1.095 -0.397,1.483 l -2.251,2.251 0.104,0.104 0.904,0.904 2.581,-1.43 c 0.784,-0.435 1.432,-1.079 1.871,-1.86 0.586,-1.043 0.765,-2.267 0.501,-3.435 l -0.218,-0.965 6.916,-6.916"
   id="path90" />&#10;							&#10;								<line
   style="fill:none;stroke:#f9fbfc;stroke-width:1.1259;stroke-linecap:round;stroke-linejoin:round;stroke-miterlimit:10"
   x1="228.614"
   y1="364.05301"
   x2="235.41701"
   y2="357.25"
   id="line90" />&#10;							&#10;								<line
   style="fill:none;stroke:#f9fbfc;stroke-width:1.1259;stroke-linecap:round;stroke-linejoin:round;stroke-miterlimit:10"
   x1="220.285"
   y1="372.38199"
   x2="227.088"
   y2="365.57901"
   id="line91" />&#10;						</g>&#10;					</g>&#10;				</g>&#10;				<g
   id="g125">&#10;					&#10;						<text
   transform="translate(138.7772,325.5977)"
   style="font-size:7.3955px;font-family:Poppins-ExtraBold;fill:#f9fbfc"
   id="text93">COLLECTION</text>&#10;					<g
   id="g124">&#10;						<g
   id="g103">&#10;							&#10;								<path
   style="fill:none;stroke:#f9fbfc;stroke-width:1.1259;stroke-linecap:round;stroke-linejoin:round;stroke-miterlimit:10"
   d="m 165.786,281.944 c -0.861,0 -1.625,-0.421 -2.255,-1.007 -0.385,-0.358 -0.9,-0.578 -1.469,-0.578 -0.569,0 -1.084,0.22 -1.469,0.578 -0.63,0.587 -1.395,1.007 -2.255,1.007 h -4.155 l 0.191,3.804 h 15.374 l 0.191,-3.804 z"
   id="path93" />&#10;							&#10;								<path
   style="fill:none;stroke:#f9fbfc;stroke-width:1.1259;stroke-linecap:round;stroke-linejoin:round;stroke-miterlimit:10"
   d="m 157.616,309.407 h 8.892 c 1.149,0 2.096,-0.901 2.153,-2.048 l 0.969,-19.27 h -15.138 l 0.969,19.27 c 0.059,1.148 1.006,2.048 2.155,2.048 z"
   id="path94" />&#10;							&#10;								<rect
   x="157.44901"
   y="309.40701"
   style="fill:none;stroke:#f9fbfc;stroke-width:1.1259;stroke-linecap:round;stroke-linejoin:round;stroke-miterlimit:10"
   width="1.761"
   height="1.761"
   id="rect94" />&#10;							&#10;								<rect
   x="164.97501"
   y="309.40701"
   style="fill:none;stroke:#f9fbfc;stroke-width:1.1259;stroke-linecap:round;stroke-linejoin:round;stroke-miterlimit:10"
   width="1.761"
   height="1.761"
   id="rect95" />&#10;							<g
   id="g95">&#10;								&#10;									<polyline
   style="fill:none;stroke:#f9fbfc;stroke-width:1.1259;stroke-linecap:round;stroke-linejoin:round;stroke-miterlimit:10"
   points="          169.749,285.748 169.94,281.944 154.184,281.944 154.375,285.748         "
   id="polyline95" />&#10;							</g>&#10;							<g
   id="g102">&#10;								<g
   id="g97">&#10;									&#10;										<polyline
   style="fill:none;stroke:#f9fbfc;stroke-width:1.1259;stroke-linecap:round;stroke-linejoin:round;stroke-miterlimit:10"
   points="           163.238,299.253 165.454,299.253 163.758,296.315          "
   id="polyline96" />&#10;									&#10;										<polyline
   style="fill:none;stroke:#f9fbfc;stroke-width:1.1259;stroke-linecap:round;stroke-linejoin:round;stroke-miterlimit:10"
   points="           163.914,298.701 163.238,299.253 163.914,299.806          "
   id="polyline97" />&#10;								</g>&#10;								<g
   id="g99">&#10;									&#10;										<polyline
   style="fill:none;stroke:#f9fbfc;stroke-width:1.1259;stroke-linecap:round;stroke-linejoin:round;stroke-miterlimit:10"
   points="           163.17,295.297 162.062,293.378 160.366,296.315          "
   id="polyline98" />&#10;									&#10;										<polyline
   style="fill:none;stroke:#f9fbfc;stroke-width:1.1259;stroke-linecap:round;stroke-linejoin:round;stroke-miterlimit:10"
   points="           162.354,294.988 163.17,295.297 163.311,294.435          "
   id="polyline99" />&#10;								</g>&#10;								<g
   id="g101">&#10;									&#10;										<polyline
   style="fill:none;stroke:#f9fbfc;stroke-width:1.1259;stroke-linecap:round;stroke-linejoin:round;stroke-miterlimit:10"
   points="           159.778,297.334 158.67,299.253 162.062,299.253          "
   id="polyline100" />&#10;									&#10;										<polyline
   style="fill:none;stroke:#f9fbfc;stroke-width:1.1259;stroke-linecap:round;stroke-linejoin:round;stroke-miterlimit:10"
   points="           159.918,298.196 159.778,297.334 158.961,297.643          "
   id="polyline101" />&#10;								</g>&#10;							</g>&#10;						</g>&#10;						<g
   id="g113">&#10;							&#10;								<path
   style="fill:none;stroke:#f9fbfc;stroke-width:1.1259;stroke-linecap:round;stroke-linejoin:round;stroke-miterlimit:10"
   d="m 183.44,281.944 c -0.861,0 -1.625,-0.421 -2.255,-1.007 -0.385,-0.358 -0.9,-0.578 -1.469,-0.578 -0.569,0 -1.084,0.22 -1.469,0.578 -0.63,0.587 -1.394,1.007 -2.255,1.007 h -4.155 l 0.191,3.804 h 15.374 l 0.191,-3.804 z"
   id="path103" />&#10;							&#10;								<path
   style="fill:none;stroke:#f9fbfc;stroke-width:1.1259;stroke-linecap:round;stroke-linejoin:round;stroke-miterlimit:10"
   d="m 175.27,309.407 h 8.893 c 1.149,0 2.096,-0.901 2.153,-2.048 l 0.969,-19.27 h -15.138 l 0.97,19.27 c 0.057,1.148 1.004,2.048 2.153,2.048 z"
   id="path104" />&#10;							&#10;								<rect
   x="175.104"
   y="309.40701"
   style="fill:none;stroke:#f9fbfc;stroke-width:1.1259;stroke-linecap:round;stroke-linejoin:round;stroke-miterlimit:10"
   width="1.761"
   height="1.761"
   id="rect104" />&#10;							&#10;								<rect
   x="182.629"
   y="309.40701"
   style="fill:none;stroke:#f9fbfc;stroke-width:1.1259;stroke-linecap:round;stroke-linejoin:round;stroke-miterlimit:10"
   width="1.761"
   height="1.761"
   id="rect105" />&#10;							<g
   id="g105">&#10;								&#10;									<polyline
   style="fill:none;stroke:#f9fbfc;stroke-width:1.1259;stroke-linecap:round;stroke-linejoin:round;stroke-miterlimit:10"
   points="          187.403,285.748 187.594,281.944 171.838,281.944 172.029,285.748         "
   id="polyline105" />&#10;							</g>&#10;							<g
   id="g112">&#10;								<g
   id="g107">&#10;									&#10;										<polyline
   style="fill:none;stroke:#f9fbfc;stroke-width:1.1259;stroke-linecap:round;stroke-linejoin:round;stroke-miterlimit:10"
   points="           180.892,299.253 183.108,299.253 181.412,296.315          "
   id="polyline106" />&#10;									&#10;										<polyline
   style="fill:none;stroke:#f9fbfc;stroke-width:1.1259;stroke-linecap:round;stroke-linejoin:round;stroke-miterlimit:10"
   points="           181.568,298.701 180.892,299.253 181.568,299.806          "
   id="polyline107" />&#10;								</g>&#10;								<g
   id="g109">&#10;									&#10;										<polyline
   style="fill:none;stroke:#f9fbfc;stroke-width:1.1259;stroke-linecap:round;stroke-linejoin:round;stroke-miterlimit:10"
   points="           180.824,295.297 179.716,293.378 178.02,296.315          "
   id="polyline108" />&#10;									&#10;										<polyline
   style="fill:none;stroke:#f9fbfc;stroke-width:1.1259;stroke-linecap:round;stroke-linejoin:round;stroke-miterlimit:10"
   points="           180.008,294.988 180.824,295.297 180.965,294.435          "
   id="polyline109" />&#10;								</g>&#10;								<g
   id="g111">&#10;									&#10;										<polyline
   style="fill:none;stroke:#f9fbfc;stroke-width:1.1259;stroke-linecap:round;stroke-linejoin:round;stroke-miterlimit:10"
   points="           177.432,297.334 176.324,299.253 179.716,299.253          "
   id="polyline110" />&#10;									&#10;										<polyline
   style="fill:none;stroke:#f9fbfc;stroke-width:1.1259;stroke-linecap:round;stroke-linejoin:round;stroke-miterlimit:10"
   points="           177.572,298.196 177.432,297.334 176.615,297.643          "
   id="polyline111" />&#10;								</g>&#10;							</g>&#10;						</g>&#10;						<g
   id="g123">&#10;							&#10;								<path
   style="fill:none;stroke:#f9fbfc;stroke-width:1.1259;stroke-linecap:round;stroke-linejoin:round;stroke-miterlimit:10"
   d="m 148.132,281.944 c -0.861,0 -1.625,-0.421 -2.255,-1.007 -0.385,-0.358 -0.9,-0.578 -1.469,-0.578 -0.569,0 -1.084,0.22 -1.469,0.578 -0.63,0.587 -1.395,1.007 -2.255,1.007 h -4.154 l 0.191,3.804 h 15.374 l 0.191,-3.804 z"
   id="path113" />&#10;							&#10;								<path
   style="fill:none;stroke:#f9fbfc;stroke-width:1.1259;stroke-linecap:round;stroke-linejoin:round;stroke-miterlimit:10"
   d="m 139.962,309.407 h 8.893 c 1.149,0 2.095,-0.901 2.153,-2.048 l 0.97,-19.27 H 136.84 l 0.969,19.27 c 0.057,1.148 1.004,2.048 2.153,2.048 z"
   id="path114" />&#10;							&#10;								<rect
   x="139.795"
   y="309.40701"
   style="fill:none;stroke:#f9fbfc;stroke-width:1.1259;stroke-linecap:round;stroke-linejoin:round;stroke-miterlimit:10"
   width="1.761"
   height="1.761"
   id="rect114" />&#10;							&#10;								<rect
   x="147.321"
   y="309.40701"
   style="fill:none;stroke:#f9fbfc;stroke-width:1.1259;stroke-linecap:round;stroke-linejoin:round;stroke-miterlimit:10"
   width="1.761"
   height="1.761"
   id="rect115" />&#10;							<g
   id="g115">&#10;								&#10;									<polyline
   style="fill:none;stroke:#f9fbfc;stroke-width:1.1259;stroke-linecap:round;stroke-linejoin:round;stroke-miterlimit:10"
   points="          152.095,285.748 152.286,281.944 136.53,281.944 136.721,285.748         "
   id="polyline115" />&#10;							</g>&#10;							<g
   id="g122">&#10;								<g
   id="g117">&#10;									&#10;										<polyline
   style="fill:none;stroke:#f9fbfc;stroke-width:1.1259;stroke-linecap:round;stroke-linejoin:round;stroke-miterlimit:10"
   points="           145.584,299.253 147.8,299.253 146.104,296.315          "
   id="polyline116" />&#10;									&#10;										<polyline
   style="fill:none;stroke:#f9fbfc;stroke-width:1.1259;stroke-linecap:round;stroke-linejoin:round;stroke-miterlimit:10"
   points="           146.26,298.701 145.584,299.253 146.26,299.806          "
   id="polyline117" />&#10;								</g>&#10;								<g
   id="g119">&#10;									&#10;										<polyline
   style="fill:none;stroke:#f9fbfc;stroke-width:1.1259;stroke-linecap:round;stroke-linejoin:round;stroke-miterlimit:10"
   points="           145.516,295.297 144.408,293.378 142.712,296.315          "
   id="polyline118" />&#10;									&#10;										<polyline
   style="fill:none;stroke:#f9fbfc;stroke-width:1.1259;stroke-linecap:round;stroke-linejoin:round;stroke-miterlimit:10"
   points="           144.7,294.988 145.516,295.297 145.657,294.435          "
   id="polyline119" />&#10;								</g>&#10;								<g
   id="g121">&#10;									&#10;										<polyline
   style="fill:none;stroke:#f9fbfc;stroke-width:1.1259;stroke-linecap:round;stroke-linejoin:round;stroke-miterlimit:10"
   points="           142.124,297.334 141.016,299.253 144.408,299.253          "
   id="polyline120" />&#10;									&#10;										<polyline
   style="fill:none;stroke:#f9fbfc;stroke-width:1.1259;stroke-linecap:round;stroke-linejoin:round;stroke-miterlimit:10"
   points="           142.264,298.196 142.124,297.334 141.307,297.643          "
   id="polyline121" />&#10;								</g>&#10;							</g>&#10;						</g>&#10;					</g>&#10;				</g>&#10;				<g
   id="g131">&#10;					<g
   id="g126">&#10;						&#10;							<text
   transform="translate(168.2596,192.876)"
   style="font-size:7.3955px;font-family:Poppins-ExtraBold;fill:#f9fbfc"
   id="text125">RECYCLING</text>&#10;					</g>&#10;					<g
   id="g130">&#10;						<g
   id="g127">&#10;							&#10;								<path
   style="fill:none;stroke:#f9fbfc;stroke-width:1.1259;stroke-linecap:round;stroke-linejoin:round;stroke-miterlimit:10"
   d="m 173.544,148.336 2.479,-4.293 c 1.274,-2.207 3.63,-3.567 6.178,-3.567 h 14.617 c 2.549,0 4.904,1.36 6.178,3.567 l 3.654,6.329 v 0 l 2.804,-1.619 -4.175,9.374 h -12.06 l 2.804,-1.619 v 0 l -6.514,-11.282 -5.516,9.772"
   id="path126" />&#10;							&#10;								<line
   style="fill:none;stroke:#f9fbfc;stroke-width:1.1259;stroke-linecap:round;stroke-linejoin:round;stroke-miterlimit:10"
   x1="192.252"
   y1="140.476"
   x2="189.50999"
   y2="145.226"
   id="line126" />&#10;						</g>&#10;						<g
   id="g128">&#10;							&#10;								<path
   style="fill:none;stroke:#f9fbfc;stroke-width:1.1259;stroke-linecap:round;stroke-linejoin:round;stroke-miterlimit:10"
   d="m 187.158,180.062 h -4.957 c -2.549,0 -4.904,-1.36 -6.178,-3.567 l -7.309,-12.659 c -1.274,-2.207 -1.274,-4.927 0,-7.134 l 3.654,-6.329 v 0 l -2.804,-1.619 10.205,-1.071 6.03,10.444 -2.804,-1.619 v 0 l -6.514,11.282 11.157,-0.108"
   id="path127" />&#10;							&#10;								<line
   style="fill:none;stroke:#f9fbfc;stroke-width:1.1259;stroke-linecap:round;stroke-linejoin:round;stroke-miterlimit:10"
   x1="170.99699"
   y1="167.78999"
   x2="176.48199"
   y2="167.78999"
   id="line127" />&#10;						</g>&#10;						<g
   id="g129">&#10;							&#10;								<path
   style="fill:none;stroke:#f9fbfc;stroke-width:1.1259;stroke-linecap:round;stroke-linejoin:round;stroke-miterlimit:10"
   d="m 207.826,152.409 2.479,4.293 c 1.274,2.207 1.274,4.927 0,7.134 l -7.309,12.659 c -1.274,2.207 -3.629,3.567 -6.178,3.567 h -7.309 v 0 3.238 l -6.03,-8.303 6.03,-10.444 v 3.238 0 h 13.027 l -5.704,-9.663"
   id="path128" />&#10;							&#10;								<line
   style="fill:none;stroke:#f9fbfc;stroke-width:1.1259;stroke-linecap:round;stroke-linejoin:round;stroke-miterlimit:10"
   x1="205.27901"
   y1="172.53999"
   x2="202.537"
   y2="167.78999"
   id="line128" />&#10;						</g>&#10;					</g>&#10;				</g>&#10;			</g>&#10;			<g
   id="g139">&#10;				<g
   id="g138">&#10;					<g
   id="g135">&#10;						&#10;							<path
   style="fill:none;stroke:#808285;stroke-width:1.1259;stroke-linecap:round;stroke-linejoin:round;stroke-miterlimit:10"
   d="m 91.372,103.424 c -1.713,4.464 -6.04,7.633 -11.107,7.633 -6.568,0 -11.892,-5.324 -11.892,-11.892 0,-5.02 6.948,-26.432 10.223,-36.242 0.536,-1.607 2.802,-1.607 3.339,0 2.283,6.839 6.351,19.317 8.606,27.948"
   id="path132" />&#10;						<g
   id="g134">&#10;							&#10;								<line
   style="fill:none;stroke:#808285;stroke-width:1.1259;stroke-linecap:round;stroke-linejoin:round;stroke-miterlimit:10"
   x1="80.264999"
   y1="79.484001"
   x2="80.264999"
   y2="117.203"
   id="line132" />&#10;							&#10;								<polyline
   style="fill:none;stroke:#808285;stroke-width:1.1259;stroke-linecap:round;stroke-linejoin:round;stroke-miterlimit:10"
   points="         83.868,82.788 80.267,86.389 76.648,82.77        "
   id="polyline132" />&#10;							&#10;								<polyline
   style="fill:none;stroke:#808285;stroke-width:1.1259;stroke-linecap:round;stroke-linejoin:round;stroke-miterlimit:10"
   points="         86.125,88.955 80.272,94.807 74.39,88.925        "
   id="polyline133" />&#10;							&#10;								<polyline
   style="fill:none;stroke:#808285;stroke-width:1.1259;stroke-linecap:round;stroke-linejoin:round;stroke-miterlimit:10"
   points="         87.761,96.433 80.277,103.918 72.754,96.395        "
   id="polyline134" />&#10;						</g>&#10;					</g>&#10;					<g
   id="g137">&#10;						&#10;							<circle
   transform="matrix(0.238,-0.9713,0.9713,0.238,-15.6357,172.8609)"
   style="fill:none;stroke:#808285;stroke-width:1.1259;stroke-linecap:round;stroke-linejoin:round;stroke-miterlimit:10"
   cx="102.343"
   cy="96.394997"
   id="ellipse135"
   r="13.033" />&#10;						<g
   id="g136">&#10;							&#10;								<line
   style="fill:none;stroke:#808285;stroke-width:1.1259;stroke-linecap:round;stroke-linejoin:round;stroke-miterlimit:10"
   x1="102.349"
   y1="91.388"
   x2="102.349"
   y2="117.203"
   id="line135" />&#10;							&#10;								<polyline
   style="fill:none;stroke:#808285;stroke-width:1.1259;stroke-linecap:round;stroke-linejoin:round;stroke-miterlimit:10"
   points="         105.05,93.866 102.35,96.565 99.637,93.852        "
   id="polyline135" />&#10;							&#10;								<polyline
   style="fill:none;stroke:#808285;stroke-width:1.1259;stroke-linecap:round;stroke-linejoin:round;stroke-miterlimit:10"
   points="         106.742,98.489 102.355,102.877 97.945,98.466        "
   id="polyline136" />&#10;						</g>&#10;					</g>&#10;				</g>&#10;				&#10;					<text
   transform="translate(63.2557,129.5313)"
   style="font-size:7.3955px;font-family:Poppins-ExtraBold;fill:#6d6e71"
   id="text138">RAW MATERIAL</text>&#10;			</g>&#10;			<g
   id="g148">&#10;				<text
   transform="translate(31.2,247.1572)"
   id="text140"><tspan
     x="0"
     y="0"
     style="font-size:7.3955px;font-family:Poppins-ExtraBold;fill:#6d6e71"
     id="tspan139">RESIDUAL</tspan><tspan
     x="4.5370002"
     y="8.875"
     style="font-size:7.3955px;font-family:Poppins-ExtraBold;fill:#6d6e71"
     id="tspan140">WASTE</tspan></text>&#10;				<g
   id="g147">&#10;					&#10;						<path
   style="fill:none;stroke:#808285;stroke-width:1.1259;stroke-linecap:round;stroke-linejoin:round;stroke-miterlimit:10"
   d="m 44.613,233.775 h 8.893 c 1.149,0 2.095,-0.9 2.153,-2.048 l 0.97,-19.27 H 41.49 l 0.97,19.27 c 0.057,1.147 1.004,2.048 2.153,2.048 z"
   id="path140" />&#10;					&#10;						<rect
   x="44.446999"
   y="233.77499"
   style="fill:none;stroke:#808285;stroke-width:1.1259;stroke-linecap:round;stroke-linejoin:round;stroke-miterlimit:10"
   width="1.761"
   height="1.761"
   id="rect140" />&#10;					&#10;						<rect
   x="51.972"
   y="233.77499"
   style="fill:none;stroke:#808285;stroke-width:1.1259;stroke-linecap:round;stroke-linejoin:round;stroke-miterlimit:10"
   width="1.761"
   height="1.761"
   id="rect141" />&#10;					<g
   id="g144">&#10;						&#10;							<line
   style="fill:none;stroke:#808285;stroke-width:1.1259;stroke-linecap:round;stroke-linejoin:round;stroke-miterlimit:10"
   x1="53.52"
   y1="215.222"
   x2="53.021999"
   y2="231.72701"
   id="line141" />&#10;						&#10;							<line
   style="fill:none;stroke:#808285;stroke-width:1.1259;stroke-linecap:round;stroke-linejoin:round;stroke-miterlimit:10"
   x1="50.551998"
   y1="215.222"
   x2="50.386002"
   y2="231.72701"
   id="line142" />&#10;						&#10;							<line
   style="fill:none;stroke:#808285;stroke-width:1.1259;stroke-linecap:round;stroke-linejoin:round;stroke-miterlimit:10"
   x1="47.583"
   y1="215.222"
   x2="47.749001"
   y2="231.72701"
   id="line143" />&#10;						&#10;							<line
   style="fill:none;stroke:#808285;stroke-width:1.1259;stroke-linecap:round;stroke-linejoin:round;stroke-miterlimit:10"
   x1="44.613998"
   y1="215.222"
   x2="45.112999"
   y2="231.72701"
   id="line144" />&#10;					</g>&#10;					&#10;						<rect
   x="40.120998"
   y="210.00999"
   style="fill:none;stroke:#808285;stroke-width:1.1259;stroke-linecap:round;stroke-linejoin:round;stroke-miterlimit:10"
   width="17.875999"
   height="2.448"
   id="rect144" />&#10;					&#10;						<path
   style="fill:none;stroke:#808285;stroke-width:1.1259;stroke-linecap:round;stroke-linejoin:round;stroke-miterlimit:10"
   d="m 40.649,210.01 c 0,0 0,-2.514 2.203,-2.199 0,0 0.472,-2.885 3.619,-2.203 0,0 1.731,-1.416 3.462,-0.42 0,0 1.878,-1.678 3.089,0.262 0,0 2.313,-0.154 1.946,2.203 0,0 2.622,-0.091 2.57,2.356 H 40.649 Z"
   id="path144" />&#10;					&#10;						<path
   style="fill:none;stroke:#808285;stroke-width:1.1259;stroke-linecap:round;stroke-linejoin:round;stroke-miterlimit:10"
   d="m 44.614,208.269 c 0,0 1.149,-1.416 2.644,-0.669"
   id="path145" />&#10;					&#10;						<path
   style="fill:none;stroke:#808285;stroke-width:1.1259;stroke-linecap:round;stroke-linejoin:round;stroke-miterlimit:10"
   d="m 49.094,207.509 c 0,0 0.983,-1.112 1.849,0"
   id="path146" />&#10;					&#10;						<path
   style="fill:none;stroke:#808285;stroke-width:1.1259;stroke-linecap:round;stroke-linejoin:round;stroke-miterlimit:10"
   d="m 52.007,208.527 c 0,0 0.352,-0.874 1.317,-0.354"
   id="path147" />&#10;				</g>&#10;			</g>&#10;		</g>&#10;	</g>&#10;</g></g></svg>
