<?xml version="1.0" encoding="UTF-8" standalone="no"?>
<!-- Created with Inkscape (http://www.inkscape.org/) -->

<svg
   width="47.336067mm"
   height="56.895035mm"
   viewBox="0 0 47.336068 56.895035"
   version="1.1"
   id="svg1"
   xml:space="preserve"
   xmlns:inkscape="http://www.inkscape.org/namespaces/inkscape"
   xmlns:sodipodi="http://sodipodi.sourceforge.net/DTD/sodipodi-0.dtd"
   xmlns="http://www.w3.org/2000/svg"
   xmlns:svg="http://www.w3.org/2000/svg"><sodipodi:namedview
     id="namedview1"
     pagecolor="#ffffff"
     bordercolor="#000000"
     borderopacity="0.25"
     inkscape:showpageshadow="2"
     inkscape:pageopacity="0.0"
     inkscape:pagecheckerboard="0"
     inkscape:deskcolor="#d1d1d1"
     inkscape:document-units="mm"><inkscape:page
       x="-8.6203236e-06"
       y="1.6814815e-07"
       width="47.336071"
       height="56.895035"
       id="page3"
       margin="0"
       bleed="0" /></sodipodi:namedview><defs
     id="defs1"><clipPath
       clipPathUnits="userSpaceOnUse"
       id="clipPath371"><path
         d="M 0,500 H 500 V 0 H 0 Z"
         transform="translate(-405.87661,-376.05191)"
         id="path371" /></clipPath><clipPath
       clipPathUnits="userSpaceOnUse"
       id="clipPath373"><path
         d="M 0,500 H 500 V 0 H 0 Z"
         transform="translate(-411.76041,-388.07781)"
         id="path373" /></clipPath><clipPath
       clipPathUnits="userSpaceOnUse"
       id="clipPath375"><path
         d="M 0,500 H 500 V 0 H 0 Z"
         transform="translate(-418.69301,-389.91961)"
         id="path375" /></clipPath><clipPath
       clipPathUnits="userSpaceOnUse"
       id="clipPath377"><path
         d="M 0,500 H 500 V 0 H 0 Z"
         transform="translate(-380.51431,-388.07781)"
         id="path377" /></clipPath><clipPath
       clipPathUnits="userSpaceOnUse"
       id="clipPath379"><path
         d="M 0,500 H 500 V 0 H 0 Z"
         transform="translate(-373.58171,-389.91961)"
         id="path379" /></clipPath><clipPath
       clipPathUnits="userSpaceOnUse"
       id="clipPath381"><path
         d="M 0,500 H 500 V 0 H 0 Z"
         transform="translate(-409.01231,-343.20091)"
         id="path381" /></clipPath><clipPath
       clipPathUnits="userSpaceOnUse"
       id="clipPath383"><path
         d="M 0,500 H 500 V 0 H 0 Z"
         transform="translate(-408.48691,-350.16421)"
         id="path383" /></clipPath><clipPath
       clipPathUnits="userSpaceOnUse"
       id="clipPath385"><path
         d="M 0,500 H 500 V 0 H 0 Z"
         transform="translate(-417.64511,-382.07001)"
         id="path385" /></clipPath><clipPath
       clipPathUnits="userSpaceOnUse"
       id="clipPath387"><path
         d="M 0,500 H 500 V 0 H 0 Z"
         transform="translate(-417.08461,-391.82241)"
         id="path387" /></clipPath><clipPath
       clipPathUnits="userSpaceOnUse"
       id="clipPath389"><path
         d="M 0,500 H 500 V 0 H 0 Z"
         transform="translate(-417.64511,-382.07001)"
         id="path389" /></clipPath><clipPath
       clipPathUnits="userSpaceOnUse"
       id="clipPath391"><path
         d="M 0,500 H 500 V 0 H 0 Z"
         transform="translate(-393.16561,-356.44111)"
         id="path391" /></clipPath><clipPath
       clipPathUnits="userSpaceOnUse"
       id="clipPath393"><path
         d="M 0,500 H 500 V 0 H 0 Z"
         transform="translate(-406.01041,-371.92111)"
         id="path393" /></clipPath><clipPath
       clipPathUnits="userSpaceOnUse"
       id="clipPath395"><path
         d="M 0,500 H 500 V 0 H 0 Z"
         transform="translate(-396.37851,-369.12031)"
         id="path395" /></clipPath><clipPath
       clipPathUnits="userSpaceOnUse"
       id="clipPath397"><path
         d="M 0,500 H 500 V 0 H 0 Z"
         transform="translate(-401.06901,-395.65301)"
         id="path397" /></clipPath><clipPath
       clipPathUnits="userSpaceOnUse"
       id="clipPath399"><path
         d="M 0,500 H 500 V 0 H 0 Z"
         transform="translate(-391.40591,-393.06761)"
         id="path399" /></clipPath><clipPath
       clipPathUnits="userSpaceOnUse"
       id="clipPath401"><path
         d="M 0,500 H 500 V 0 H 0 Z"
         transform="translate(-401.48401,-387.09831)"
         id="path401" /></clipPath><clipPath
       clipPathUnits="userSpaceOnUse"
       id="clipPath403"><path
         d="M 0,500 H 500 V 0 H 0 Z"
         transform="translate(-405.12851,-388.70181)"
         id="path403" /></clipPath><clipPath
       clipPathUnits="userSpaceOnUse"
       id="clipPath405"><path
         d="M 0,500 H 500 V 0 H 0 Z"
         transform="translate(-401.86391,-386.93911)"
         id="path405" /></clipPath><clipPath
       clipPathUnits="userSpaceOnUse"
       id="clipPath407"><path
         d="M 0,500 H 500 V 0 H 0 Z"
         transform="translate(-401.60311,-389.16131)"
         id="path407" /></clipPath><clipPath
       clipPathUnits="userSpaceOnUse"
       id="clipPath409"><path
         d="M 0,500 H 500 V 0 H 0 Z"
         transform="translate(-392.51141,-386.81851)"
         id="path409" /></clipPath><clipPath
       clipPathUnits="userSpaceOnUse"
       id="clipPath411"><path
         d="M 0,500 H 500 V 0 H 0 Z"
         transform="translate(-389.20181,-388.70181)"
         id="path411" /></clipPath><clipPath
       clipPathUnits="userSpaceOnUse"
       id="clipPath413"><path
         d="M 0,500 H 500 V 0 H 0 Z"
         transform="translate(-392.46641,-386.93911)"
         id="path413" /></clipPath><clipPath
       clipPathUnits="userSpaceOnUse"
       id="clipPath415"><path
         d="M 0,500 H 500 V 0 H 0 Z"
         transform="translate(-392.72721,-389.16131)"
         id="path415" /></clipPath><clipPath
       clipPathUnits="userSpaceOnUse"
       id="clipPath417"><path
         d="M 0,500 H 500 V 0 H 0 Z"
         transform="translate(-397.09051,-380.24241)"
         id="path417" /></clipPath><clipPath
       clipPathUnits="userSpaceOnUse"
       id="clipPath419"><path
         d="M 0,500 H 500 V 0 H 0 Z"
         transform="translate(-393.98211,-378.69161)"
         id="path419" /></clipPath><clipPath
       clipPathUnits="userSpaceOnUse"
       id="clipPath421"><path
         d="M 0,500 H 500 V 0 H 0 Z"
         transform="translate(-398.32091,-371.59591)"
         id="path421" /></clipPath><clipPath
       clipPathUnits="userSpaceOnUse"
       id="clipPath423"><path
         d="M 0,500 H 500 V 0 H 0 Z"
         transform="translate(-394.75451,-371.51531)"
         id="path423" /></clipPath><clipPath
       clipPathUnits="userSpaceOnUse"
       id="clipPath425"><path
         d="M 0,500 H 500 V 0 H 0 Z"
         transform="translate(-394.75451,-371.51531)"
         id="path425" /></clipPath><clipPath
       clipPathUnits="userSpaceOnUse"
       id="clipPath427"><path
         d="M 0,500 H 500 V 0 H 0 Z"
         transform="translate(-396.59051,-375.90401)"
         id="path427" /></clipPath><clipPath
       clipPathUnits="userSpaceOnUse"
       id="clipPath429"><path
         d="M 0,500 H 500 V 0 H 0 Z"
         transform="translate(-396.59921,-375.90401)"
         id="path429" /></clipPath><clipPath
       clipPathUnits="userSpaceOnUse"
       id="clipPath431"><path
         d="M 0,500 H 500 V 0 H 0 Z"
         transform="translate(-398.27211,-410.38251)"
         id="path431" /></clipPath><clipPath
       clipPathUnits="userSpaceOnUse"
       id="clipPath433"><path
         d="M 0,500 H 500 V 0 H 0 Z"
         transform="translate(-409.09141,-424.88931)"
         id="path433" /></clipPath><clipPath
       clipPathUnits="userSpaceOnUse"
       id="clipPath435"><path
         d="M 0,500 H 500 V 0 H 0 Z"
         transform="translate(-399.64901,-412.82881)"
         id="path435" /></clipPath><clipPath
       clipPathUnits="userSpaceOnUse"
       id="clipPath437"><path
         d="M 0,500 H 500 V 0 H 0 Z"
         transform="translate(-442.75941,-296.1891)"
         id="path437" /></clipPath><clipPath
       clipPathUnits="userSpaceOnUse"
       id="clipPath439"><path
         d="M 0,500 H 500 V 0 H 0 Z"
         transform="translate(-438.75351,-273.7956)"
         id="path439" /></clipPath><clipPath
       clipPathUnits="userSpaceOnUse"
       id="clipPath441"><path
         d="M 0,500 H 500 V 0 H 0 Z"
         transform="translate(-456.98301,-308.56371)"
         id="path441" /></clipPath><clipPath
       clipPathUnits="userSpaceOnUse"
       id="clipPath443"><path
         d="M 0,500 H 500 V 0 H 0 Z"
         transform="translate(-451.97521,-317.01681)"
         id="path443" /></clipPath><clipPath
       clipPathUnits="userSpaceOnUse"
       id="clipPath445"><path
         d="M 0,500 H 500 V 0 H 0 Z"
         transform="translate(-350.79261,-296.1891)"
         id="path445" /></clipPath><clipPath
       clipPathUnits="userSpaceOnUse"
       id="clipPath447"><path
         d="M 0,500 H 500 V 0 H 0 Z"
         transform="translate(-354.79751,-273.7956)"
         id="path447" /></clipPath><clipPath
       clipPathUnits="userSpaceOnUse"
       id="clipPath449"><path
         d="M 0,500 H 500 V 0 H 0 Z"
         transform="translate(-336.56901,-308.56371)"
         id="path449" /></clipPath><clipPath
       clipPathUnits="userSpaceOnUse"
       id="clipPath451"><path
         d="M 0,500 H 500 V 0 H 0 Z"
         transform="translate(-341.57581,-317.01681)"
         id="path451" /></clipPath><clipPath
       clipPathUnits="userSpaceOnUse"
       id="clipPath453"><path
         d="M 0,500 H 500 V 0 H 0 Z"
         transform="translate(-434.98601,-273.29321)"
         id="path453" /></clipPath><clipPath
       clipPathUnits="userSpaceOnUse"
       id="clipPath455"><path
         d="M 0,500 H 500 V 0 H 0 Z"
         transform="translate(-408.36291,-349.13011)"
         id="path455" /></clipPath><clipPath
       clipPathUnits="userSpaceOnUse"
       id="clipPath457"><path
         d="M 0,500 H 500 V 0 H 0 Z"
         transform="translate(-371.33851,-342.86251)"
         id="path457" /></clipPath><clipPath
       clipPathUnits="userSpaceOnUse"
       id="clipPath459"><path
         d="M 0,500 H 500 V 0 H 0 Z"
         transform="translate(-384.61681,-338.69991)"
         id="path459" /></clipPath><clipPath
       clipPathUnits="userSpaceOnUse"
       id="clipPath461"><path
         d="M 0,500 H 500 V 0 H 0 Z"
         transform="translate(-396.94981,-332.71361)"
         id="path461" /></clipPath><clipPath
       clipPathUnits="userSpaceOnUse"
       id="clipPath463"><path
         d="M 0,500 H 500 V 0 H 0 Z"
         transform="translate(-410.22421,-339.85421)"
         id="path463" /></clipPath><clipPath
       clipPathUnits="userSpaceOnUse"
       id="clipPath465"><path
         d="M 0,500 H 500 V 0 H 0 Z"
         transform="translate(-422.55431,-342.86251)"
         id="path465" /></clipPath></defs><g
     id="layer-MC1"
     inkscape:groupmode="layer"
     inkscape:label="OBJECTS"
     transform="matrix(0.26458333,0,0,0.26458334,120.99346,-54.549303)"><path
       id="path370"
       d="m 0,0 h -18.938 c -5.575,0 -10.315,4.8 -11.16,11.302 l -1.735,13.357 C -32.882,32.727 -27.591,40 -20.675,40 H 1.886 C 8.862,40 14.169,32.608 13.021,24.488 L 11.135,11.131 C 10.228,4.708 5.519,0 0,0"
       style="fill:#2e2e2e;fill-opacity:1;fill-rule:nonzero;stroke:none"
       transform="matrix(1.3333333,0,0,-1.3333333,-355.70927,283.83867)"
       clip-path="url(#clipPath371)" /><path
       id="path372"
       d="m 0,0 c -2.314,-3.717 -2.091,-8.121 0.5,-9.836 2.59,-1.715 6.566,-0.091 8.881,3.626 2.315,3.717 2.092,8.121 -0.499,9.836 C 6.291,5.341 2.314,3.717 0,0"
       style="fill:#f5f5ff;fill-opacity:1;fill-rule:nonzero;stroke:#2e2e2e;stroke-width:0.501;stroke-linecap:round;stroke-linejoin:round;stroke-miterlimit:10;stroke-dasharray:none;stroke-opacity:1"
       transform="matrix(1.3333333,0,0,-1.3333333,-347.8642,267.80414)"
       clip-path="url(#clipPath373)" /><path
       id="path374"
       d="M 0,0 C 1.122,-0.438 1.975,-1.504 2.156,-2.694 2.338,-3.885 1.842,-5.156 0.902,-5.909"
       style="fill:none;stroke:#2e2e2e;stroke-width:0.501;stroke-linecap:round;stroke-linejoin:round;stroke-miterlimit:10;stroke-dasharray:none;stroke-opacity:1"
       transform="matrix(1.3333333,0,0,-1.3333333,-338.62074,265.34841)"
       clip-path="url(#clipPath375)" /><path
       id="path376"
       d="m 0,0 c 2.314,-3.717 2.091,-8.121 -0.5,-9.836 -2.591,-1.715 -6.566,-0.091 -8.882,3.626 -2.314,3.717 -2.091,8.121 0.5,9.836 C -6.291,5.341 -2.314,3.717 0,0"
       style="fill:#f5f5ff;fill-opacity:1;fill-rule:nonzero;stroke:#2e2e2e;stroke-width:0.501;stroke-linecap:round;stroke-linejoin:round;stroke-miterlimit:10;stroke-dasharray:none;stroke-opacity:1"
       transform="matrix(1.3333333,0,0,-1.3333333,-389.52567,267.80414)"
       clip-path="url(#clipPath377)" /><path
       id="path378"
       d="m 0,0 c -1.122,-0.438 -1.975,-1.504 -2.156,-2.694 -0.183,-1.191 0.313,-2.462 1.254,-3.215"
       style="fill:none;stroke:#2e2e2e;stroke-width:0.501;stroke-linecap:round;stroke-linejoin:round;stroke-miterlimit:10;stroke-dasharray:none;stroke-opacity:1"
       transform="matrix(1.3333333,0,0,-1.3333333,-398.76914,265.34841)"
       clip-path="url(#clipPath379)" /><path
       id="path380"
       d="m 0,0 c 0.224,-6.718 -5.152,-12.273 -11.87,-12.273 -6.584,0 -11.882,5.343 -11.882,11.871 0,0.133 0,0.268 0.011,0.402 l 1.319,17.705 0.335,4.482 0.66,8.797 h 19.103 l 1.05,-13.905 0.749,-10.116 z"
       style="fill:#f5f5ff;fill-opacity:1;fill-rule:nonzero;stroke:#2e2e2e;stroke-width:0.559;stroke-linecap:round;stroke-linejoin:round;stroke-miterlimit:10;stroke-dasharray:none;stroke-opacity:1"
       transform="matrix(1.3333333,0,0,-1.3333333,-351.52834,327.64001)"
       clip-path="url(#clipPath381)" /><path
       id="path382"
       d="m 0,0 c -6.271,-0.447 -13.178,2.672 -17.917,8.73 -1.599,2.034 -2.817,4.236 -3.645,6.494 l 0.661,8.797 h 19.102 l 1.05,-13.905 z"
       style="fill:#2e2e2e;fill-opacity:1;fill-rule:nonzero;stroke:none"
       transform="matrix(1.3333333,0,0,-1.3333333,-352.22887,318.35561)"
       clip-path="url(#clipPath383)" /><path
       id="path384"
       d="m 0,0 c 0,-5.146 -2.103,-10.072 -5.827,-13.627 l -5.678,-5.096 c -1.722,-1.882 -4.154,-2.954 -6.708,-2.954 h -5.286 c -2.533,0 -4.937,1.052 -6.669,2.894 l -5.797,5.146 c -3.795,3.565 -5.937,8.531 -5.937,13.727 l 0.089,1.572 0.521,9.011 0.391,6.679 c 0,11.104 8.931,20.105 19.945,20.105 5.517,0 10.503,-2.253 14.107,-5.887 3.615,-3.635 5.848,-8.661 5.848,-14.218 l 0.44,-7.6 0.431,-7.499 z"
       style="fill:#f5f5ff;fill-opacity:1;fill-rule:nonzero;stroke:#2e2e2e;stroke-width:0.501;stroke-linecap:round;stroke-linejoin:round;stroke-miterlimit:10;stroke-dasharray:none;stroke-opacity:1"
       transform="matrix(1.3333333,0,0,-1.3333333,-340.01794,275.81454)"
       clip-path="url(#clipPath385)" /><path
       id="path386"
       d="m 0,0 h -0.621 c -2.924,4.285 -4.806,9.281 -5.427,14.428 -0.39,3.214 -4.956,4.295 -8.18,3.945 -1.452,-2.193 -4.005,-3.624 -6.638,-3.705 -2.634,-0.08 -5.217,1.682 -6.799,3.795 -3.214,0.35 -7.8,-0.731 -8.189,-3.945 -0.582,-4.816 -2.264,-9.502 -4.877,-13.597 l 0.39,6.679 c 0,11.103 8.932,20.105 19.945,20.105 5.517,0 10.503,-2.253 14.108,-5.888 C -2.674,18.183 -0.44,13.156 -0.44,7.6 Z"
       style="fill:#2e2e2e;fill-opacity:1;fill-rule:nonzero;stroke:none"
       transform="matrix(1.3333333,0,0,-1.3333333,-340.76527,262.81134)"
       clip-path="url(#clipPath387)" /><path
       id="path388"
       d="m 0,0 -0.13,2.253 c -1.562,-2.063 -3.474,-4.586 -4.826,-6.078 -1.953,-2.142 -5.307,-2.374 -8.651,-2.294 -0.872,0.02 -2.023,0.421 -3.184,0.952 -2.903,1.321 -6.508,1.321 -9.422,0 -1.151,-0.531 -2.323,-0.932 -3.194,-0.952 -3.344,-0.08 -6.698,0.152 -8.641,2.294 -1.181,1.302 -2.583,3.475 -3.765,5.487 L -41.902,0.09 c 0,-0.886 0.085,-1.762 0.207,-2.629 -0.039,0.065 -0.079,0.131 -0.118,0.196 l -0.089,-1.572 c 0,-5.196 2.142,-10.162 5.937,-13.727 l 5.797,-5.146 c 1.732,-1.842 4.136,-2.894 6.669,-2.894 h 5.286 c 2.554,0 4.986,1.072 6.708,2.954 l 5.678,5.096 C -2.103,-14.077 0,-9.151 0,-4.005 l -0.114,1.979 C -0.042,-1.356 0,-0.68 0,0"
       style="fill:#2e2e2e;fill-opacity:1;fill-rule:nonzero;stroke:none"
       transform="matrix(1.3333333,0,0,-1.3333333,-340.01794,275.81454)"
       clip-path="url(#clipPath389)" /><path
       id="path390"
       d="m 0,0 c 1.15,-0.009 2.3,0.104 3.451,0.122 1.144,0.059 2.32,0.04 3.436,0.097 2.235,0.182 4.374,1.187 5.955,2.804 l 0.01,0.011 0.002,0.002 c 0.923,0.781 1.861,1.546 2.82,2.288 C 14.834,4.45 13.973,3.6 13.096,2.766 l 0.012,0.012 C 11.582,0.997 9.289,-0.165 6.921,-0.274 5.736,-0.317 4.609,-0.264 3.451,-0.228 2.302,-0.18 1.146,-0.174 0,0"
       style="fill:#f5f5ff;fill-opacity:1;fill-rule:nonzero;stroke:none"
       transform="matrix(1.3333333,0,0,-1.3333333,-372.65727,309.98641)"
       clip-path="url(#clipPath391)" /><path
       id="path392"
       d="m 0,0 c -2.613,-2.665 -6.128,-4.156 -9.632,-4.042 -3.183,0.103 -6.298,1.537 -8.701,3.905 h 0.561 c 0.871,0.023 2.043,0.479 3.194,1.082 2.914,1.503 6.518,1.503 9.422,0 1.161,-0.603 2.312,-1.059 3.183,-1.082 C -1.312,-0.159 -0.65,-0.114 0,0"
       style="fill:#f5f5ff;fill-opacity:1;fill-rule:nonzero;stroke:none"
       transform="matrix(1.3333333,0,0,-1.3333333,-355.53087,289.34641)"
       clip-path="url(#clipPath393)" /><path
       id="path394"
       d="M 0,0 C 1.107,-0.461 1.682,-0.923 2.096,-1.384 2.489,-1.846 2.675,-2.307 2.675,-2.769 2.681,-3.23 2.496,-3.691 2.104,-4.153 1.69,-4.614 1.114,-5.076 0,-5.537 c -1.114,0.461 -1.69,0.923 -2.104,1.384 -0.392,0.462 -0.577,0.923 -0.571,1.384 -0.001,0.462 0.186,0.923 0.579,1.385 C -1.682,-0.923 -1.107,-0.461 0,0"
       style="fill:#2e2e2e;fill-opacity:1;fill-rule:nonzero;stroke:none"
       transform="matrix(1.3333333,0,0,-1.3333333,-368.3734,293.08081)"
       clip-path="url(#clipPath395)" /><path
       id="path396"
       d="M 0,0 C 0.931,0.559 1.949,0.943 3.022,1.23 4.097,1.506 5.237,1.664 6.414,1.622 7.585,1.584 8.803,1.315 9.871,0.753 10.94,0.199 11.823,-0.665 12.29,-1.701 11.21,-1.345 10.237,-1.158 9.309,-1.129 8.38,-1.099 7.492,-1.218 6.591,-1.38 4.785,-1.702 2.952,-2.329 0.888,-2.585 0.122,-2.681 -0.575,-2.138 -0.671,-1.372 -0.741,-0.807 -0.458,-0.276 0,0"
       style="fill:#2e2e2e;fill-opacity:1;fill-rule:nonzero;stroke:none"
       transform="matrix(1.3333333,0,0,-1.3333333,-362.1194,257.70387)"
       clip-path="url(#clipPath397)" /><path
       id="path398"
       d="m 0,0 c -2.063,0.257 -3.897,0.883 -5.702,1.205 -0.902,0.162 -1.79,0.281 -2.719,0.251 -0.929,-0.029 -1.9,-0.216 -2.98,-0.572 0.466,1.037 1.349,1.901 2.419,2.454 1.068,0.562 2.286,0.831 3.457,0.87 C -4.349,4.25 -3.208,4.091 -2.134,3.816 -1.062,3.528 -0.043,3.145 0.888,2.585 1.551,2.19 1.768,1.333 1.372,0.67 1.081,0.182 0.531,-0.063 0,0"
       style="fill:#2e2e2e;fill-opacity:1;fill-rule:nonzero;stroke:none"
       transform="matrix(1.3333333,0,0,-1.3333333,-375.00354,261.15107)"
       clip-path="url(#clipPath399)" /><path
       id="path400"
       d="M 0,0 C 0.288,0.446 0.593,0.875 0.897,1.311 1.243,1.747 1.615,2.18 2.068,2.524 2.959,3.23 4.059,3.675 5.194,3.844 6.332,3.987 7.525,3.865 8.579,3.393 9.117,3.186 9.599,2.856 10.054,2.525 10.471,2.204 10.893,1.887 11.167,1.363 11.229,1.243 11.184,1.095 11.063,1.033 11.016,1.008 10.964,1 10.914,1.007 10.329,1.093 9.891,1.385 9.449,1.673 9.028,1.923 8.604,2.146 8.148,2.301 7.248,2.627 6.286,2.746 5.332,2.667 4.386,2.566 3.433,2.287 2.619,1.747 2.192,1.507 1.824,1.176 1.465,0.833 1.091,0.463 0.723,0.082 0.334,-0.28 0.246,-0.363 0.106,-0.358 0.023,-0.27 -0.047,-0.194 -0.054,-0.083 0,0"
       style="fill:#2e2e2e;fill-opacity:1;fill-rule:nonzero;stroke:none"
       transform="matrix(1.3333333,0,0,-1.3333333,-361.56607,269.11014)"
       clip-path="url(#clipPath401)" /><path
       id="path402"
       d="M 0,0 C 0.072,1.014 0.954,1.777 1.969,1.704 2.982,1.631 3.746,0.75 3.673,-0.265 3.6,-1.279 2.718,-2.042 1.704,-1.969 0.689,-1.896 -0.073,-1.014 0,0"
       style="fill:#2e2e2e;fill-opacity:1;fill-rule:nonzero;stroke:none"
       transform="matrix(1.3333333,0,0,-1.3333333,-356.70674,266.97214)"
       clip-path="url(#clipPath403)" /><path
       id="path404"
       d="M 0,0 C 0.892,-0.473 1.926,-0.701 2.997,-0.663"
       style="fill:none;stroke:#2e2e2e;stroke-width:0.501;stroke-linecap:round;stroke-linejoin:round;stroke-miterlimit:10;stroke-dasharray:none;stroke-opacity:1"
       transform="matrix(1.3333333,0,0,-1.3333333,-361.05954,269.32241)"
       clip-path="url(#clipPath405)" /><path
       id="path406"
       d="M 0,0 C 1.02,1.411 2.631,2.38 4.355,2.617"
       style="fill:none;stroke:#2e2e2e;stroke-width:0.501;stroke-linecap:round;stroke-linejoin:round;stroke-miterlimit:10;stroke-dasharray:none;stroke-opacity:1"
       transform="matrix(1.3333333,0,0,-1.3333333,-361.40727,266.35947)"
       clip-path="url(#clipPath407)" /><path
       id="path408"
       d="M 0,0 C -0.388,0.361 -0.756,0.743 -1.131,1.113 -1.49,1.456 -1.857,1.787 -2.285,2.027 -3.099,2.567 -4.051,2.846 -4.997,2.947 -5.951,3.025 -6.913,2.907 -7.813,2.581 -8.269,2.425 -8.693,2.203 -9.114,1.953 -9.557,1.665 -9.995,1.373 -10.58,1.287 c -0.134,-0.019 -0.258,0.073 -0.277,0.207 -0.008,0.053 0.002,0.105 0.025,0.149 0.274,0.524 0.695,0.84 1.113,1.162 0.455,0.331 0.937,0.66 1.474,0.868 1.054,0.472 2.247,0.594 3.386,0.451 C -3.724,3.955 -2.624,3.51 -1.734,2.804 -1.281,2.459 -0.908,2.027 -0.562,1.591 -0.258,1.155 0.047,0.726 0.335,0.28 0.401,0.178 0.372,0.042 0.27,-0.024 0.184,-0.08 0.072,-0.067 0,0"
       style="fill:#2e2e2e;fill-opacity:1;fill-rule:nonzero;stroke:none"
       transform="matrix(1.3333333,0,0,-1.3333333,-373.52954,269.48321)"
       clip-path="url(#clipPath409)" /><path
       id="path410"
       d="M 0,0 C -0.073,1.014 -0.955,1.777 -1.969,1.704 -2.983,1.631 -3.746,0.75 -3.673,-0.265 -3.6,-1.279 -2.719,-2.042 -1.704,-1.969 -0.689,-1.896 0.073,-1.014 0,0"
       style="fill:#2e2e2e;fill-opacity:1;fill-rule:nonzero;stroke:none"
       transform="matrix(1.3333333,0,0,-1.3333333,-377.94234,266.97214)"
       clip-path="url(#clipPath411)" /><path
       id="path412"
       d="M 0,0 C -0.893,-0.473 -1.926,-0.701 -2.997,-0.663"
       style="fill:none;stroke:#2e2e2e;stroke-width:0.501;stroke-linecap:round;stroke-linejoin:round;stroke-miterlimit:10;stroke-dasharray:none;stroke-opacity:1"
       transform="matrix(1.3333333,0,0,-1.3333333,-373.58954,269.32241)"
       clip-path="url(#clipPath413)" /><path
       id="path414"
       d="M 0,0 C -1.02,1.411 -2.632,2.38 -4.356,2.617"
       style="fill:none;stroke:#2e2e2e;stroke-width:0.501;stroke-linecap:round;stroke-linejoin:round;stroke-miterlimit:10;stroke-dasharray:none;stroke-opacity:1"
       transform="matrix(1.3333333,0,0,-1.3333333,-373.2418,266.35947)"
       clip-path="url(#clipPath415)" /><path
       id="path416"
       d="M 0,0 V 8.951"
       style="fill:none;stroke:#2e2e2e;stroke-width:0.462;stroke-linecap:round;stroke-linejoin:round;stroke-miterlimit:10;stroke-dasharray:none;stroke-opacity:1"
       transform="matrix(1.3333333,0,0,-1.3333333,-367.42407,278.25134)"
       clip-path="url(#clipPath417)" /><path
       id="path418"
       d="m 0,0 1.536,-0.646 h 10e-4 c 0.984,-0.415 2.088,-0.415 3.073,0 L 6.146,0"
       style="fill:none;stroke:#2e2e2e;stroke-width:0.462;stroke-linecap:round;stroke-linejoin:round;stroke-miterlimit:10;stroke-dasharray:none;stroke-opacity:1"
       transform="matrix(1.3333333,0,0,-1.3333333,-371.5686,280.31907)"
       clip-path="url(#clipPath419)" /><path
       id="path420"
       d="M 0,0 C 1.875,-0.02 3.837,0.346 5.444,1.31"
       style="fill:none;stroke:#2e2e2e;stroke-width:0.418;stroke-linecap:round;stroke-linejoin:round;stroke-miterlimit:10;stroke-dasharray:none;stroke-opacity:1"
       transform="matrix(1.3333333,0,0,-1.3333333,-365.78354,289.78001)"
       clip-path="url(#clipPath421)" /><path
       id="path422"
       d="M 0,0 C -1.875,-0.02 -3.837,0.345 -5.444,1.31"
       style="fill:none;stroke:#2e2e2e;stroke-width:0.418;stroke-linecap:round;stroke-linejoin:round;stroke-miterlimit:10;stroke-dasharray:none;stroke-opacity:1"
       transform="matrix(1.3333333,0,0,-1.3333333,-370.53874,289.88747)"
       clip-path="url(#clipPath423)" /><path
       id="path424"
       d="M 0,0 C 0.846,-0.646 2.435,-0.808 3.566,0.081"
       style="fill:none;stroke:#2e2e2e;stroke-width:0.418;stroke-linecap:round;stroke-linejoin:round;stroke-miterlimit:10;stroke-dasharray:none;stroke-opacity:1"
       transform="matrix(1.3333333,0,0,-1.3333333,-370.53874,289.88747)"
       clip-path="url(#clipPath425)" /><path
       id="path426"
       d="M 0,0 C 0.413,0.866 1.24,1.389 2.062,1.616 2.895,1.843 3.729,1.799 4.485,1.657 6.042,1.309 7.157,0.684 7.983,0.337 l 0.978,-0.423 c 0.256,-0.116 0.522,-0.215 0.965,-0.237 0.879,-0.068 2.172,0.376 3.815,0.528 -0.16,-1.901 -0.736,-3.543 -2.174,-4.841 C 10.863,-5.272 9.864,-5.708 8.856,-5.783 7.847,-5.871 6.915,-5.616 6.15,-5.271 4.607,-4.562 3.615,-3.5 2.86,-2.648 2.464,-2.193 2.095,-1.744 1.678,-1.287 1.254,-0.823 0.783,-0.376 0,0"
       style="fill:#2e2e2e;fill-opacity:1;fill-rule:nonzero;stroke:none"
       transform="matrix(1.3333333,0,0,-1.3333333,-368.09074,284.03587)"
       clip-path="url(#clipPath427)" /><path
       id="path428"
       d="M 0,0 C -0.783,-0.376 -1.254,-0.823 -1.678,-1.287 -2.095,-1.744 -2.464,-2.193 -2.86,-2.648 -3.615,-3.5 -4.607,-4.562 -6.15,-5.271 c -0.765,-0.345 -1.697,-0.6 -2.706,-0.512 -1.008,0.075 -2.007,0.511 -2.711,1.147 -1.438,1.298 -2.015,2.94 -2.174,4.841 1.642,-0.152 2.935,-0.596 3.815,-0.528 0.443,0.022 0.708,0.121 0.965,0.237 l 0.978,0.423 c 0.826,0.347 1.941,0.972 3.498,1.32 0.756,0.142 1.59,0.186 2.423,-0.041 C -1.24,1.389 -0.413,0.866 0,0"
       style="fill:#2e2e2e;fill-opacity:1;fill-rule:nonzero;stroke:none"
       transform="matrix(1.3333333,0,0,-1.3333333,-368.07914,284.03587)"
       clip-path="url(#clipPath429)" /><path
       id="path430"
       d="m 0,0 c 3.713,0.428 7.69,1.675 9.704,4.822 1.696,2.651 1.593,6.159 0.407,9.074 -1.763,4.335 -5.913,7.657 -10.555,8.246 -4.643,0.588 -9.575,-1.673 -12.006,-5.672 -2.431,-3.999 -2.117,-9.534 0.887,-13.123 3.003,-3.589 8.533,-4.849 12.722,-2.764"
       style="fill:#2e2e2e;fill-opacity:1;fill-rule:nonzero;stroke:none"
       transform="matrix(1.3333333,0,0,-1.3333333,-365.8486,238.06454)"
       clip-path="url(#clipPath431)" /><path
       id="path432"
       d="m 0,0 c 2.045,-1.983 2.06,-5.476 0.624,-7.947 -1.435,-2.472 -3.997,-4.063 -6.628,-5.121 -4.044,-1.626 -8.675,-2.194 -12.735,-0.611 -4.06,1.583 -7.32,5.647 -7.14,10.051"
       style="fill:none;stroke:#2e2e2e;stroke-width:0.405;stroke-linecap:round;stroke-linejoin:round;stroke-miterlimit:10;stroke-dasharray:none;stroke-opacity:1"
       transform="matrix(1.3333333,0,0,-1.3333333,-351.42287,218.72214)"
       clip-path="url(#clipPath433)" /><path
       id="path434"
       d="m 0,0 c 3.817,0.485 7.106,3.572 8.052,7.303 0.946,3.73 -0.381,7.89 -3.156,10.557 -2.775,2.667 -6.852,3.833 -10.66,3.275 -3.446,-0.505 -6.736,-2.441 -8.537,-5.423 -1.801,-2.982 -1.928,-6.997 -0.012,-9.906 1.917,-2.909 5.916,-4.373 9.148,-3.077"
       style="fill:none;stroke:#2e2e2e;stroke-width:0.405;stroke-linecap:round;stroke-linejoin:round;stroke-miterlimit:10;stroke-dasharray:none;stroke-opacity:1"
       transform="matrix(1.3333333,0,0,-1.3333333,-364.01274,234.80281)"
       clip-path="url(#clipPath435)" /><path
       id="path436"
       d="m 0,0 c -9.117,-4.114 -17.44,-5.382 -18.591,-2.832 -1.15,2.549 5.308,7.951 14.425,12.065 9.116,4.114 17.44,5.382 18.591,2.832 C 15.575,9.516 9.117,4.114 0,0"
       style="fill:#2e2e2e;fill-opacity:1;fill-rule:nonzero;stroke:none"
       transform="matrix(1.3333333,0,0,-1.3333333,-306.5322,390.32241)"
       clip-path="url(#clipPath437)" /><path
       id="path438"
       d="m 0,0 -4.269,10.368 -3.416,8.307 -2.88,7.008 -6.33,15.38 c -3.333,8.092 -0.056,17.057 7.13,19.519 1.255,0.429 2.541,0.623 3.815,0.614 0.117,-10e-4 0.235,-0.002 0.352,-0.014 C -0.024,60.981 5.36,56.843 7.518,50.525 l 5.123,-14.975 2.294,-6.715 9.91,-29.017"
       style="fill:#f5f5ff;fill-opacity:1;fill-rule:nonzero;stroke:#2e2e2e;stroke-width:0.535;stroke-linecap:round;stroke-linejoin:round;stroke-miterlimit:10;stroke-dasharray:none;stroke-opacity:1"
       transform="matrix(1.3333333,0,0,-1.3333333,-311.8734,420.18041)"
       clip-path="url(#clipPath439)" /><path
       id="path440"
       d="m 0,0 c -1.68,2.129 -9.673,0.792 -18.383,-3.135 -9.127,-4.119 -15.59,-9.523 -14.423,-12.08 0.021,-0.054 0.053,-0.097 0.096,-0.15 l -0.096,-0.043 -4.077,9.544 c 1.82,2.911 7.394,6.902 14.541,10.123 7.234,3.263 13.986,4.815 17.334,4.194 z"
       style="fill:#f5f5ff;fill-opacity:1;fill-rule:nonzero;stroke:#2e2e2e;stroke-width:0.501;stroke-linecap:round;stroke-linejoin:round;stroke-miterlimit:10;stroke-dasharray:none;stroke-opacity:1"
       transform="matrix(1.3333333,0,0,-1.3333333,-287.5674,373.82294)"
       clip-path="url(#clipPath441)" /><path
       id="path442"
       d="m 0,0 c -3.349,0.621 -10.101,-0.931 -17.334,-4.194 -7.147,-3.221 -12.722,-7.212 -14.541,-10.123 l -6.003,14.071 c -3.948,9.266 0.321,19.838 9.299,22.973 1.701,0.599 3.434,0.888 5.157,0.888 6.152,0 12.048,-3.649 15.076,-9.555 z"
       style="fill:#2e2e2e;fill-opacity:1;fill-rule:nonzero;stroke:none"
       transform="matrix(1.3333333,0,0,-1.3333333,-294.24447,362.55214)"
       clip-path="url(#clipPath443)" /><path
       id="path444"
       d="m 0,0 c 9.117,-4.114 17.44,-5.382 18.591,-2.832 1.15,2.549 -5.308,7.951 -14.425,12.065 -9.117,4.114 -17.44,5.382 -18.591,2.832 C -15.575,9.516 -9.117,4.114 0,0"
       style="fill:#2e2e2e;fill-opacity:1;fill-rule:nonzero;stroke:none"
       transform="matrix(1.3333333,0,0,-1.3333333,-429.1546,390.32241)"
       clip-path="url(#clipPath445)" /><path
       id="path446"
       d="m 0,0 4.269,10.368 3.417,8.307 2.88,7.008 6.33,15.38 C 20.228,49.155 16.952,58.12 9.765,60.582 8.51,61.011 7.225,61.205 5.951,61.196 5.833,61.195 5.716,61.194 5.598,61.182 0.024,60.981 -5.359,56.843 -7.518,50.525 l -5.123,-14.975 -2.294,-6.715 -9.91,-29.017"
       style="fill:#f5f5ff;fill-opacity:1;fill-rule:nonzero;stroke:#2e2e2e;stroke-width:0.535;stroke-linecap:round;stroke-linejoin:round;stroke-miterlimit:10;stroke-dasharray:none;stroke-opacity:1"
       transform="matrix(1.3333333,0,0,-1.3333333,-423.81474,420.18041)"
       clip-path="url(#clipPath447)" /><path
       id="path448"
       d="m 0,0 c 1.68,2.129 9.672,0.792 18.382,-3.135 9.127,-4.119 15.59,-9.523 14.424,-12.08 -0.022,-0.054 -0.054,-0.097 -0.097,-0.15 l 0.097,-0.043 4.077,9.544 C 35.063,-2.953 29.488,1.038 22.341,4.259 15.108,7.522 8.356,9.074 5.007,8.453 Z"
       style="fill:#f5f5ff;fill-opacity:1;fill-rule:nonzero;stroke:#2e2e2e;stroke-width:0.501;stroke-linecap:round;stroke-linejoin:round;stroke-miterlimit:10;stroke-dasharray:none;stroke-opacity:1"
       transform="matrix(1.3333333,0,0,-1.3333333,-448.1194,373.82294)"
       clip-path="url(#clipPath449)" /><path
       id="path450"
       d="m 0,0 c 3.35,0.621 10.102,-0.931 17.334,-4.194 7.147,-3.221 12.723,-7.212 14.542,-10.123 l 6.002,14.071 c 3.948,9.266 -0.32,19.838 -9.298,22.973 -1.701,0.599 -3.434,0.888 -5.157,0.888 -6.152,0 -12.049,-3.649 -15.076,-9.555 z"
       style="fill:#2e2e2e;fill-opacity:1;fill-rule:nonzero;stroke:none"
       transform="matrix(1.3333333,0,0,-1.3333333,-441.44367,362.55214)"
       clip-path="url(#clipPath451)" /><path
       id="path452"
       d="m 0,0 h -76.301 l 0.396,11.182 0.278,8.068 0.353,9.908 1.134,31.993 0.171,4.761 2.461,0.888 14.306,5.169 2.761,0.994 1.37,0.503 3.573,1.923 h 1.081 20.651 0.428 l 4.013,-1.847 1.358,-0.493 2.761,-0.995 14.724,-5.318 2.267,-0.824 0.161,-4.772 0.61,-18.019 0.46,-13.771 0.332,-9.961 v -0.054 l 0.299,-8.999 z"
       style="fill:#f5f5ff;fill-opacity:1;fill-rule:nonzero;stroke:#2e2e2e;stroke-width:0.535;stroke-linecap:round;stroke-linejoin:round;stroke-miterlimit:10;stroke-dasharray:none;stroke-opacity:1"
       transform="matrix(1.3333333,0,0,-1.3333333,-316.89674,420.85027)"
       clip-path="url(#clipPath453)" /><path
       id="path454"
       d="m 0,0 2.989,-2.063 1.303,-0.469 c -0.975,-7.772 -7.607,-13.77 -15.648,-13.77 -8.006,0 -14.627,5.963 -15.649,13.688 l 1.326,0.481 3.141,2.407"
       style="fill:#f5f5ff;fill-opacity:1;fill-rule:nonzero;stroke:#2e2e2e;stroke-width:0.516;stroke-linecap:round;stroke-linejoin:round;stroke-miterlimit:10;stroke-dasharray:none;stroke-opacity:1"
       transform="matrix(1.3333333,0,0,-1.3333333,-352.3942,319.73441)"
       clip-path="url(#clipPath455)" /><path
       id="path456"
       d="M 0,0 V -69.236"
       style="fill:none;stroke:#2e2e2e;stroke-width:0.462;stroke-linecap:round;stroke-linejoin:round;stroke-miterlimit:10;stroke-dasharray:none;stroke-opacity:1"
       transform="matrix(1.3333333,0,0,-1.3333333,-401.76007,328.09121)"
       clip-path="url(#clipPath457)" /><path
       id="path458"
       d="M 0,0 V -65.073"
       style="fill:none;stroke:#2e2e2e;stroke-width:0.462;stroke-linecap:round;stroke-linejoin:round;stroke-miterlimit:10;stroke-dasharray:none;stroke-opacity:1"
       transform="matrix(1.3333333,0,0,-1.3333333,-384.05567,333.64134)"
       clip-path="url(#clipPath459)" /><path
       id="path460"
       d="M 0,0 -0.004,-59.087"
       style="fill:none;stroke:#2e2e2e;stroke-width:0.462;stroke-linecap:round;stroke-linejoin:round;stroke-miterlimit:10;stroke-dasharray:none;stroke-opacity:1"
       transform="matrix(1.3333333,0,0,-1.3333333,-367.61167,341.62307)"
       clip-path="url(#clipPath461)" /><path
       id="path462"
       d="M 0,0 V -66.228"
       style="fill:none;stroke:#2e2e2e;stroke-width:0.462;stroke-linecap:round;stroke-linejoin:round;stroke-miterlimit:10;stroke-dasharray:none;stroke-opacity:1"
       transform="matrix(1.3333333,0,0,-1.3333333,-349.91247,332.10227)"
       clip-path="url(#clipPath463)" /><path
       id="path464"
       d="M 0,0 V -69.236"
       style="fill:none;stroke:#2e2e2e;stroke-width:0.462;stroke-linecap:round;stroke-linejoin:round;stroke-miterlimit:10;stroke-dasharray:none;stroke-opacity:1"
       transform="matrix(1.3333333,0,0,-1.3333333,-333.47234,328.09121)"
       clip-path="url(#clipPath465)" /></g></svg>
